<svg xmlns="http://www.w3.org/2000/svg" version="1.1" xmlns:xlink="http://www.w3.org/1999/xlink" width="1000" height="1000"><style>
    #light-icon {
      display: inline;
    }
    #dark-icon {
      display: none;
    }

    @media (prefers-color-scheme: dark) {
      #light-icon {
        display: none;
      }
      #dark-icon {
        display: inline;
      }
    }
  </style><g id="light-icon"><svg xmlns="http://www.w3.org/2000/svg" version="1.1" xmlns:xlink="http://www.w3.org/1999/xlink" width="1000" height="1000"><g clip-path="url(#SvgjsClipPath1608)"><rect width="1000" height="1000" fill="#ffffff"></rect><g transform="matrix(4.949178302067017,0,0,4.949178302067017,254.59994554489822,150)"><svg xmlns="http://www.w3.org/2000/svg" version="1.1" xmlns:xlink="http://www.w3.org/1999/xlink" width="99.167999" height="141.43762"><svg version="1.1" id="svg1" width="99.167999" height="141.43762" viewBox="0 0 99.167999 141.43762" sodipodi:docname="Pawn.svg" inkscape:version="1.4.3 (0d15f75, 2025-12-25)" xmlns:inkscape="http://www.inkscape.org/namespaces/inkscape" xmlns:sodipodi="http://sodipodi.sourceforge.net/DTD/sodipodi-0.dtd" xmlns="http://www.w3.org/2000/svg" xmlns:svg="http://www.w3.org/2000/svg">
  <defs id="defs1"><clipPath id="SvgjsClipPath1608"><rect width="1000" height="1000" x="0" y="0" rx="350" ry="350"></rect></clipPath></defs>
  <sodipodi:namedview id="namedview1" pagecolor="#505050" bordercolor="#eeeeee" borderopacity="1" inkscape:showpageshadow="0" inkscape:pageopacity="0" inkscape:pagecheckerboard="0" inkscape:deskcolor="#d1d1d1" inkscape:zoom="3.2754328" inkscape:cx="95.40724" inkscape:cy="76.631095" inkscape:window-width="1341" inkscape:window-height="795" inkscape:window-x="0" inkscape:window-y="30" inkscape:window-maximized="0" inkscape:current-layer="svg1"></sodipodi:namedview>
  <g id="layer-MC0" transform="translate(-353.46201,-837.0713)" style="fill:#1c398e;fill-opacity:1">
    <path id="path51" d="m 0,0 c -6.345,-4.46 -7.833,-13.709 -3.413,-18.862 0.781,-0.911 3,-1.803 3.656,-1.364 1.564,1.049 2.87,2.677 1.18,4.998 C -1.958,-10.586 -3.961,-5.659 0,0 m -0.124,-39.424 -1.022,0.126 c -4.858,-11.614 -7.969,-24.051 -16.41,-34.185 6.425,0 12.268,0.044 18.11,-0.021 2.463,-0.027 2.826,1.233 2.583,3.318 -0.693,5.947 -1.269,11.907 -1.895,17.861 -0.452,4.301 -0.911,8.6 -1.366,12.901 m 10.481,16.928 c 2.804,0.254 4.231,0.383 6.006,0.543 -0.078,-1.352 -0.151,-2.615 -0.234,-4.054 -1.295,-0.278 -2.469,-0.798 -3.608,-0.729 -4.817,0.291 -5.725,-2.748 -5.982,-6.576 -0.828,-12.35 2.04,-24.136 5.418,-35.842 0.576,-1.995 1.377,-3.51 4.167,-3.322 0.943,0.064 2.709,-2.295 2.945,-3.735 0.395,-2.401 -0.141,-4.955 -0.314,-7.948 -8.522,-1.124 -17.283,-2.28 -26.046,-3.438 0.014,-0.438 0.028,-0.877 0.042,-1.316 h 29.671 c -2.523,-3.697 -2.723,-5.906 0.942,-7.489 0.874,-0.378 0.794,-2.963 1.42,-5.708 -25.177,6.305 -49.325,5.602 -73.529,1.756 -0.283,0.442 -0.565,0.884 -0.847,1.327 1.758,1.901 3.513,3.805 5.276,5.702 0.363,0.39 1.02,0.708 1.093,1.136 0.82,4.736 5.953,5.585 8.204,9.087 0.583,0.908 2.584,1.06 3.977,1.263 4.754,0.694 9.533,1.22 14.29,1.895 1.225,0.173 2.405,0.661 3.606,1.005 -0.022,0.376 -0.044,0.754 -0.066,1.131 -3.801,0.441 -7.601,0.882 -12.266,1.423 11.635,12.697 18.878,27.083 22.992,43.069 0.215,0.838 0.028,1.781 0.028,3.109 -2.417,-0.589 -4.418,-1.077 -6.419,-1.564 -0.104,0.187 -0.208,0.374 -0.311,0.561 3.407,2.347 6.814,4.692 11.015,7.586 -6.844,0.95 -10.254,4.673 -11.382,11.146 -1.128,6.476 1.5,12.466 6.599,15.041 4.858,2.455 11.81,1.673 15.281,-2.187 6.804,-7.566 5.219,-15.025 -1.968,-22.872" transform="matrix(1.3333333,0,0,-1.3333333,419.58467,842.36227)" style="fill:#1c398e;fill-opacity:1"></path>
  </g>
</svg></svg></g></g></svg></g><g id="dark-icon"><svg xmlns="http://www.w3.org/2000/svg" version="1.1" xmlns:xlink="http://www.w3.org/1999/xlink" width="1000" height="1000"><g clip-path="url(#SvgjsClipPath1609)"><rect width="1000" height="1000" fill="#ffffff"></rect><g transform="matrix(4.949178302067017,0,0,4.949178302067017,254.59994554489822,150)"><svg xmlns="http://www.w3.org/2000/svg" version="1.1" xmlns:xlink="http://www.w3.org/1999/xlink" width="99.167999" height="141.43762"><svg version="1.1" id="svg1" width="99.167999" height="141.43762" viewBox="0 0 99.167999 141.43762" sodipodi:docname="Pawn.svg" inkscape:version="1.4.3 (0d15f75, 2025-12-25)" xmlns:inkscape="http://www.inkscape.org/namespaces/inkscape" xmlns:sodipodi="http://sodipodi.sourceforge.net/DTD/sodipodi-0.dtd" xmlns="http://www.w3.org/2000/svg" xmlns:svg="http://www.w3.org/2000/svg">
  <defs id="defs1"><clipPath id="SvgjsClipPath1609"><rect width="1000" height="1000" x="0" y="0" rx="350" ry="350"></rect></clipPath></defs>
  <sodipodi:namedview id="namedview1" pagecolor="#505050" bordercolor="#eeeeee" borderopacity="1" inkscape:showpageshadow="0" inkscape:pageopacity="0" inkscape:pagecheckerboard="0" inkscape:deskcolor="#d1d1d1" inkscape:zoom="3.2754328" inkscape:cx="95.40724" inkscape:cy="76.631095" inkscape:window-width="1341" inkscape:window-height="795" inkscape:window-x="0" inkscape:window-y="30" inkscape:window-maximized="0" inkscape:current-layer="svg1"></sodipodi:namedview>
  <g id="layer-MC0" transform="translate(-353.46201,-837.0713)" style="fill:#1c398e;fill-opacity:1">
    <path id="path51" d="m 0,0 c -6.345,-4.46 -7.833,-13.709 -3.413,-18.862 0.781,-0.911 3,-1.803 3.656,-1.364 1.564,1.049 2.87,2.677 1.18,4.998 C -1.958,-10.586 -3.961,-5.659 0,0 m -0.124,-39.424 -1.022,0.126 c -4.858,-11.614 -7.969,-24.051 -16.41,-34.185 6.425,0 12.268,0.044 18.11,-0.021 2.463,-0.027 2.826,1.233 2.583,3.318 -0.693,5.947 -1.269,11.907 -1.895,17.861 -0.452,4.301 -0.911,8.6 -1.366,12.901 m 10.481,16.928 c 2.804,0.254 4.231,0.383 6.006,0.543 -0.078,-1.352 -0.151,-2.615 -0.234,-4.054 -1.295,-0.278 -2.469,-0.798 -3.608,-0.729 -4.817,0.291 -5.725,-2.748 -5.982,-6.576 -0.828,-12.35 2.04,-24.136 5.418,-35.842 0.576,-1.995 1.377,-3.51 4.167,-3.322 0.943,0.064 2.709,-2.295 2.945,-3.735 0.395,-2.401 -0.141,-4.955 -0.314,-7.948 -8.522,-1.124 -17.283,-2.28 -26.046,-3.438 0.014,-0.438 0.028,-0.877 0.042,-1.316 h 29.671 c -2.523,-3.697 -2.723,-5.906 0.942,-7.489 0.874,-0.378 0.794,-2.963 1.42,-5.708 -25.177,6.305 -49.325,5.602 -73.529,1.756 -0.283,0.442 -0.565,0.884 -0.847,1.327 1.758,1.901 3.513,3.805 5.276,5.702 0.363,0.39 1.02,0.708 1.093,1.136 0.82,4.736 5.953,5.585 8.204,9.087 0.583,0.908 2.584,1.06 3.977,1.263 4.754,0.694 9.533,1.22 14.29,1.895 1.225,0.173 2.405,0.661 3.606,1.005 -0.022,0.376 -0.044,0.754 -0.066,1.131 -3.801,0.441 -7.601,0.882 -12.266,1.423 11.635,12.697 18.878,27.083 22.992,43.069 0.215,0.838 0.028,1.781 0.028,3.109 -2.417,-0.589 -4.418,-1.077 -6.419,-1.564 -0.104,0.187 -0.208,0.374 -0.311,0.561 3.407,2.347 6.814,4.692 11.015,7.586 -6.844,0.95 -10.254,4.673 -11.382,11.146 -1.128,6.476 1.5,12.466 6.599,15.041 4.858,2.455 11.81,1.673 15.281,-2.187 6.804,-7.566 5.219,-15.025 -1.968,-22.872" transform="matrix(1.3333333,0,0,-1.3333333,419.58467,842.36227)" style="fill:#1c398e;fill-opacity:1"></path>
  </g>
</svg></svg></g></g></svg></g></svg>