<?xml version="1.0" encoding="UTF-8" standalone="no"?>
<!-- Created with Inkscape (http://www.inkscape.org/) -->

<svg
   version="1.1"
   id="svg1"
   width="467.03732"
   height="188.976"
   viewBox="0 0 467.03732 188.976"
   sodipodi:docname="ConcelloPontevedra.svg"
   inkscape:version="1.4.3 (0d15f75, 2025-12-25)"
   xmlns:inkscape="http://www.inkscape.org/namespaces/inkscape"
   xmlns:sodipodi="http://sodipodi.sourceforge.net/DTD/sodipodi-0.dtd"
   xmlns="http://www.w3.org/2000/svg"
   xmlns:svg="http://www.w3.org/2000/svg">
  <defs
     id="defs1">
    <clipPath
       clipPathUnits="userSpaceOnUse"
       id="clipPath24">
      <path
         d="M -342.32031,100.27791 H 7.9576977 V -41.454099 H -342.32031 Z"
         id="path24" />
    </clipPath>
  </defs>
  <sodipodi:namedview
     id="namedview1"
     pagecolor="#505050"
     bordercolor="#eeeeee"
     borderopacity="1"
     inkscape:showpageshadow="0"
     inkscape:pageopacity="0"
     inkscape:pagecheckerboard="0"
     inkscape:deskcolor="#d1d1d1"
     inkscape:zoom="1.0018171"
     inkscape:cx="207.12364"
     inkscape:cy="206.62455"
     inkscape:window-width="1350"
     inkscape:window-height="795"
     inkscape:window-x="0"
     inkscape:window-y="30"
     inkscape:window-maximized="0"
     inkscape:current-layer="g1">
    <inkscape:page
       x="0"
       y="0"
       inkscape:label="1"
       id="page1"
       width="467.03732"
       height="188.976"
       margin="0"
       bleed="0" />
  </sodipodi:namedview>
  <g
     id="g1"
     inkscape:groupmode="layer"
     inkscape:label="1">
    <g
       id="group-MC0">
      <path
         id="path2"
         d="m 0,0 v 8.024 c 0,4.431 3.592,8.023 8.023,8.023 4.43,0 8.022,-3.592 8.022,-8.023 h 10e-4 v -8.025 h 10.698 v 18.72 0.002 c 0,4.43 3.59,8.022 8.023,8.022 4.431,0 8.022,-3.592 8.022,-8.022 L 42.79,18.719 V 8.042 c 0,-0.005 -10e-4,-0.012 -10e-4,-0.018 h 10e-4 v -8.025 h 10.697 v 8.025 c 0,4.431 3.593,8.023 8.023,8.023 4.431,0 8.022,-3.592 8.022,-8.023 h 0.002 V 0 H 80.23 V 37.44 H 69.534 V 24.917 c -2.435,1.158 -5.148,1.826 -8.024,1.826 -3.236,0 -6.279,-0.821 -8.935,-2.266 -2.43,7.52 -9.48,12.963 -17.808,12.963 -8.33,0 -15.381,-5.443 -17.81,-12.963 -2.656,1.445 -5.699,2.266 -8.934,2.266 C 5.148,26.743 2.435,26.078 0,24.917 V 37.44 H -10.697 V 8.042 c 0,-0.005 -0.001,-0.012 -0.001,-0.018 h 0.001 V 0 Z"
         style="fill:currentColor;"
         transform="matrix(1.3333333,0,0,-1.3333333,14.264267,49.92)" />
      <path
         id="path3"
         d="m 0,0 c -8.699,0 -8.699,-5.358 -17.397,-5.358 -8.681,0 -8.681,5.358 -17.379,5.358 -8.698,0 -8.698,-5.358 -17.38,-5.358 -8.696,0 -8.696,5.358 -17.378,5.358 v 10.698 c 8.682,0 8.682,-5.358 17.378,-5.358 8.7,0 8.7,5.358 17.38,5.358 8.698,0 8.698,-5.358 17.379,-5.358 8.698,0 8.698,5.358 17.397,5.358 z m 0,-22.492 c -8.699,0 -8.699,-5.358 -17.397,-5.358 -8.681,0 -8.681,5.358 -17.379,5.358 -8.698,0 -8.698,-5.358 -17.38,-5.358 -8.696,0 -8.696,5.358 -17.378,5.358 v 10.699 c 8.682,0 8.682,-5.358 17.378,-5.358 8.682,0 8.682,5.358 17.38,5.358 8.698,0 8.698,-5.358 17.379,-5.358 8.698,0 8.698,5.358 17.397,5.358 z M -2.566,-45.19 c -6.227,-0.925 -7.097,-5.151 -14.812,-5.151 -8.7,0 -8.7,5.34 -17.398,5.34 -8.68,0 -8.68,-5.34 -17.38,-5.34 -7.734,0 -8.602,4.226 -14.809,5.151 -1.378,3.396 -2.227,7.056 -2.454,10.887 8.567,-0.038 8.604,-5.34 17.263,-5.34 8.682,0 8.682,5.34 17.38,5.34 8.698,0 8.698,-5.34 17.379,-5.34 8.659,0 8.698,5.302 17.282,5.34 -0.244,-3.831 -1.075,-7.491 -2.451,-10.887 m -32.21,-21.662 c -6.358,0 -12.302,1.736 -17.435,4.717 h 0.055 c 8.7,0 8.7,5.341 17.38,5.341 8.698,0 8.698,-5.341 17.398,-5.341 h 0.037 c -5.133,-2.981 -11.076,-4.717 -17.435,-4.717 M -80.23,21.397 v -53.492 c 0,-12.548 5.093,-23.927 13.321,-32.154 8.225,-8.207 19.585,-13.301 32.133,-13.301 25.113,0 45.473,20.34 45.473,45.455 v 53.492 z"
         style="fill:currentColor;"
         transform="matrix(1.3333333,0,0,-1.3333333,106.98173,85.5756)" />
      <path
         id="path4"
         d="m 0,0 c 0,-2.236 -1.801,-3.681 -4.587,-3.681 h -3.645 v 7.433 h 3.645 C -2.874,3.752 0,3.273 0,0.07 Z m -4.239,8.318 h -8.981 v -24.362 h 4.988 v 7.831 h 3.506 c 5.394,0 9.745,2.889 9.745,8.318 v 0.069 c 0,4.908 -3.55,8.144 -9.258,8.144"
         style="fill:currentColor;"
         transform="matrix(1.3333333,0,0,-1.3333333,240.79293,116.74493)" />
      <path
         id="path5"
         d="m 0,0 c 0,7.287 5.447,12.84 12.911,12.84 3.29,0 5.766,-1.096 7.357,-2.263 L 18.854,6.19 C 17.651,7.04 15.422,8.171 12.911,8.171 8.419,8.171 5.2,4.669 5.2,0 c 0,-4.74 3.219,-8.17 7.711,-8.17 2.689,0 4.987,1.202 6.155,2.016 l 1.414,-4.351 C 18.995,-11.602 16.519,-12.84 12.911,-12.84 5.165,-12.84 0,-7.286 0,0"
         style="fill:currentColor;"
         transform="matrix(1.3333333,0,0,-1.3333333,156.8268,74.464933)" />
      <path
         id="path6"
         d="m 0,0 c 2.936,0 5.094,2.193 5.094,5.341 0,3.148 -2.158,5.448 -5.094,5.448 -2.936,0 -5.058,-2.265 -5.058,-5.448 C -5.058,2.193 -2.9,0 0,0 m 0,15.104 c 5.66,0 9.975,-4.174 9.975,-9.763 0,-5.589 -4.174,-9.656 -9.975,-9.656 -5.766,0 -9.94,4.067 -9.94,9.656 0,5.625 4.315,9.763 9.94,9.763"
         style="fill:currentColor;"
         transform="matrix(1.3333333,0,0,-1.3333333,199.78973,85.8308)" />
      <path
         id="path7"
         d="M 0,0 V -10.682 H -4.881 V 0.617 c 0,2.051 -0.946,3.325 -2.608,3.325 -1.663,0 -3.76,-0.794 -3.76,-0.794 v -13.83 H -16.13 V 6.296 c 6.046,2.116 8.67,1.981 9.313,1.981 C -0.813,8.277 0,3.927 0,0"
         style="fill:currentColor;"
         transform="matrix(1.3333333,0,0,-1.3333333,238.16467,76.728667)" />
      <path
         id="path8"
         d="m 0,0 v -10.683 h -4.881 v 11.3 c 0,2.051 -0.946,3.325 -2.608,3.325 -1.662,0 -3.76,-0.795 -3.76,-0.795 v -13.83 H -16.13 V 6.296 c 6.046,2.116 8.67,1.981 9.313,1.981 C -0.812,8.277 0,3.926 0,0"
         style="fill:currentColor;"
         transform="matrix(1.3333333,0,0,-1.3333333,300.44013,123.89333)" />
      <path
         id="path9"
         d="m 0,0 1.309,-3.997 c -1.061,-0.849 -3.078,-1.981 -5.766,-1.981 -5.765,0 -9.869,4.032 -9.869,9.657 0,5.624 4.21,9.762 9.834,9.762 2.723,0 4.634,-1.061 5.837,-1.981 l -1.38,-4.103 c -0.813,0.744 -2.229,1.769 -4.316,1.769 -3.148,0 -5.093,-2.441 -5.093,-5.412 0,-3.149 2.193,-5.377 5.27,-5.377 1.875,0 3.361,0.991 4.174,1.663"
         style="fill:currentColor;"
         transform="matrix(1.3333333,0,0,-1.3333333,261.21293,83.614)" />
      <path
         id="path10"
         d="m 0,0 c -0.106,2.264 -1.733,3.75 -3.961,3.75 -2.3,0 -3.786,-1.627 -3.998,-3.75 z m -4.033,7.747 c 5.731,0 8.985,-3.821 8.985,-9.869 0,-0.354 0,-0.708 -0.035,-1.062 H -8.1 c 0.106,-2.476 2.087,-4.244 4.81,-4.244 2.512,0 3.962,1.486 4.493,2.264 l 3.218,-2.441 c -0.707,-1.309 -3.183,-4.068 -7.781,-4.068 -5.943,0 -9.727,4.103 -9.727,9.657 0,5.589 3.784,9.763 9.054,9.763"
         style="fill:currentColor;"
         transform="matrix(1.3333333,0,0,-1.3333333,282.42973,76.020933)" />
      <path
         id="path11"
         d="M 0,0 C -0.106,2.264 -1.733,3.75 -3.962,3.75 -6.261,3.75 -7.746,2.123 -7.958,0 Z m -4.032,7.747 c 5.73,0 8.984,-3.82 8.984,-9.869 0,-0.354 0,-0.708 -0.035,-1.061 H -8.1 c 0.106,-2.476 2.087,-4.245 4.81,-4.245 2.512,0 3.962,1.486 4.493,2.264 l 3.219,-2.441 c -0.708,-1.309 -3.184,-4.067 -7.782,-4.067 -5.942,0 -9.728,4.102 -9.728,9.656 0,5.589 3.786,9.763 9.056,9.763"
         style="fill:currentColor;"
         transform="matrix(1.3333333,0,0,-1.3333333,337.65627,123.18627)" />
      <path
         id="path12"
         d="m 0,0 c 2.936,0 5.094,2.193 5.094,5.341 0,3.148 -2.158,5.448 -5.094,5.448 -2.936,0 -5.059,-2.265 -5.059,-5.448 C -5.059,2.193 -2.9,0 0,0 m 0,15.104 c 5.66,0 9.975,-4.174 9.975,-9.763 0,-5.589 -4.174,-9.656 -9.975,-9.656 -5.766,0 -9.939,4.067 -9.939,9.656 0,5.625 4.314,9.763 9.939,9.763"
         style="fill:currentColor;"
         transform="matrix(1.3333333,0,0,-1.3333333,328.00587,85.8308)" />
      <path
         id="path13"
         d="M 0,0 C -0.106,2.264 -1.733,3.75 -3.962,3.75 -6.261,3.75 -7.746,2.123 -7.958,0 Z m -4.032,7.747 c 5.73,0 8.984,-3.82 8.984,-9.869 0,-0.354 0,-0.708 -0.035,-1.061 H -8.1 c 0.106,-2.476 2.086,-4.245 4.81,-4.245 2.512,0 3.962,1.486 4.493,2.264 l 3.219,-2.441 c -0.708,-1.309 -3.184,-4.067 -7.782,-4.067 -5.943,0 -9.728,4.102 -9.728,9.656 0,5.589 3.785,9.763 9.056,9.763"
         style="fill:currentColor;"
         transform="matrix(1.3333333,0,0,-1.3333333,203.44853,123.18627)" />
      <path
         id="path14"
         d="m 0,0 c 2.936,0 5.094,2.193 5.094,5.342 0,3.147 -2.158,5.447 -5.094,5.447 -2.936,0 -5.058,-2.264 -5.058,-5.447 C -5.058,2.193 -2.9,0 0,0 m 0,15.104 c 5.66,0 9.975,-4.174 9.975,-9.762 0,-5.59 -4.174,-9.657 -9.975,-9.657 -5.766,0 -9.939,4.067 -9.939,9.657 0,5.624 4.315,9.762 9.939,9.762"
         style="fill:currentColor;"
         transform="matrix(1.3333333,0,0,-1.3333333,261.94787,132.99613)" />
      <path
         id="path15"
         d="m 0,0 -6.615,18.5 h 5.2 L 2.83,5.2 7.074,18.5 h 5.2 L 5.66,0 Z"
         style="fill:currentColor;"
         transform="matrix(1.3333333,0,0,-1.3333333,354.60867,138.1368)" />
      <path
         id="path16"
         d="M 0,0 C -0.106,2.264 -1.733,3.75 -3.962,3.75 -6.261,3.75 -7.747,2.123 -7.959,0 Z m -4.032,7.747 c 5.73,0 8.984,-3.82 8.984,-9.869 0,-0.354 0,-0.708 -0.035,-1.061 H -8.101 c 0.107,-2.476 2.088,-4.245 4.811,-4.245 2.512,0 3.962,1.486 4.493,2.264 l 3.218,-2.441 c -0.707,-1.309 -3.183,-4.067 -7.782,-4.067 -5.942,0 -9.727,4.102 -9.727,9.656 0,5.589 3.785,9.763 9.056,9.763"
         style="fill:currentColor;"
         transform="matrix(1.3333333,0,0,-1.3333333,389.33653,123.18627)" />
      <path
         id="path17"
         d="m 0,0 c -3.644,0 -4.987,-2.264 -4.987,-5.942 v -8.065 H -9.869 V 4.492 h 4.775 V 1.804 C -4.28,3.644 -2.441,4.952 0,4.952 Z"
         style="fill:currentColor;"
         transform="matrix(1.3333333,0,0,-1.3333333,443.35413,119.4604)" />
      <path
         id="path18"
         d="M 0,0 V -24.014 H 4.881 V 1.206 C 2.076,0.848 0,0 0,0"
         style="fill:currentColor;"
         transform="matrix(1.3333333,0,0,-1.3333333,293.48173,58.952533)" />
      <path
         id="path19"
         d="M 0,0 V -24.014 H 4.881 V 1.206 C 2.076,0.848 0,0 0,0"
         style="fill:currentColor;"
         transform="matrix(1.3333333,0,0,-1.3333333,304.4636,58.952533)" />
      <path
         id="path20"
         d="m 0,0 c -0.388,-0.036 -0.565,-0.036 -0.884,-0.036 -1.875,0 -2.723,0.567 -2.723,3.326 v 7.145 H 0 v 3.961 h -3.607 v 3.891 C -6.13,17.965 -8.089,17.249 -8.454,17.107 V 3.147 c 0,-5.022 1.946,-7.498 6.368,-7.498 1.89,0 3.352,0.488 3.352,0.488 z"
         style="fill:currentColor;"
         transform="matrix(1.3333333,0,0,-1.3333333,316.71747,132.66547)" />
      <path
         id="path21"
         d="m 0,0 c 0,-2.936 -1.769,-5.342 -4.739,-5.342 -2.76,0 -4.74,2.052 -4.74,5.342 0,3.219 1.91,5.447 4.74,5.447 C -2.052,5.447 0,3.466 0,0 m -0.142,7.357 c -0.459,0.637 -2.298,2.405 -5.482,2.405 -5.306,0 -8.772,-3.996 -8.772,-9.727 0,-5.694 3.75,-9.692 9.055,-9.692 3.148,0 4.987,1.769 5.483,2.37 l 0.505,-1.91 H 4.74 V 16.377 C 1.935,16.019 -0.142,15.171 -0.142,15.171 Z"
         style="fill:currentColor;"
         transform="matrix(1.3333333,0,0,-1.3333333,418.46613,125.87373)" />
      <path
         id="path22"
         d="m 0,0 c 0,-2.936 -1.769,-5.342 -4.739,-5.342 -2.76,0 -4.74,2.052 -4.74,5.342 0,3.219 1.91,5.447 4.74,5.447 C -2.051,5.447 0,3.466 0,0 m -0.141,7.357 c -0.46,0.637 -2.299,2.405 -5.483,2.405 -5.306,0 -8.772,-3.996 -8.772,-9.727 0,-5.694 3.749,-9.692 9.055,-9.692 3.148,0 4.987,1.769 5.483,2.37 l 0.505,-1.91 H 4.74 V 16.377 C 1.935,16.019 -0.141,15.171 -0.141,15.171 Z"
         style="fill:currentColor;"
         transform="matrix(1.3333333,0,0,-1.3333333,176.02213,125.87373)" />
      <path
         id="path23"
         d="m 0,0 c 1.839,0 3.183,0.991 3.183,2.547 0,1.627 -1.344,2.582 -3.219,2.582 C -1.911,5.129 -3.22,4.068 -3.22,2.547 -3.22,1.026 -1.84,0 0,0 m -0.92,8.525 c 1.874,0 3.324,-0.566 3.997,-1.025 v 1.202 c 0,1.627 -1.233,2.938 -3.391,2.938 -2.356,0 -5.731,-0.957 -5.731,-0.957 v 3.802 c 0,0 3.462,1.15 6.292,1.15 5.942,0 7.711,-3.113 7.711,-7.251 V -3.325 H 3.643 l -0.319,1.203 c -0.955,-1.026 -2.37,-1.662 -4.492,-1.662 -3.75,0 -6.933,2.299 -6.933,6.19 0,3.643 2.866,6.119 7.181,6.119"
         style="fill:currentColor;"
         transform="matrix(1.3333333,0,0,-1.3333333,456.42707,133.70387)"
         clip-path="url(#clipPath24)" />
    </g>
  </g>
</svg>
