<?xml version="1.0" encoding="UTF-8" standalone="no"?>
<!-- Created with Inkscape (http://www.inkscape.org/) -->

<svg
   width="172.49986mm"
   height="172.49879mm"
   viewBox="0 0 172.49986 172.49879"
   version="1.1"
   id="svg1"
   sodipodi:docname="DeportePontevedra.svg"
   inkscape:version="1.4.3 (0d15f75, 2025-12-25)"
   xmlns:inkscape="http://www.inkscape.org/namespaces/inkscape"
   xmlns:sodipodi="http://sodipodi.sourceforge.net/DTD/sodipodi-0.dtd"
   xmlns="http://www.w3.org/2000/svg"
   xmlns:svg="http://www.w3.org/2000/svg">
  <sodipodi:namedview
     id="namedview1"
     pagecolor="#505050"
     bordercolor="#eeeeee"
     borderopacity="1"
     inkscape:showpageshadow="0"
     inkscape:pageopacity="0"
     inkscape:pagecheckerboard="0"
     inkscape:deskcolor="#d1d1d1"
     inkscape:document-units="mm"
     inkscape:zoom="0.51700035"
     inkscape:cx="421.66316"
     inkscape:cy="294.00367"
     inkscape:window-width="1308"
     inkscape:window-height="617"
     inkscape:window-x="0"
     inkscape:window-y="30"
     inkscape:window-maximized="0"
     inkscape:current-layer="layer1"
     inkscape:export-bgcolor="#ffffffff" />
  <defs
     id="defs1" />
  <g
     inkscape:label="Layer 1"
     inkscape:groupmode="layer"
     id="layer1"
     transform="translate(-52.122242,-45.107319)">
    <path
       id="path1"
       d="m 224.6221,131.35619 c 0,47.63523 -38.61576,86.24993 -86.24993,86.24993 -47.634169,0 -86.249928,-38.6147 -86.249928,-86.24993 0,-47.633817 38.615759,-86.248871 86.249928,-86.248871 47.63417,0 86.24993,38.615054 86.24993,86.248871"
       style="fill:currentColor;fill-opacity:1;fill-rule:nonzero;stroke:none;stroke-width:0.352778" />
    <path
       id="path2"
       d="m 206.28488,132.03935 c 0,37.50698 -30.40627,67.91254 -67.91254,67.91254 -37.50698,0 -67.912189,-30.40556 -67.912189,-67.91254 0,-37.506626 30.405209,-67.91113 67.912189,-67.91113 37.50627,0 67.91254,30.404504 67.91254,67.91113"
       style="fill:#ffffff;fill-opacity:1;fill-rule:nonzero;stroke:none;stroke-width:0.352778" />
    <path
       id="path3"
       d="m 153.71585,118.73285 c -14.92038,1.77941 -27.42,11.44764 -33.21085,24.71526 14.92285,-1.77977 27.42177,-11.44764 33.21085,-24.71526"
       style="fill:currentColor;fill-opacity:1;fill-rule:evenodd;stroke:none;stroke-width:0.352778" />
    <path
       id="path4"
       d="m 187.59733,132.56301 c 0,-0.71437 -0.0236,-1.42381 -0.0543,-2.13113 -6.19301,-6.10094 -14.23387,-10.03547 -23.41068,-11.20457 -6.6167,19.24014 -24.51488,33.23342 -45.79338,34.08009 -0.35489,2.17276 -0.5394,4.40373 -0.5394,6.67667 0,6.66503 1.71662,13.09688 4.59705,18.76319 5.08494,1.79282 10.547,2.77919 16.2373,2.77919 26.99914,0 48.96344,-21.96501 48.96344,-48.96344"
       style="fill:#00adef;fill-opacity:1;fill-rule:nonzero;stroke:none;stroke-width:0.352778" />
    <path
       id="path5"
       d="m 117.79919,159.98425 c 0,-2.27365 0.1845,-4.50356 0.5394,-6.67773 21.27849,-0.84631 39.17667,-14.83854 45.79337,-34.07868 9.17787,1.16804 17.21838,5.10328 23.41175,11.20422 0.0296,0.70767 0.0529,1.41605 0.0529,2.13113 0,26.99879 -21.96394,48.96343 -48.96308,48.96343 -5.69031,0 -11.15236,-0.98601 -16.23624,-2.77883 -2.88044,-5.66667 -4.59811,-12.09816 -4.59811,-18.76354"
       style="fill:currentColor;fill-opacity:1;fill-rule:nonzero;stroke:none;stroke-width:0.352778" />
    <path
       id="path6"
       d="m 89.408831,132.30153 c 0,0.50976 0.02258,1.01529 0.03916,1.52153 5.910792,5.0225 13.252799,8.41058 21.337059,9.44174 6.61811,-19.24085 24.51488,-33.23307 45.79372,-34.07974 0.35596,-2.17311 0.54011,-4.40372 0.54011,-6.67667 0,-5.973586 -1.29999,-11.637433 -3.59234,-16.758355 -4.77555,-1.558925 -9.86543,-2.411589 -15.15463,-2.411589 -26.99808,0 -48.963077,21.963944 -48.963077,48.963084"
       style="fill:#80cc28;fill-opacity:1;fill-rule:nonzero;stroke:none;stroke-width:0.352778" />
    <path
       id="path7"
       d="m 153.52704,85.74968 c 2.292,5.120922 3.59163,10.784769 3.59163,16.75835 0,2.27366 -0.18486,4.50357 -0.54081,6.67773 -21.27744,0.84632 -39.17526,14.8389 -45.79232,34.07869 -8.0846,-1.03011 -15.427672,-4.41854 -21.337405,-9.44069 -0.01623,-0.50623 -0.03916,-1.01282 -0.03916,-1.52259 0,-26.99914 21.965005,-48.963079 48.963435,-48.963079 5.28849,0 10.37908,0.85337 15.15463,2.411589"
       style="fill:currentColor;fill-opacity:1;fill-rule:nonzero;stroke:none;stroke-width:0.352778" />
    <path
       id="path8"
       d="m 166.36381,109.95475 c 0.33408,-2.34703 0.50659,-4.74557 0.50659,-7.18538 0,-3.780364 -0.42192,-7.462658 -1.20862,-11.007016 8.88118,5.901972 15.72472,14.621936 19.26167,24.874356 -5.57989,-3.35879 -11.8491,-5.68748 -18.55964,-6.68196"
       style="fill:currentColor;fill-opacity:1;fill-rule:nonzero;stroke:none;stroke-width:0.352778" />
    <path
       id="path9"
       d="m 108.81627,152.53732 c -0.33408,2.34703 -0.50659,4.74592 -0.50659,7.18467 0,4.17477 0.52141,8.22643 1.47461,12.10733 -8.39823,-6.1468 -14.778564,-14.89498 -17.929575,-25.05462 5.172075,2.86102 10.883895,4.86198 16.961555,5.76262"
       style="fill:currentColor;fill-opacity:1;fill-rule:nonzero;stroke:none;stroke-width:0.352778" />
    <path
       id="path10"
       d="m 92.374704,100.5286 c 0.330553,-0.45473 0.564092,-0.730956 0.717903,-1.261886 0.104775,-0.395111 0.119944,-0.756356 0.04374,-1.083381 -0.150636,-0.703086 -0.553508,-1.194505 -1.050219,-1.555044 -0.49777,-0.360892 -1.299633,-0.621594 -2.052461,-0.449439 -0.831497,0.213431 -1.18745,0.748595 -1.7526,1.526117 l -0.282222,0.390172 4.023077,2.919591 z m -8.5471,-0.23707 2.979209,-4.102802 c 1.165577,-1.605844 2.2352,-2.783417 3.874911,-3.427236 1.583619,-0.633942 2.988027,-0.431094 4.047772,0.338314 0.974372,0.706967 1.613605,1.963208 1.575152,3.495675 -0.03351,1.659466 -0.796925,3.210983 -1.914525,4.751559 l -3.143602,4.32965 z"
       style="fill:currentColor;fill-opacity:1;fill-rule:nonzero;stroke:none;stroke-width:0.352778" />
    <path
       id="path11"
       d="m 111.02543,85.818048 -8.35625,6.060016 -5.379152,-7.419621 8.356602,-6.058606 1.23931,1.708856 -5.01439,3.635022 0.78423,1.080911 4.05588,-2.940756 1.1998,1.654528 -4.05589,2.941461 0.87031,1.199797 5.01332,-3.635022 z"
       style="fill:currentColor;fill-opacity:1;fill-rule:nonzero;stroke:none;stroke-width:0.352778" />
    <path
       id="path12"
       d="m 119.90517,76.337993 c 0.91546,-0.296333 2.00942,-0.692503 1.74554,-1.505655 -0.25117,-0.7747 -1.26365,-0.517878 -2.17875,-0.221545 l -1.16346,0.37712 0.54821,1.690158 z m 0.58208,5.372805 -4.06153,1.315156 -2.82716,-8.717491 5.34106,-1.72967 c 1.2767,-0.413808 2.71603,-0.851958 3.98145,-0.783519 1.37654,0.08643 2.38231,0.716844 2.6864,1.656997 0.26741,0.826558 0.0462,1.768828 -0.75706,2.605264 -0.83362,0.873477 -2.08915,1.41993 -3.34786,1.828447 l -2.04082,0.660047 z"
       style="fill:currentColor;fill-opacity:1;fill-rule:nonzero;stroke:none;stroke-width:0.352778" />
    <path
       id="path13"
       d="m 137.41331,74.12283 c -0.0155,0.882297 0.0963,2.581275 2.02001,2.614789 1.92405,0.03316 2.09232,-1.660525 2.1082,-2.543175 0.0159,-0.894645 -0.15346,-2.688872 -2.01754,-2.721328 -1.86408,-0.0321 -2.09515,1.75507 -2.11067,2.649714 m 8.63776,0.136525 c -0.0455,2.606675 -2.48602,4.649258 -6.65374,4.576939 -4.16842,-0.07267 -6.53732,-2.19957 -6.49287,-4.804128 0.0466,-2.740025 2.46591,-4.703233 6.6548,-4.629502 4.18853,0.07232 6.53909,2.117019 6.49181,4.856691"
       style="fill:currentColor;fill-opacity:1;fill-rule:nonzero;stroke:none;stroke-width:0.352778" />
    <path
       id="path14"
       d="m 157.5075,76.346634 1.4478,0.532342 c 0.86607,0.319616 1.93181,0.612422 2.20486,-0.127706 0.10548,-0.288219 -0.0194,-0.646994 -0.36301,-0.93098 -0.29668,-0.237067 -0.71084,-0.390173 -1.0862,-0.528109 l -1.6002,-0.588786 z M 155.62084,81.474612 151.61435,80 l 3.16477,-8.602132 6.56449,2.416174 c 1.12783,0.416278 2.33291,0.973314 3.13513,1.7526 0.90593,0.845609 1.13242,1.797756 0.82268,2.638072 -0.41522,1.128184 -1.41676,1.528939 -3.1115,1.432631 l 0.95356,4.606572 -4.40126,-1.619603 -0.67063,-3.977922 -1.24213,-0.4572 z"
       style="fill:currentColor;fill-opacity:1;fill-rule:nonzero;stroke:none;stroke-width:0.352778" />
    <path
       id="path15"
       d="m 172.75586,90.975201 -3.18558,-2.432755 4.22627,-5.532614 -2.29376,-1.751542 1.33985,-1.7526 7.72513,5.899856 -1.33985,1.7526 -2.24578,-1.714853 z"
       style="fill:currentColor;fill-opacity:1;fill-rule:nonzero;stroke:none;stroke-width:0.352778" />
    <path
       id="path16"
       d="m 185.10446,105.01706 -6.12563,-8.308269 7.3787,-5.437364 6.12563,8.308269 -1.69968,1.252364 -3.6756,-4.984752 -1.07491,0.792339 2.97356,4.033303 -1.64676,1.21285 -2.97251,-4.033304 -1.1945,0.879828 3.67559,4.985456 z"
       style="fill:currentColor;fill-opacity:1;fill-rule:nonzero;stroke:none;stroke-width:0.352778" />
    <path
       id="path17"
       d="m 84.992901,119.8301 c 0,1.91241 -1.549753,3.46216 -3.462161,3.46216 -1.912408,0 -3.462866,-1.54975 -3.462866,-3.46216 0,-1.91311 1.550458,-3.46287 3.462866,-3.46287 1.912408,0 3.462161,1.54976 3.462161,3.46287"
       style="fill:currentColor;fill-opacity:1;fill-rule:nonzero;stroke:none;stroke-width:0.352778" />
    <path
       id="path18"
       d="m 198.98062,119.8301 c 0,1.91241 -1.54975,3.46216 -3.46181,3.46216 -1.91241,0 -3.46322,-1.54975 -3.46322,-3.46216 0,-1.91311 1.55081,-3.46287 3.46322,-3.46287 1.91206,0 3.46181,1.54976 3.46181,3.46287"
       style="fill:currentColor;fill-opacity:1;fill-rule:nonzero;stroke:none;stroke-width:0.352778" />
    <path
       id="path19"
       d="m 81.760539,142.08145 c 0.159103,0.94932 0.389114,2.08986 1.232958,1.94804 0.803628,-0.13512 0.697795,-1.1744 0.538692,-2.12302 l -0.201083,-1.20579 -1.7526,0.29386 z m -5.399969,-0.21167 -0.702733,-4.21146 9.03746,-1.51447 0.926042,5.53438 c 0.221191,1.32573 0.442383,2.81234 0.189794,4.05341 -0.28963,1.34902 -1.059744,2.25072 -2.034116,2.41406 -0.856898,0.14358 -1.756834,-0.21414 -2.465917,-1.13136 -0.740833,-0.9525 -1.098197,-2.27471 -1.316214,-3.57928 l -0.35313,-2.11526 z"
       style="fill:currentColor;fill-opacity:1;fill-rule:nonzero;stroke:none;stroke-width:0.352778" />
    <path
       id="path20"
       d="m 86.239689,158.53246 c -0.775758,0.41875 -2.202744,1.34726 -1.28905,3.0413 0.914047,1.69298 2.472972,1.01 3.249789,0.59125 0.787753,-0.42509 2.268008,-1.45168 1.382536,-3.09245 -0.884414,-1.64006 -2.555522,-0.9652 -3.343275,-0.5401 m 4.112683,7.5946 c -2.293055,1.23754 -5.267677,0.11112 -7.247819,-3.55812 -1.97873,-3.66747 -1.286933,-6.77368 1.005769,-8.01193 2.410884,-1.30034 5.307189,-0.15381 7.295092,3.53201 1.988961,3.68582 1.357841,6.737 -1.053042,8.03804"
       style="fill:currentColor;fill-opacity:1;fill-rule:nonzero;stroke:none;stroke-width:0.352778" />
    <path
       id="path21"
       d="m 97.803319,180.56075 -0.0053,-5.83001 0.221192,-2.04822 -0.04798,-0.008 -0.04198,0.10653 c -0.250825,0.56868 -0.408517,0.85902 -0.83432,1.32045 l -2.891719,3.1489 -2.523772,-2.31987 6.201833,-6.74829 2.935467,2.69946 -0.0674,6.88834 0.0473,0.007 1.49613,-2.07257 1.72649,-1.87889 2.52342,2.31986 -6.20148,6.74935 z"
       style="fill:currentColor;fill-opacity:1;fill-rule:nonzero;stroke:none;stroke-width:0.352778" />
    <path
       id="path22"
       d="m 113.25354,190.20185 -3.6195,-1.7272 2.99685,-6.28368 -2.60491,-1.24248 0.94862,-1.99037 8.77605,4.18606 -0.94862,1.98966 -2.55164,-1.21637 z"
       style="fill:currentColor;fill-opacity:1;fill-rule:nonzero;stroke:none;stroke-width:0.352778" />
    <path
       id="path23"
       d="m 133.49364,195.45048 -10.18434,-1.66229 1.47355,-9.04557 10.18575,1.66229 -0.34007,2.08421 -6.11082,-0.99872 -0.2159,1.31869 4.94524,0.80715 -0.32879,2.01754 -4.94418,-0.80716 -0.23883,1.46368 6.11081,0.99765 z"
       style="fill:currentColor;fill-opacity:1;fill-rule:nonzero;stroke:none;stroke-width:0.352778" />
    <path
       id="path24"
       d="m 149.82425,194.41451 -4.26508,0.62301 -5.70689,-8.42822 4.38291,-0.63994 3.38632,5.43208 1.67357,-6.17115 3.43077,-0.50129 z"
       style="fill:currentColor;fill-opacity:1;fill-rule:nonzero;stroke:none;stroke-width:0.352778" />
    <path
       id="path25"
       d="m 170.77216,186.67753 -9.26677,4.54589 -4.03824,-8.22889 9.26676,-4.54554 0.92922,1.89512 -5.55872,2.72803 0.58879,1.19909 4.49721,-2.20627 0.90134,1.8348 -4.49932,2.20698 0.6544,1.33067 5.56013,-2.72732 z"
       style="fill:currentColor;fill-opacity:1;fill-rule:nonzero;stroke:none;stroke-width:0.352778" />
    <path
       id="path26"
       d="m 179.8159,176.92517 c 0.40322,-0.38911 0.68016,-0.62159 0.92604,-1.11831 0.1711,-0.37006 0.248,-0.72319 0.22966,-1.05903 -0.025,-0.71967 -0.33655,-1.27212 -0.76518,-1.7138 -0.4265,-0.44238 -1.17086,-0.83785 -1.94133,-0.79939 -0.85655,0.0667 -1.29822,0.53093 -1.99002,1.2005 l -0.34572,0.33443 3.4544,3.57435 z m -8.37494,-1.71556 3.6449,-3.52425 c 1.42628,-1.37901 2.68428,-2.3555 4.41078,-2.70404 1.66828,-0.3496 3.0166,0.0931 3.92747,1.03576 0.83503,0.86395 1.24672,2.21297 0.94227,3.71545 -0.31997,1.62983 -1.3402,3.02578 -2.70969,4.34869 l -3.84633,3.72004 z"
       style="fill:currentColor;fill-opacity:1;fill-rule:nonzero;stroke:none;stroke-width:0.352778" />
    <path
       id="path27"
       d="m 188.56574,160.28464 0.70838,-1.37125 c 0.42227,-0.82021 0.84419,-1.8422 0.14393,-2.20451 -0.2734,-0.1397 -0.64523,-0.0614 -0.96873,0.24589 -0.27234,0.26494 -0.47484,0.65687 -0.65863,1.01353 l -0.7807,1.51377 z m 4.85775,2.50578 -1.95898,3.79377 -8.14669,-4.20158 3.20781,-6.21665 c 0.55139,-1.06962 1.25377,-2.19639 2.12654,-2.89631 0.95109,-0.79586 1.92299,-0.9024 2.71851,-0.49212 1.06962,0.55139 1.34267,1.59385 1.03822,3.26425 l 4.69053,-0.37712 -2.15018,4.16807 -4.03225,0.17745 -0.60607,1.1744 z"
       style="fill:currentColor;fill-opacity:1;fill-rule:nonzero;stroke:none;stroke-width:0.352778" />
    <path
       id="path28"
       d="m 196.70478,140.88567 -2.79823,0.7112 2.45992,1.50918 z m 2.09021,-0.41275 -0.5521,3.62726 1.65665,1.10278 -0.51612,3.38985 -8.41869,-5.59718 0.66816,-4.39984 9.71092,-2.88608 -0.64841,4.26156 z"
       style="fill:currentColor;fill-opacity:1;fill-rule:nonzero;stroke:none;stroke-width:0.352778" />
  </g>
</svg>
