<?xml version="1.0" encoding="UTF-8" standalone="no"?>
<!-- Created with Inkscape (http://www.inkscape.org/) -->

<svg
   width="91.272667mm"
   height="37.930729mm"
   viewBox="0 0 91.272667 37.930729"
   version="1.1"
   id="svg1"
   inkscape:version="1.4.3 (0d15f75, 2025-12-25)"
   sodipodi:docname="DeporteGalego.svg"
   xmlns:inkscape="http://www.inkscape.org/namespaces/inkscape"
   xmlns:sodipodi="http://sodipodi.sourceforge.net/DTD/sodipodi-0.dtd"
   xmlns="http://www.w3.org/2000/svg"
   xmlns:svg="http://www.w3.org/2000/svg">
  <sodipodi:namedview
     id="namedview1"
     pagecolor="#505050"
     bordercolor="#eeeeee"
     borderopacity="1"
     inkscape:showpageshadow="0"
     inkscape:pageopacity="0"
     inkscape:pagecheckerboard="0"
     inkscape:deskcolor="#d1d1d1"
     inkscape:document-units="mm"
     inkscape:zoom="1.2600763"
     inkscape:cx="187.29025"
     inkscape:cy="55.552193"
     inkscape:window-width="1185"
     inkscape:window-height="579"
     inkscape:window-x="0"
     inkscape:window-y="30"
     inkscape:window-maximized="0"
     inkscape:current-layer="layer1" />
  <defs
     id="defs1" />
  <g
     inkscape:label="Layer 1"
     inkscape:groupmode="layer"
     id="layer1"
     transform="translate(-84.137504,-99.48333)">
    <g
       id="g5067"
       transform="matrix(1.6088021,0,0,-1.6088021,164.97483,118.13224)"
       style="fill:currentColor">
      <path
         d="M 0,0 C -1.001,0 -1.714,0.807 -1.714,1.786 V 1.8 c 0,0.98 0.698,1.78 1.7,1.78 1.001,0 1.713,-0.814 1.713,-1.794 V 1.772 C 1.699,0.792 1.001,0 0,0 m -0.014,-0.82 c 1.548,0 2.641,1.188 2.641,2.606 V 1.8 C 2.627,3.219 1.548,4.392 0,4.392 -1.549,4.392 -2.642,3.205 -2.642,1.786 V 1.772 c 0,-1.419 1.079,-2.592 2.628,-2.592 m -5.66,0 c 0.757,0 1.362,0.259 1.793,0.547 0.209,0.129 0.309,0.309 0.309,0.561 v 1.347 c 0,0.252 -0.194,0.446 -0.446,0.446 h -1.404 c -0.216,0 -0.396,-0.173 -0.396,-0.388 0,-0.216 0.18,-0.381 0.396,-0.381 h 0.994 V 0.368 c -0.309,-0.231 -0.741,-0.382 -1.217,-0.382 -1.03,0 -1.714,0.763 -1.714,1.8 V 1.8 c 0,0.965 0.706,1.78 1.635,1.78 0.547,0 0.9,-0.159 1.225,-0.397 0.071,-0.051 0.158,-0.1 0.273,-0.1 0.245,0 0.439,0.201 0.439,0.439 0,0.173 -0.094,0.295 -0.18,0.359 -0.461,0.331 -0.965,0.511 -1.721,0.511 -1.519,0 -2.598,-1.194 -2.598,-2.606 V 1.771 c 0,-1.468 1.035,-2.591 2.612,-2.591 m -6.767,0.087 h 2.966 c 0.216,0 0.396,0.172 0.396,0.395 0,0.216 -0.18,0.396 -0.396,0.396 h -2.528 v 1.354 h 2.168 c 0.216,0 0.396,0.173 0.396,0.388 0,0.224 -0.18,0.403 -0.396,0.403 h -2.168 v 1.312 h 2.491 c 0.217,0 0.397,0.173 0.397,0.395 0,0.216 -0.18,0.396 -0.397,0.396 h -2.929 c -0.252,0 -0.446,-0.195 -0.446,-0.446 v -4.147 c 0,-0.252 0.194,-0.446 0.446,-0.446 m -4.903,0.446 c 0,-0.252 0.194,-0.446 0.446,-0.446 h 2.721 c 0.223,0 0.403,0.18 0.403,0.402 0,0.223 -0.18,0.403 -0.403,0.403 h -2.282 v 3.831 c 0,0.244 -0.194,0.438 -0.439,0.438 -0.252,0 -0.446,-0.194 -0.446,-0.438 z m -4.327,1.554 0.885,2.038 0.886,-2.038 z m -1.584,-1.626 c 0,-0.23 0.18,-0.41 0.41,-0.41 0.188,0 0.339,0.101 0.411,0.28 l 0.424,0.973 h 2.448 l 0.41,-0.944 c 0.08,-0.187 0.224,-0.309 0.432,-0.309 0.238,0 0.418,0.187 0.418,0.424 0,0.058 -0.015,0.123 -0.05,0.188 l -1.872,4.175 c -0.101,0.223 -0.274,0.359 -0.526,0.359 h -0.043 c -0.252,0 -0.432,-0.136 -0.533,-0.359 l -1.871,-4.175 c -0.036,-0.072 -0.058,-0.137 -0.058,-0.202 m -2.909,-0.461 c 0.756,0 1.361,0.259 1.793,0.547 0.208,0.129 0.309,0.309 0.309,0.561 v 1.347 c 0,0.252 -0.194,0.446 -0.446,0.446 h -1.404 c -0.216,0 -0.396,-0.173 -0.396,-0.388 0,-0.216 0.18,-0.381 0.396,-0.381 h 0.994 V 0.368 c -0.309,-0.231 -0.741,-0.382 -1.217,-0.382 -1.03,0 -1.714,0.763 -1.714,1.8 V 1.8 c 0,0.965 0.706,1.78 1.635,1.78 0.547,0 0.9,-0.159 1.224,-0.397 0.072,-0.051 0.158,-0.1 0.273,-0.1 0.245,0 0.439,0.201 0.439,0.439 0,0.173 -0.093,0.295 -0.18,0.359 -0.46,0.331 -0.964,0.511 -1.72,0.511 -1.52,0 -2.599,-1.194 -2.599,-2.606 V 1.771 c 0,-1.468 1.036,-2.591 2.613,-2.591"
         style="fill:currentColor;fill-opacity:1;fill-rule:nonzero;stroke:none"
         id="path5069"
         inkscape:connector-curvature="0" />
    </g>
    <g
       id="g5071"
       transform="matrix(1.6088021,0,0,-1.6088021,170.00138,107.72876)"
       style="fill:currentColor">
      <path
         d="m 0,0 h 2.966 c 0.216,0 0.396,0.173 0.396,0.395 0,0.216 -0.18,0.396 -0.396,0.396 H 0.439 v 1.355 h 2.167 c 0.216,0 0.396,0.172 0.396,0.388 0,0.223 -0.18,0.402 -0.396,0.402 H 0.439 V 4.248 H 2.93 c 0.216,0 0.396,0.172 0.396,0.395 0,0.216 -0.18,0.396 -0.396,0.396 H 0 c -0.252,0 -0.446,-0.195 -0.446,-0.446 V 0.446 C -0.446,0.194 -0.252,0 0,0 m -3.873,0.403 c 0,-0.245 0.201,-0.439 0.446,-0.439 0.245,0 0.446,0.194 0.446,0.439 v 3.816 h 1.231 c 0.224,0 0.403,0.187 0.403,0.41 0,0.223 -0.179,0.41 -0.403,0.41 h -3.347 c -0.23,0 -0.41,-0.187 -0.41,-0.41 0,-0.223 0.18,-0.41 0.41,-0.41 h 1.224 z M -9.411,2.54 v 1.693 h 1.29 c 0.655,0 1.044,-0.295 1.044,-0.835 V 3.383 C -7.077,2.872 -7.48,2.54 -8.114,2.54 Z m -0.884,-2.137 c 0,-0.245 0.194,-0.439 0.446,-0.439 0.245,0 0.438,0.194 0.438,0.439 v 1.354 h 1.117 l 1.225,-1.562 c 0.1,-0.138 0.23,-0.231 0.431,-0.231 0.216,0 0.424,0.166 0.424,0.41 0,0.137 -0.057,0.23 -0.143,0.339 l -0.965,1.216 c 0.677,0.209 1.145,0.698 1.145,1.505 v 0.014 c 0,0.44 -0.151,0.814 -0.418,1.087 -0.324,0.317 -0.82,0.504 -1.454,0.504 h -1.8 c -0.252,0 -0.446,-0.195 -0.446,-0.446 z m -3.701,0.33 c -1.001,0 -1.714,0.807 -1.714,1.787 v 0.014 c 0,0.979 0.699,1.779 1.7,1.779 1.001,0 1.714,-0.814 1.714,-1.793 V 2.505 c 0,-0.979 -0.699,-1.772 -1.7,-1.772 m -0.014,-0.82 c 1.548,0 2.641,1.188 2.641,2.607 v 0.014 c 0,1.418 -1.079,2.591 -2.627,2.591 -1.548,0 -2.642,-1.187 -2.642,-2.605 V 2.505 c 0,-1.419 1.079,-2.592 2.628,-2.592 m -6.329,2.505 v 1.815 h 1.029 c 0.663,0 1.088,-0.309 1.088,-0.9 V 3.319 c 0,-0.526 -0.418,-0.901 -1.088,-0.901 z m -0.885,-2.015 c 0,-0.245 0.194,-0.439 0.446,-0.439 0.245,0 0.439,0.194 0.439,0.439 V 1.62 h 1.001 c 1.109,0 2.015,0.59 2.015,1.72 v 0.014 c 0,1.016 -0.733,1.685 -1.914,1.685 h -1.541 c -0.252,0 -0.446,-0.195 -0.446,-0.446 z M -25.602,0 h 2.966 c 0.216,0 0.396,0.173 0.396,0.395 0,0.216 -0.18,0.396 -0.396,0.396 h -2.527 v 1.355 h 2.167 c 0.216,0 0.396,0.172 0.396,0.388 0,0.223 -0.18,0.402 -0.396,0.402 h -2.167 v 1.312 h 2.491 c 0.216,0 0.396,0.172 0.396,0.395 0,0.216 -0.18,0.396 -0.396,0.396 h -2.93 c -0.252,0 -0.446,-0.195 -0.446,-0.446 V 0.446 C -26.048,0.194 -25.854,0 -25.602,0 m -5.191,0.805 v 3.428 h 0.993 c 1.059,0 1.751,-0.727 1.751,-1.713 V 2.505 c 0,-0.986 -0.692,-1.7 -1.751,-1.7 z M -31.678,0.446 C -31.678,0.194 -31.484,0 -31.232,0 h 1.432 c 1.585,0 2.679,1.101 2.679,2.52 v 0.014 c 0,1.419 -1.094,2.505 -2.679,2.505 h -1.432 c -0.252,0 -0.446,-0.195 -0.446,-0.446 z"
         style="fill:currentColor;fill-opacity:1;fill-rule:nonzero;stroke:none"
         id="path5073"
         inkscape:connector-curvature="0" />
    </g>
    <g
       id="g5075"
       transform="matrix(1.6088021,0,0,-1.6088021,85.585426,99.48333)"
       style="fill:currentColor">
      <path
         d="m 0,0 c -0.497,0 -0.9,-0.403 -0.9,-0.899 v -2.968 l 15.699,-14.898 c 1.036,1.322 1.765,2.925 1.765,4.817 v 0.78 L 2.689,0 Z m -0.9,-13.948 c 0,-6.549 8.732,-9.629 8.732,-9.629 0,0 1.529,0.54 3.308,1.647 L -0.9,-10.504 Z M 15.665,0 H 9.683 l 6.881,-6.531 v 5.632 C 16.564,-0.403 16.161,0 15.665,0"
         style="fill:currentColor;fill-opacity:1;fill-rule:nonzero;stroke:none"
         id="path5077"
         inkscape:connector-curvature="0" />
    </g>
  </g>
</svg>
