<?xml version="1.0" encoding="UTF-8" standalone="no"?>
<svg
   width="232.746"
   height="74.393"
   viewBox="0 0 232.746 74.393"
   version="1.1"
   id="svg1"
   sodipodi:docname="VisitPontevedra.svg"
   inkscape:version="1.4.3 (0d15f75, 2025-12-25)"
   xmlns:inkscape="http://www.inkscape.org/namespaces/inkscape"
   xmlns:sodipodi="http://sodipodi.sourceforge.net/DTD/sodipodi-0.dtd"
   xmlns="http://www.w3.org/2000/svg"
   xmlns:svg="http://www.w3.org/2000/svg">
  <defs
     id="defs1" />
  <sodipodi:namedview
     id="namedview1"
     pagecolor="#505050"
     bordercolor="#eeeeee"
     borderopacity="1"
     inkscape:showpageshadow="0"
     inkscape:pageopacity="0"
     inkscape:pagecheckerboard="0"
     inkscape:deskcolor="#d1d1d1"
     inkscape:zoom="1.9450279"
     inkscape:cx="93.571924"
     inkscape:cy="24.421244"
     inkscape:window-width="1260"
     inkscape:window-height="740"
     inkscape:window-x="0"
     inkscape:window-y="30"
     inkscape:window-maximized="0"
     inkscape:current-layer="svg1" />
  <g
     id="Grupo_325"
     data-name="Grupo 325"
     transform="translate(6190.126 -10636)"
     style="fill:currentColor">
    <g
       id="visit-pontevedra.com-2"
       transform="translate(-6190 10687.529)"
       style="fill:currentColor">
      <path
         id="Trazado_3543"
         data-name="Trazado 3543"
         d="M6.825,0,10.9-10.143H8.022L5.376-3.087,2.73-10.143H-.126L3.948,0Zm6.594-11.235a1.6,1.6,0,0,0,1.6-1.6,1.578,1.578,0,0,0-1.6-1.575,1.591,1.591,0,0,0-1.6,1.575A1.609,1.609,0,0,0,13.419-11.235ZM14.763,0V-10.143H12.1V0Zm6.3.252c2.814,0,4.389-1.407,4.389-3.255,0-4.095-6.006-2.835-6.006-4.347,0-.567.63-1.008,1.6-1.008a4.279,4.279,0,0,1,3,1.176l1.071-1.827a6.479,6.479,0,0,0-4.1-1.386c-2.667,0-4.158,1.491-4.158,3.192,0,3.99,6.027,2.625,6.027,4.305,0,.63-.546,1.092-1.7,1.092a5.805,5.805,0,0,1-3.507-1.386L16.527-1.323A6.828,6.828,0,0,0,21.063.252Zm7.686-11.487a1.6,1.6,0,0,0,1.6-1.6,1.578,1.578,0,0,0-1.6-1.575,1.591,1.591,0,0,0-1.6,1.575A1.609,1.609,0,0,0,28.749-11.235ZM30.093,0V-10.143H27.426V0Zm6.048.252A3.293,3.293,0,0,0,38.367-.4L37.8-2.415a1.457,1.457,0,0,1-.924.294c-.588,0-.924-.483-.924-1.113V-7.812H38.01v-2.331H35.952v-2.772H33.264v2.772h-1.68v2.331h1.68V-2.52C33.264-.714,34.272.252,36.141.252Zm8.043-4.2V-6.216h-5.04v2.268Zm7.749,4.2c2.6,0,4.494-1.953,4.494-5.334S54.537-10.4,51.933-10.4A3.918,3.918,0,0,0,48.8-8.862v-1.281H46.137V3.864H48.8V-1.3A3.876,3.876,0,0,0,51.933.252Zm-.84-2.373A3.054,3.054,0,0,1,48.8-3.276V-6.867a2.987,2.987,0,0,1,2.289-1.155c1.533,0,2.562,1.2,2.562,2.94C53.655-3.318,52.626-2.121,51.093-2.121ZM63.084.252A5.148,5.148,0,0,0,68.46-5.082,5.143,5.143,0,0,0,63.084-10.4a5.137,5.137,0,0,0-5.355,5.313A5.142,5.142,0,0,0,63.084.252Zm0-2.373A2.669,2.669,0,0,1,60.5-5.082a2.662,2.662,0,0,1,2.583-2.94,2.677,2.677,0,0,1,2.6,2.94A2.684,2.684,0,0,1,63.084-2.121ZM79.947,0V-7.161a2.95,2.95,0,0,0-3.3-3.234A4.644,4.644,0,0,0,73.1-8.82v-1.323H70.434V0H73.1V-6.825a2.889,2.889,0,0,1,2.31-1.2,1.646,1.646,0,0,1,1.869,1.89V0Zm6.048.252A3.292,3.292,0,0,0,88.221-.4l-.567-2.016a1.457,1.457,0,0,1-.924.294c-.588,0-.924-.483-.924-1.113V-7.812h2.058v-2.331H85.806v-2.772H83.118v2.772h-1.68v2.331h1.68V-2.52C83.118-.714,84.126.252,85.995.252Zm8.463,0a6.322,6.322,0,0,0,4.179-1.407L97.461-2.877a4.32,4.32,0,0,1-2.709,1.008,2.733,2.733,0,0,1-2.919-2.352h7.539v-.588c0-3.318-2.058-5.586-5.082-5.586a5.162,5.162,0,0,0-5.25,5.313A5.137,5.137,0,0,0,94.458.252Zm2.331-6.279h-5a2.438,2.438,0,0,1,2.5-2.247A2.349,2.349,0,0,1,96.789-6.027ZM106.806,0l4.074-10.143H108l-2.646,7.056-2.646-7.056H99.855L103.929,0Zm10.038.252a6.322,6.322,0,0,0,4.179-1.407l-1.176-1.722a4.32,4.32,0,0,1-2.709,1.008,2.733,2.733,0,0,1-2.919-2.352h7.539v-.588c0-3.318-2.058-5.586-5.082-5.586a5.162,5.162,0,0,0-5.25,5.313A5.137,5.137,0,0,0,116.844.252Zm2.331-6.279h-5a2.438,2.438,0,0,1,2.5-2.247A2.349,2.349,0,0,1,119.175-6.027ZM133.35,0V-14.007h-2.688v5.166a3.906,3.906,0,0,0-3.129-1.554c-2.583,0-4.494,2.016-4.494,5.334,0,3.381,1.932,5.313,4.494,5.313A3.937,3.937,0,0,0,130.662-1.3V0Zm-5-2.121a2.641,2.641,0,0,1-2.562-2.94c0-1.764,1.05-2.961,2.562-2.961a2.9,2.9,0,0,1,2.31,1.155v3.591A2.9,2.9,0,0,1,128.352-2.121ZM138.663,0V-6.7a3.4,3.4,0,0,1,2.5-1.155,3.542,3.542,0,0,1,.735.063v-2.6a4.359,4.359,0,0,0-3.234,1.638v-1.386H136V0Zm13.65,0V-6.552c0-2.919-2.121-3.843-4.431-3.843a6.654,6.654,0,0,0-4.431,1.6l1.008,1.785a4.268,4.268,0,0,1,2.961-1.2c1.344,0,2.226.672,2.226,1.7v1.365a4.172,4.172,0,0,0-3.213-1.239A3.245,3.245,0,0,0,142.9-3.108a3.379,3.379,0,0,0,3.528,3.36,4.2,4.2,0,0,0,3.213-1.3V0ZM147.5-1.554c-1.05,0-1.911-.546-1.911-1.491,0-.987.861-1.533,1.911-1.533a2.668,2.668,0,0,1,2.142.882v1.26A2.668,2.668,0,0,1,147.5-1.554Zm8.82,1.785a1.721,1.721,0,0,0,1.7-1.7,1.721,1.721,0,0,0-1.7-1.7,1.721,1.721,0,0,0-1.7,1.7A1.721,1.721,0,0,0,156.324.231Zm8.652.021A4.675,4.675,0,0,0,168.987-1.6l-1.743-1.617A2.56,2.56,0,0,1,165.1-2.121a2.728,2.728,0,0,1-2.751-2.961,2.71,2.71,0,0,1,2.751-2.94,2.46,2.46,0,0,1,2.142,1.092l1.743-1.638a4.72,4.72,0,0,0-4.011-1.827A5.145,5.145,0,0,0,159.6-5.082,5.15,5.15,0,0,0,164.976.252Zm10.458,0a5.148,5.148,0,0,0,5.376-5.334,5.143,5.143,0,0,0-5.376-5.313,5.137,5.137,0,0,0-5.355,5.313A5.142,5.142,0,0,0,175.434.252Zm0-2.373a2.669,2.669,0,0,1-2.583-2.961,2.662,2.662,0,0,1,2.583-2.94,2.677,2.677,0,0,1,2.6,2.94A2.684,2.684,0,0,1,175.434-2.121ZM198.051,0V-7.329c0-2.079-1.113-3.066-2.982-3.066a4.3,4.3,0,0,0-3.486,1.848,2.684,2.684,0,0,0-2.814-1.848,4.437,4.437,0,0,0-3.318,1.575v-1.323h-2.667V0h2.667V-6.825a2.722,2.722,0,0,1,2.1-1.2c1.092,0,1.512.672,1.512,1.617V0h2.688V-6.846a2.693,2.693,0,0,1,2.1-1.176c1.092,0,1.512.672,1.512,1.617V0Z"
         transform="translate(0 19)"
         fill="#fff"
         style="fill:currentColor" />
    </g>
    <path
       id="Trazado_44"
       data-name="Trazado 44"
       d="M204.374,197.7l11.193,5.105s29.691-18.615,71.415-19.244c52.1-.786,82.339,30.044,82.339,30.044l50.073-17.672S305.258,117.776,204.374,197.7Z"
       transform="translate(-6376.774 10474.287)"
       fill="#fff"
       style="fill:currentColor" />
  </g>
</svg>
