<?xml version="1.0" encoding="UTF-8" standalone="no"?>
<!-- Creator: CorelDRAW -->

<svg
   xml:space="preserve"
   width="35.2458mm"
   height="23.939577mm"
   style="clip-rule:evenodd;fill-rule:evenodd;image-rendering:optimizeQuality;shape-rendering:geometricPrecision;text-rendering:geometricPrecision"
   viewBox="0 0 35.245799 23.939576"
   version="1.1"
   id="svg58"
   sodipodi:docname="LOGO ZONA SVG.svg"
   inkscape:version="1.4.3 (0d15f75, 2025-12-25)"
   xmlns:inkscape="http://www.inkscape.org/namespaces/inkscape"
   xmlns:sodipodi="http://sodipodi.sourceforge.net/DTD/sodipodi-0.dtd"
   xmlns="http://www.w3.org/2000/svg"
   xmlns:svg="http://www.w3.org/2000/svg"><sodipodi:namedview
   id="namedview58"
   pagecolor="#505050"
   bordercolor="#eeeeee"
   borderopacity="1"
   inkscape:showpageshadow="0"
   inkscape:pageopacity="0"
   inkscape:pagecheckerboard="0"
   inkscape:deskcolor="#d1d1d1"
   inkscape:document-units="mm"
   inkscape:zoom="2.631236"
   inkscape:cx="48.26629"
   inkscape:cy="49.976513"
   inkscape:window-width="1214"
   inkscape:window-height="706"
   inkscape:window-x="0"
   inkscape:window-y="30"
   inkscape:window-maximized="0"
   inkscape:current-layer="Capa_x0020_1" />
 <defs
   id="defs1">
  <style
   type="text/css"
   id="style1">
   <![CDATA[
    .str0 {stroke:currentColor;stroke-width:0.2032;stroke-linecap:round;stroke-linejoin:round}
    .fil0 {fill:none}
    .fil1 {fill:none;fill-rule:nonzero}
    .fil2 {fill:#B85379;fill-rule:nonzero}
    .fil3 {fill:#B95379;fill-rule:nonzero}
   ]]>
  </style>
 </defs>
 <g
   id="Capa_x0020_1"
   inkscape:label="Capa 1"
   inkscape:groupmode="layer"
   transform="translate(-21.7751,-23.255923)">
  <metadata
   id="CorelCorpID_0Corel-Layer" />
  <ellipse
   class="fil0 str0"
   transform="matrix(0.0815296,0.0507227,-0.0817884,0.152678,44.734,25.761)"
   rx="29.260799"
   ry="6.5278001"
   id="ellipse1"
   cx="0"
   cy="0" />
  <path
   class="fil0 str0"
   d="m 40.7975,23.4209 c -3.0851,0.143 0.5153,4.2055 2.4615,5.0421 1.9899,1.3532 6.6874,2.7696 5.3027,-0.2117"
   id="path1" />
  <path
   class="fil0 str0"
   d="m 37.9832,23.8831 c -2.6356,0.8159 2.6853,5.4884 4.386,6.2683 1.9899,1.3531 7.7523,3.7391 7.2872,1.0516"
   id="path2" />
  <path
   class="fil0 str0"
   d="m 35.5945,25.1433 c -1.3695,1.4598 4.1934,5.8799 5.8594,6.7245 1.9899,1.3531 7.9924,4.205 8.3568,2.0624"
   id="path3" />
  <path
   class="fil0 str0"
   d="m 34.1107,26.4971 c -1.3694,1.4598 4.762,6.2144 6.4279,7.059 1.99,1.3531 8.3329,4.4168 8.9135,2.4855"
   id="path4" />
  <path
   class="fil0 str0"
   d="m 32.9878,28.0633 c -1.3817,1.452 4.9318,6.32 6.6422,7.1922 2.047,1.3886 8.5575,4.5566 9.1286,2.6193"
   id="path5" />
  <path
   class="fil0 str0"
   d="m 44.6619,25.1936 c -2.864,2.1894 -5.0244,6.7541 -6.5159,9.5384"
   id="path6" />
  <path
   class="fil0 str0"
   d="m 44.7128,25.1936 c -0.3272,3.7677 -2.9149,8.0666 -4.4064,10.8509"
   id="path7" />
  <path
   class="fil0 str0"
   d="m 44.5207,25.1687 c -3.2429,-0.3101 -6.7325,5.6723 -7.9053,8.6261"
   id="path8" />
  <path
   class="fil0 str0"
   d="m 44.7746,25.3192 c 1.8709,2.8714 -1.1914,9.1196 -2.9784,11.6913"
   id="path9" />
  <path
   class="fil0 str0"
   d="m 44.5955,25.1727 c -3.4494,-1.2539 -7.5865,2.8964 -9.0982,7.3468"
   id="path10" />
  <path
   class="fil0 str0"
   d="m 44.7307,25.2577 c 2.7326,2.5921 1.4662,8.5285 -1.354,12.1647"
   id="path11" />
  <path
   class="fil0 str0"
   d="m 44.5346,25.1307 c -3.9197,-1.9878 -8.8803,1.324 -10.4586,6.1646"
   id="path12" />
  <path
   class="fil0 str0"
   d="m 44.7915,25.2998 c 3.5574,2.664 3.3768,8.9496 0.2763,12.8432"
   id="path13" />
  <path
   class="fil0 str0"
   d="m 32.7081,29.8549 c 1.825,-5.3009 7.8582,-7.1589 11.9192,-4.6707 -1.9317,-1.7774 -5.3309,-1.7627 -7.1236,-1.0746"
   id="path14" />
  <path
   class="fil0 str0"
   d="m 46.9059,38.6775 c 3.3471,-4.3541 1.8231,-10.9137 -2.2071,-13.4594 2.4017,0.9666 4.5869,4.1486 4.9304,6.1657"
   id="path15" />
  <line
   class="fil0 str0"
   x1="44.6619"
   y1="25.2218"
   x2="48.451199"
   y2="28.001301"
   id="line15" />
  <path
   class="fil0 str0"
   d="m 44.6619,25.1936 c 0.2839,-0.1975 0.5587,-0.2951 0.8558,-0.235"
   id="path16" />
  <path
   class="fil0 str0"
   d="m 44.6874,25.2218 c 0.0167,-0.3637 -0.0356,-0.6648 -0.2325,-0.912"
   id="path17" />
  <path
   class="fil0 str0"
   d="m 47.1537,26.2389 c -0.6218,-0.6171 -1.7303,-0.9903 -2.4663,-1.0453 1.0584,0.4667 2.6309,1.2531 3.3112,2.0601"
   id="path18" />
  <path
   class="fil0 str0"
   d="m 42.8932,23.6745 c 0.8068,0.2718 1.3819,0.8598 1.7942,1.5191 -0.9043,-0.7544 -1.8174,-1.4759 -2.806,-1.7073"
   id="path19" />
  <path
   class="fil0 str0"
   d="m 32.3314,29.4988 c 6.0645,-13.3979 23.2864,-2.4437 15.6024,9.7069"
   id="path20" />
  <path
   class="fil1"
   d="m 32.1735,33.5395 c 0.5386,0.0536 0.9517,0.226 1.2437,0.5128 0.2898,0.289 0.4412,0.6735 0.4541,1.1537 0.3634,-0.1515 0.6186,-0.2261 0.7658,-0.2261 0.1296,0 0.1946,0.0466 0.1946,0.1399 0,0.0955 -0.0823,0.2051 -0.2445,0.3262 -0.1621,0.1213 -0.3936,0.2215 -0.6921,0.3031 -0.1145,0.6596 -0.3438,1.275 -0.6856,1.8483 -0.3395,0.571 -0.7461,1.0839 -1.2133,1.5337 -0.4693,0.4522 -0.9386,0.8298 -1.4081,1.1399 -0.4715,0.3075 -0.9365,0.5687 -1.3992,0.7784 -0.4695,0.2052 -0.8068,0.3076 -1.0145,0.3076 -0.2163,0 -0.4411,-0.0932 -0.6747,-0.2843 -0.2315,-0.1911 -0.3613,-0.3985 -0.3893,-0.6223 0.0259,-0.5431 0.5405,-1.261 1.5463,-2.1561 0.1168,-0.1118 0.2813,-0.254 0.4932,-0.4288 0.2142,-0.1747 0.4996,-0.3893 0.8587,-0.6433 0.3589,-0.2541 0.7807,-0.5245 1.2631,-0.8111 0.4822,-0.2844 0.9688,-0.5431 1.4576,-0.7715 -0.0734,-0.4848 -0.3331,-0.7273 -0.7786,-0.7273 -0.4001,0 -0.7613,0.0699 -1.0814,0.2144 -0.3201,0.1422 -0.7829,0.3847 -1.3884,0.7204 -0.6035,0.3379 -1.0751,0.55 -1.4103,0.6408 -0.0693,0 -0.1211,-0.0721 -0.1557,-0.2213 0.0368,-0.1586 0.0541,-0.2378 0.0541,-0.2378 0.1859,-0.5803 0.3006,-0.9346 0.3461,-1.0582 0.0453,-0.1235 0.1211,-0.2401 0.2248,-0.3473 0.1016,-0.1095 0.2834,-0.24 0.5451,-0.3986 0.3785,-0.2284 0.8175,-0.4661 1.3129,-0.7155 0.4952,-0.2495 0.9104,-0.4592 1.2458,-0.6271 0.3352,-0.1701 0.6791,-0.3612 1.0272,-0.571 0.3505,-0.2097 0.677,-0.4405 0.982,-0.6876 0.2488,-0.1842 0.3741,-0.3753 0.3741,-0.5733 0,-0.2541 -0.2293,-0.3799 -0.6877,-0.3799 -0.4261,0 -1.0468,0.163 -1.8665,0.4917 -0.2813,0.1305 -0.597,0.2867 -0.9453,0.4709 -0.3503,0.184 -0.6747,0.3636 -0.9754,0.5383 -0.3027,0.175 -0.7245,0.4219 -1.2674,0.7437 -0.545,0.3239 -0.9084,0.5407 -1.0943,0.6526 0,-0.5782 0.0432,-1.0676 0.1296,-1.4685 0.0866,-0.4031 0.225,-0.7528 0.4197,-1.0511 0.1925,-0.296 0.4413,-0.5618 0.7461,-0.7972 0.3072,-0.233 0.6986,-0.4755 1.181,-0.7226 0.3525,-0.1771 0.7613,-0.338 1.2263,-0.4871 0.465,-0.1492 0.9301,-0.2658 1.3994,-0.352 0.4671,-0.0862 0.8781,-0.1282 1.2306,-0.1282 0.333,0 0.6468,0.0583 0.9431,0.1748 0.2962,0.1166 0.5363,0.2984 0.7223,0.5454 0.186,0.2494 0.279,0.5571 0.279,0.9301 0,0.5593 -0.1686,1.0465 -0.5061,1.4661 -0.3352,0.4172 -0.7072,0.7458 -1.116,0.9882 -0.4066,0.24 -0.9647,0.5314 -1.6719,0.8741 z m 0.3893,2.9811 c -0.77,0.3986 -1.462,0.8461 -2.0763,1.3355 -0.6163,0.4919 -1.0922,0.9417 -1.4296,1.3497 -0.3375,0.4101 -0.5061,0.6991 -0.5061,0.8646 0,0.0374 0.0432,0.0537 0.132,0.0537 0.2227,0 0.5968,-0.1726 1.1224,-0.5198 0.5234,-0.3473 1.049,-0.7994 1.5724,-1.3566 0.5234,-0.5569 0.9192,-1.1327 1.1852,-1.7271 z"
   id="path21" />
  <path
   class="fil1"
   d="m 37.5287,34.4345 c -0.6186,0.3543 -1.0922,0.6922 -1.4231,1.0115 -0.3309,0.3195 -0.504,0.7344 -0.5213,1.2402 0,0.3543 0.1774,0.5454 0.532,0.5733 0.3765,-0.0373 0.7311,-0.2285 1.0642,-0.5733 -0.1125,-0.2075 -0.1816,-0.4196 -0.2077,-0.6317 0.0218,-0.4266 0.2077,-0.9674 0.5559,-1.62 z m 1.0944,-0.6432 c 0.318,0.0419 0.478,0.3006 0.478,0.7831 0,0.4965 -0.1687,1.0535 -0.5061,1.6641 0.0692,0 0.1211,0.0094 0.1536,0.0281 0.1643,-0.014 0.3352,-0.0816 0.5083,-0.2051 0.173,-0.1213 0.3893,-0.3147 0.6488,-0.5805 l 0.1557,0.6037 c -0.305,0.4406 -0.6186,0.7366 -0.9408,0.8903 -0.3245,0.154 -0.7095,0.2379 -1.1593,0.2543 -0.6358,0.6712 -1.2674,1.0069 -1.8946,1.0069 -0.4672,0 -0.8263,-0.2029 -1.0772,-0.6109 -0.2508,-0.4078 -0.3763,-0.881 -0.3763,-1.417 0,-0.5874 0.1795,-1.1351 0.5386,-1.6433 0.359,-0.5104 0.8154,-0.9113 1.3712,-1.2096 0.5559,-0.296 1.1031,-0.4452 1.6438,-0.4452 0.4845,0 0.7288,0.1444 0.7288,0.4334 0,0.175 -0.0907,0.3241 -0.2725,0.4477 z"
   id="path22" />
  <path
   class="fil1"
   d="M 43.5003,35.0661 43.472,35.0336 c -0.2291,0.1701 -0.4627,0.3752 -0.7007,0.6176 -0.2357,0.2424 -0.452,0.4848 -0.651,0.7249 -0.1968,0.2423 -0.4109,0.5127 -0.6402,0.8158 -0.2314,0.303 -0.3655,0.4802 -0.4066,0.5291 -0.2098,0.2377 -0.4391,0.373 -0.6877,0.4078 -0.184,-0.0185 -0.3375,-0.1397 -0.4586,-0.3589 -0.1232,-0.2214 -0.1904,-0.5221 -0.2033,-0.9021 0,-0.3868 0.0929,-0.8158 0.279,-1.2842 0.1861,-0.4684 0.3979,-0.8601 0.6402,-1.177 0.2595,-0.3264 0.4218,-0.5245 0.4845,-0.5968 0.0627,-0.0699 0.1449,-0.1305 0.2443,-0.1748 0.0995,-0.0466 0.2381,-0.0675 0.4154,-0.0675 h 0.2963 c 0.253,0 0.3784,0.0979 0.3784,0.2913 0,0.1584 -0.0822,0.3449 -0.2465,0.5593 -0.1644,0.2146 -0.4023,0.4989 -0.7138,0.8508 -0.3135,0.352 -0.5082,0.5943 -0.5861,0.7319 -0.0303,0.063 -0.0562,0.1236 -0.0757,0.1819 0,0.0629 0.0432,0.1095 0.1298,0.1397 0.1102,-0.0302 0.1774,-0.0768 0.2054,-0.1397 0.305,-0.3801 0.5688,-0.6876 0.796,-0.923 0.2271,-0.2332 0.5602,-0.5315 0.997,-0.8951 0.1471,-0.1586 0.4802,-0.4242 0.995,-0.7994 0.5147,-0.3753 0.8715,-0.5735 1.0683,-0.5991 0.0607,0 0.1386,0.1212 0.2336,0.366 0.0952,0.2446 0.1429,0.4684 0.1429,0.669 0,0.1304 -0.0088,0.2072 -0.0261,0.2236 -0.0973,0.1563 -0.2941,0.408 -0.5925,0.7575 -0.2963,0.3497 -0.5235,0.6387 -0.6813,0.8695 -0.1558,0.2307 -0.2379,0.4545 -0.2466,0.6689 0.0065,0.0139 0.0216,0.0559 0.0433,0.1213 0.0216,0.0629 0.0433,0.1072 0.0606,0.1282 0.0173,0.0233 0.0496,0.0465 0.0929,0.0698 0.1774,-0.0117 0.4196,-0.1399 0.7268,-0.3822 0.3071,-0.2448 0.7093,-0.5897 1.2068,-1.0302 l 0.1038,0.6013 c -0.4563,0.4918 -0.85,0.8997 -1.1831,1.2261 -0.3331,0.3285 -0.6618,0.6012 -0.9883,0.8227 -0.3266,0.2215 -0.6122,0.331 -0.8543,0.331 -0.1256,0 -0.2272,-0.0256 -0.305,-0.0793 -0.0801,-0.0512 -0.1427,-0.1212 -0.1904,-0.2097 -0.0454,-0.0863 -0.0886,-0.2098 -0.1275,-0.3684 -0.039,-0.1584 -0.0606,-0.2423 -0.065,-0.254 0.0087,-0.2354 0.0693,-0.4894 0.1796,-0.7645 0.1102,-0.2727 0.2357,-0.5313 0.3784,-0.7738 0.1406,-0.2402 0.3288,-0.5385 0.5603,-0.8928 z"
   id="path23" />
  <path
   class="fil1"
   d="m 49.9261,34.339 v -0.0327 c -0.7442,0.2821 -1.3303,0.5152 -1.7607,0.7063 -0.4282,0.1888 -0.8218,0.4475 -1.1809,0.769 -0.359,0.3241 -0.5385,0.6948 -0.5385,1.1143 0,0.1538 0.0779,0.247 0.2336,0.2797 0.452,-0.0187 1.5335,-0.965 3.2465,-2.8366 z m 0.7786,-0.3939 c 0.2313,0.1258 0.3481,0.2983 0.3481,0.515 0,0.2284 -0.1081,0.4755 -0.3222,0.7459 -0.5083,0.634 -0.7679,1.1095 -0.7808,1.4218 0.0129,0.1888 0.1211,0.296 0.3243,0.3263 0.2293,0 0.4954,-0.0932 0.7981,-0.2797 0.3029,-0.1841 0.677,-0.4755 1.1247,-0.8693 l 0.1017,0.5733 c -0.2531,0.2797 -0.5753,0.5874 -0.9624,0.9253 -0.3893,0.338 -0.7765,0.6271 -1.1615,0.8671 -0.3827,0.2401 -0.6963,0.3591 -0.9365,0.3591 -0.3158,-0.0747 -0.4845,-0.3078 -0.5083,-0.6971 0.0282,-0.4288 0.1968,-0.9719 0.5083,-1.6245 l -0.0259,-0.0256 c -0.0304,0.0233 -0.2834,0.2446 -0.7635,0.6619 -0.478,0.4149 -0.8457,0.7226 -1.0988,0.9183 -0.253,0.1958 -0.4671,0.3264 -0.6423,0.3917 -0.1384,0 -0.305,-0.0839 -0.4974,-0.2518 -0.1925,-0.1678 -0.357,-0.3847 -0.4932,-0.6456 -0.1363,-0.2612 -0.2033,-0.5175 -0.2033,-0.7693 0,-0.1655 0.0086,-0.2773 0.0259,-0.3333 0.0952,-0.3915 0.3158,-0.7761 0.6662,-1.1537 0.3482,-0.3753 0.7636,-0.711 1.2415,-1.007 0.478,-0.2959 0.9604,-0.5383 1.4447,-0.7224 0.4845,-0.1865 0.9106,-0.296 1.2804,-0.3334 h 0.1298 c 0.2011,0 0.3894,0.063 0.5645,0.1912 0.1774,0.1281 0.2661,0.2936 0.2661,0.4942 0,0.1118 -0.1428,0.219 -0.4282,0.3216 z"
   id="path24" />
  <path
   class="fil1"
   d="m 22.4385,45.4614 c -0.0144,0 -0.0404,0.002 -0.0769,0.0062 -0.0365,0.0041 -0.0653,0.0062 -0.0845,0.0062 -0.1019,0 -0.1883,-0.03 -0.2604,-0.0911 -0.0721,-0.0601 -0.1086,-0.1439 -0.1086,-0.2506 0,-0.087 0.0154,-0.1719 0.0471,-0.2547 0.0317,-0.0829 0.0721,-0.1605 0.1211,-0.234 0.049,-0.0736 0.1191,-0.1646 0.2104,-0.2734 0.0913,-0.1097 0.1422,-0.1698 0.1518,-0.1822 0.0768,-0.0952 0.172,-0.2205 0.2863,-0.3758 0.1144,-0.1543 0.1826,-0.2423 0.2037,-0.2631 0.0134,-0.0434 0.0442,-0.0994 0.0941,-0.1677 0.0491,-0.0694 0.1211,-0.1656 0.2172,-0.2899 0.0961,-0.1242 0.1537,-0.204 0.1729,-0.2381 0.075,-0.1191 0.1557,-0.2454 0.2402,-0.3779 0.0846,-0.1336 0.1604,-0.2661 0.2267,-0.3997 0.0663,-0.1326 0.099,-0.2402 0.099,-0.322 -0.0144,-0.0704 -0.0682,-0.1222 -0.1614,-0.1543 -0.0932,-0.0321 -0.2171,-0.0601 -0.3708,-0.0828 -0.1547,-0.0228 -0.2479,-0.0415 -0.2816,-0.0559 -0.0749,0.0103 -0.2065,0.0165 -0.3968,0.0186 -0.1892,0.0021 -0.3026,0.0041 -0.3401,0.0073 -0.0423,0 -0.0692,-0.0373 -0.0807,-0.1119 0.0058,-0.0621 0.0202,-0.1232 0.0442,-0.1832 0.0231,-0.0611 0.0452,-0.0974 0.0644,-0.1098 0.0211,-0.2195 0.1575,-0.3293 0.4093,-0.3293 0.1268,0 0.2056,0.0177 0.2363,0.0508 0.0317,-0.0083 0.0875,-0.0125 0.1682,-0.0125 0.0739,0 0.1489,0.0073 0.2257,0.0208 0.0759,0.0134 0.1682,0.0321 0.2748,0.0569 0.1067,0.0238 0.1807,0.0394 0.22,0.0466 0.0221,0.0042 0.0702,0.0269 0.1442,0.0694 0.0749,0.0414 0.1354,0.0704 0.1834,0.0859 0.1922,0.1626 0.2883,0.3489 0.2883,0.5591 0,0.116 -0.025,0.2434 -0.074,0.3811 -0.049,0.1376 -0.1143,0.264 -0.195,0.381 -0.0817,0.117 -0.1662,0.2071 -0.2556,0.2692 -0.0298,0.0642 -0.0653,0.1263 -0.1047,0.1895 -0.0394,0.0621 -0.0788,0.118 -0.1192,0.1698 -0.0403,0.0507 -0.0874,0.1087 -0.1421,0.1749 -0.0548,0.0653 -0.1086,0.1336 -0.1634,0.2051 -0.0038,0.0217 -0.0173,0.0476 -0.0403,0.0766 -0.0221,0.0279 -0.05,0.058 -0.0817,0.0901 -0.0307,0.031 -0.0692,0.0693 -0.1143,0.1139 -0.0231,0.0683 -0.0557,0.1335 -0.0961,0.1946 -0.0413,0.0611 -0.0845,0.117 -0.1307,0.1667 -0.0461,0.0497 -0.0874,0.0942 -0.1249,0.1346 0,0.0321 -0.0115,0.0653 -0.0345,0.0994 -0.0231,0.0331 -0.0606,0.0828 -0.1144,0.1491 -0.0528,0.0652 -0.0941,0.1253 -0.1239,0.1792 -0.0308,0.0527 -0.0471,0.1097 -0.0509,0.1697 h 0.0403 c 0.0317,0 0.0692,0.0021 0.1144,0.0063 0.0451,0.0031 0.0682,0.0052 0.0701,0.0052 0.0345,-0.0167 0.0634,-0.0249 0.0874,-0.0249 0.0192,0 0.0653,0.0124 0.1384,0.0373 0.0326,-0.0259 0.1105,-0.0529 0.2325,-0.0788 0.123,-0.0258 0.2488,-0.0548 0.3775,-0.0838 0.1298,-0.03 0.2335,-0.0683 0.3113,-0.116 0.0317,-0.0103 0.0942,-0.0414 0.1855,-0.0921 0.0913,-0.0508 0.1604,-0.0766 0.2075,-0.0766 0.0451,0 0.0682,0.0641 0.0682,0.1926 0,0.0538 -0.0135,0.0994 -0.0403,0.1366 -0.027,0.0373 -0.0615,0.0673 -0.1038,0.0901 -0.0413,0.0228 -0.0941,0.0445 -0.1576,0.0653 -0.0634,0.0206 -0.1047,0.0351 -0.1239,0.0434 -0.0452,0.0518 -0.1211,0.0984 -0.2287,0.1388 -0.1076,0.0393 -0.1816,0.0755 -0.2219,0.1097 -0.1057,0.057 -0.22,0.1046 -0.342,0.1419 -0.1221,0.0372 -0.246,0.0694 -0.3709,0.0963 -0.1249,0.0269 -0.2738,0.059 -0.4458,0.0963 z"
   id="path25" />
  <path
   class="fil1"
   d="m 25.0383,45.1839 c -0.1076,-0.0425 -0.1739,-0.1315 -0.2018,-0.2672 0,-0.0258 -0.0038,-0.0445 -0.0105,-0.0569 0.0105,-0.0487 0.0202,-0.1232 0.0269,-0.2216 0.0067,-0.0994 0.0173,-0.176 0.0307,-0.2319 -0.0298,0 -0.0605,0.0134 -0.0922,0.0393 -0.0327,0.0249 -0.0721,0.0632 -0.1182,0.1129 -0.047,0.0507 -0.0807,0.0859 -0.1028,0.1077 -0.0221,0.0207 -0.0423,0.031 -0.0615,0.031 V 44.661 c 0,-0.0456 0.0077,-0.1015 0.0221,-0.1677 -0.0038,-0.0114 -0.0086,-0.0218 -0.0125,-0.0311 -0.0048,-0.0083 -0.0077,-0.0155 -0.0096,-0.0197 v -0.1046 c 0.0394,-0.0641 0.1393,-0.1781 0.2998,-0.3406 0.1604,-0.1636 0.27,-0.2692 0.3276,-0.3179 0.0327,-0.0621 0.0778,-0.1242 0.1335,-0.1843 0.0567,-0.06 0.1278,-0.1273 0.2134,-0.2019 0.0864,-0.0735 0.1508,-0.1315 0.195,-0.1729 0.0154,-0.0083 0.0422,-0.0124 0.0807,-0.0124 0.1191,0 0.1787,0.0248 0.1787,0.0745 0,0.0042 -0.0106,0.029 -0.0317,0.0756 -0.0212,0.0466 -0.0337,0.0777 -0.0375,0.0932 0.0337,0 0.0865,-0.0155 0.1595,-0.0476 0.073,-0.0311 0.1336,-0.0466 0.1807,-0.0466 0.1556,0.0134 0.2728,0.0777 0.3516,0.1925 0,0.0084 0.0106,0.0415 0.0317,0.1005 0.0211,0.058 0.0317,0.118 0.0317,0.1791 0,0.1667 -0.024,0.32 -0.074,0.4587 -0.0202,0.0549 -0.0586,0.1243 -0.1163,0.2071 -0.0576,0.0828 -0.0884,0.1398 -0.0922,0.1729 -0.0058,0.0083 -0.0326,0.0363 -0.0826,0.0839 -0.049,0.0476 -0.0807,0.0931 -0.0961,0.1346 -0.1402,0.1387 -0.2402,0.234 -0.2998,0.2878 -0.0595,0.0539 -0.1345,0.1036 -0.2257,0.1512 -0.0913,0.0466 -0.1893,0.0704 -0.2921,0.0704 -0.1787,0 -0.2805,-0.0373 -0.3065,-0.1118 z m 1.0549,-0.7528 c 0.025,-0.0269 0.051,-0.1025 0.0808,-0.2298 0.0076,-0.0331 0.0125,-0.0808 0.0125,-0.1439 0,-0.1606 -0.0596,-0.2413 -0.1788,-0.2413 -0.0615,0 -0.1066,0.0124 -0.1374,0.0373 -0.0307,0.0238 -0.0787,0.0714 -0.146,0.1439 -0.0547,0.1025 -0.1182,0.1543 -0.1893,0.1543 -0.096,0.1232 -0.1556,0.2805 -0.1787,0.4721 0,0.0932 0.0087,0.1574 0.0269,0.1926 0.0183,0.0352 0.0538,0.0559 0.1047,0.0621 0.221,-0.0745 0.4228,-0.2246 0.6053,-0.4473 z m 0.2421,0.6575 c -0.023,0 -0.0422,-0.0155 -0.0576,-0.0476 0.0269,-0.0621 0.0701,-0.1253 0.1278,-0.1905 0.0576,-0.0652 0.1162,-0.1326 0.1768,-0.2009 0.0605,-0.0694 0.1047,-0.1336 0.1335,-0.1926 0.0635,-0.0487 0.123,-0.1128 0.1787,-0.1926 0.0173,0 0.0327,0.0124 0.0442,0.0394 0.0125,0.0269 0.025,0.0632 0.0365,0.1097 0.0116,0.0456 0.0192,0.0725 0.0231,0.0798 0,0.06 -0.0192,0.1118 -0.0577,0.1553 -0.0384,0.0424 -0.0903,0.0849 -0.1566,0.1273 -0.0653,0.0414 -0.1076,0.0715 -0.1258,0.0901 -0.0269,0.0135 -0.0817,0.0538 -0.1643,0.1211 -0.0827,0.0684 -0.1355,0.1015 -0.1586,0.1015 z"
   id="path26" />
  <path
   class="fil1"
   d="m 27.6036,45.3816 c -0.0201,0.0611 -0.0989,0.0922 -0.2363,0.0922 -0.0692,0 -0.1115,-0.0083 -0.1268,-0.0238 0,0 -0.0058,-0.0228 -0.0164,-0.0684 0.0068,-0.0259 0.0106,-0.0548 0.0106,-0.0869 0,-0.0332 -0.0038,-0.058 -0.0106,-0.0756 0.0048,-0.0549 0.0183,-0.1202 0.0404,-0.1957 0.023,-0.0756 0.0374,-0.1346 0.0451,-0.176 0,-0.0156 0.0269,-0.1046 0.0817,-0.2661 0.0135,-0.0528 0.0211,-0.1046 0.025,-0.1543 0.0029,-0.0497 0.0057,-0.0756 0.0086,-0.0766 0.0308,-0.0549 0.0462,-0.1087 0.0462,-0.1626 0,-0.0321 -0.0154,-0.0487 -0.0462,-0.0487 -0.0624,0 -0.1085,0.0249 -0.1374,0.0746 -0.0566,0.0818 -0.1114,0.1543 -0.1652,0.2154 -0.0529,0.0621 -0.1057,0.1221 -0.1576,0.1822 -0.0615,0.0663 -0.0961,0.1004 -0.1038,0.1004 -0.0076,-0.0093 -0.0115,-0.0217 -0.0115,-0.0383 0,-0.0352 0.0019,-0.0911 0.0058,-0.1687 0.0038,-0.0767 0.0057,-0.1326 0.0057,-0.1668 0,-0.06 0.0231,-0.1108 0.0692,-0.1501 0.0413,-0.0973 0.1287,-0.2184 0.2594,-0.3655 0.1307,-0.146 0.2095,-0.2371 0.2354,-0.2723 0.0923,-0.1159 0.1749,-0.2061 0.2469,-0.2702 0.0731,-0.0653 0.1557,-0.0974 0.2489,-0.0974 0.1345,0 0.2027,0.1098 0.2027,0.3293 0,0.0849 -0.0153,0.1812 -0.0471,0.2899 -0.0307,0.1077 -0.0461,0.1605 -0.0461,0.1574 -0.0086,0.0383 -0.0384,0.1398 -0.0893,0.3044 -0.0509,0.1657 -0.0769,0.2713 -0.0769,0.3179 0.0154,0 0.0307,-0.0093 0.0461,-0.028 0.0163,-0.0176 0.0356,-0.0435 0.0577,-0.0766 0.0221,-0.0342 0.0461,-0.0694 0.074,-0.1077 0.0566,-0.0745 0.1508,-0.1688 0.2824,-0.2858 0.0884,-0.117 0.172,-0.2091 0.2508,-0.2775 0.0787,-0.0672 0.1681,-0.1014 0.269,-0.1014 0.0538,0 0.1134,0.0124 0.1787,0.0383 0.0154,0.03 0.0413,0.0735 0.0769,0.1315 0.0355,0.058 0.0614,0.1066 0.0778,0.147 0.0144,0.028 0.0432,0.0974 0.0836,0.2112 0.0403,0.1129 0.0788,0.1792 0.1133,0.1988 0.024,0.0125 0.0404,0.0207 0.0471,0.0239 0.0068,0.003 0.0164,0.0072 0.0279,0.0134 0.0374,-0.0134 0.0826,-0.0518 0.1364,-0.1139 0.0529,-0.0611 0.0942,-0.0963 0.122,-0.1046 0,0.2206 0.0077,0.3448 0.024,0.3738 -0.1892,0.2599 -0.3622,0.3945 -0.5197,0.4028 -0.0798,-0.0145 -0.1355,-0.0394 -0.1672,-0.0735 -0.0308,-0.0249 -0.0663,-0.0725 -0.1057,-0.1419 -0.0403,-0.0704 -0.0778,-0.1367 -0.1134,-0.1988 -0.0355,-0.0621 -0.072,-0.1066 -0.1085,-0.1315 -0.0308,-0.0869 -0.0711,-0.1304 -0.1211,-0.1304 -0.0384,0 -0.1105,0.0517 -0.2152,0.1543 -0.1038,0.1024 -0.1941,0.1832 -0.269,0.2433 -0.0269,0.0662 -0.0673,0.1325 -0.1201,0.1977 -0.0519,0.0663 -0.123,0.146 -0.2123,0.2402 -0.0904,0.0942 -0.149,0.1595 -0.1759,0.1957 z"
   id="path27" />
  <path
   class="fil1"
   d="m 29.6501,44.661 c 0,-0.0176 -0.0019,-0.0477 -0.0057,-0.088 -0.0039,-0.0404 -0.0058,-0.0704 -0.0058,-0.0922 0,-0.176 0.1345,-0.3665 0.4036,-0.5715 0.0538,-0.1098 0.171,-0.2381 0.3526,-0.3852 0.0941,-0.0952 0.2555,-0.2423 0.4832,-0.4421 0.1509,-0.1118 0.2661,-0.1915 0.3459,-0.2381 0.0807,-0.0477 0.1633,-0.0704 0.2488,-0.0704 0.0567,0.0113 0.1028,0.0548 0.1374,0.1304 0,0.0414 -0.0173,0.0963 -0.0528,0.1646 -0.0365,0.0694 -0.097,0.1191 -0.1835,0.1523 -0.0414,0.0755 -0.1278,0.1728 -0.2585,0.2909 -0.0355,0.0166 -0.0759,0.0559 -0.121,0.1201 -0.0462,0.0632 -0.0894,0.1046 -0.1288,0.1222 -0.0269,0.059 -0.0538,0.1025 -0.0797,0.1304 -0.0173,0.0187 -0.0413,0.0383 -0.073,0.0601 -0.0327,0.0217 -0.0481,0.0352 -0.0481,0.0393 -0.0307,0.0601 -0.0951,0.1419 -0.1912,0.2465 -0.0961,0.1035 -0.146,0.1584 -0.1498,0.1636 -0.0087,0.0227 -0.0192,0.0465 -0.0298,0.0714 -0.0106,0.0248 -0.0193,0.0435 -0.025,0.057 -0.0058,0.0134 -0.0106,0.0248 -0.0135,0.0331 0,0 0.0029,0.0041 0.0106,0.0114 0.0749,-0.0176 0.1384,-0.0497 0.1893,-0.0953 0.0518,-0.0456 0.1268,-0.1201 0.2258,-0.2236 0.0989,-0.1036 0.1758,-0.1709 0.2315,-0.202 0.05,-0.0962 0.122,-0.177 0.2133,-0.2433 0.0922,-0.0652 0.1864,-0.0983 0.2815,-0.0983 0.0298,0 0.0538,0.0155 0.0701,0.0476 0.0164,0.0321 0.0289,0.0694 0.0375,0.1108 0.0096,0.0424 0.0183,0.0818 0.0259,0.1211 -0.0153,0.0766 -0.0268,0.1409 -0.0345,0.1926 0,0.0777 0.0201,0.1419 0.0595,0.1926 0.0404,0.0497 0.0913,0.0798 0.1538,0.088 0.0941,-0.0197 0.1883,-0.0797 0.2815,-0.1812 0.0105,0 0.0173,0.0083 0.0211,0.0249 0.0038,0.0176 0.0067,0.0414 0.0077,0.0745 10e-4,0.0331 0.0029,0.0642 0.0067,0.0932 0,0.0259 -0.0077,0.0549 -0.0221,0.087 0,0.0725 -0.0288,0.1418 -0.0845,0.207 -0.0567,0.0663 -0.122,0.1191 -0.197,0.1595 -0.0759,0.0404 -0.1393,0.0632 -0.1922,0.0684 -0.0057,-0.0032 -0.0163,-0.0062 -0.0307,-0.0104 -0.0135,-0.0042 -0.0269,-0.0093 -0.0375,-0.0155 -0.0278,0 -0.0566,0.0051 -0.0874,0.0134 -0.0807,-0.0072 -0.1508,-0.0445 -0.2094,-0.1097 -0.0586,-0.0652 -0.0903,-0.1377 -0.0961,-0.2185 -0.0067,-0.0414 -0.0125,-0.086 -0.0183,-0.1325 -0.0058,-0.0466 -0.0105,-0.0808 -0.0154,-0.1026 -0.0047,-0.0217 -0.0124,-0.0372 -0.024,-0.0455 -0.0134,0 -0.047,0.0249 -0.1027,0.0766 -0.0558,0.0508 -0.0961,0.0963 -0.1221,0.1357 -0.0096,0.0124 -0.0211,0.0217 -0.0346,0.0258 -0.0125,0.0052 -0.0259,0.0104 -0.0403,0.0166 -0.1134,0.1543 -0.2075,0.2475 -0.2835,0.2806 -0.0288,0.0621 -0.0912,0.1305 -0.1873,0.204 -0.0961,0.0746 -0.1777,0.1108 -0.244,0.1108 -0.0529,0.0259 -0.0856,0.0383 -0.0971,0.0383 -0.1556,0 -0.2469,-0.1015 -0.2719,-0.3044 0.0077,-0.0166 0.0115,-0.0373 0.0115,-0.0632 0,-0.03 0.0096,-0.0631 0.0289,-0.0983 0.0192,-0.0353 0.0288,-0.058 0.0288,-0.0684 0,-0.028 -0.0192,-0.0487 -0.0577,-0.0621 z"
   id="path28" />
  <path
   class="fil1"
   d="m 33.5625,45.2574 c -0.0384,-0.3262 -0.0615,-0.5208 -0.0692,-0.584 0.0164,-0.1677 0.0241,-0.3002 0.0241,-0.3976 0,-0.0176 0.0057,-0.0404 0.0172,-0.0693 0.0106,-0.0301 0.0164,-0.0518 0.0164,-0.0674 v -0.0683 -0.1367 c 0.0077,-0.0331 0.0115,-0.0849 0.0115,-0.1553 0,-0.0911 0.0154,-0.235 0.0461,-0.4297 0.0318,-0.1946 0.0471,-0.3437 0.0471,-0.4462 0,-0.0891 -0.0096,-0.1595 -0.0278,-0.2123 -0.0183,-0.0538 -0.0404,-0.0797 -0.0654,-0.0797 0,-0.0052 -0.0019,-0.0207 -0.0058,-0.0476 -0.0038,-0.0259 -0.0057,-0.0497 -0.0057,-0.0715 0.0019,-0.0165 0.0106,-0.059 0.025,-0.1273 0.0144,-0.0674 0.0221,-0.1181 0.0221,-0.1512 0,-0.0176 -0.0077,-0.0424 -0.0231,-0.0745 0.0087,-0.0332 0.0327,-0.1222 0.073,-0.2651 0.0394,-0.1439 0.074,-0.2723 0.1048,-0.3872 0.0461,-0.1585 0.0989,-0.2786 0.1585,-0.3583 0.0605,-0.0808 0.1422,-0.1211 0.245,-0.1211 0.0941,-0.0611 0.1672,-0.0922 0.22,-0.0922 0.0644,0 0.0971,0.0559 0.0971,0.1667 0,0.089 -0.0202,0.2143 -0.0606,0.3748 -0.0403,0.1605 -0.0605,0.2433 -0.0605,0.2475 0,0.09 -0.0077,0.1781 -0.0231,0.265 -0.0144,0.087 -0.0384,0.1988 -0.0711,0.3355 -0.0326,0.1377 -0.0547,0.235 -0.0663,0.2941 0.0039,0.0031 0.0058,0.0062 0.0077,0.0083 0.002,0.002 0.0029,0.0041 0.0029,0.0041 -0.1114,0.4721 -0.1672,0.9174 -0.1672,1.3356 0,0.0756 -0.0124,0.1968 -0.0384,0.3614 -0.025,0.1657 -0.0394,0.2744 -0.0413,0.3272 0,0.174 0.0259,0.3562 0.0797,0.5478 -0.0038,0.0486 -0.0307,0.0869 -0.0807,0.1148 -0.0499,0.0291 -0.0903,0.0663 -0.1201,0.114 -0.0442,0.0175 -0.0864,0.0259 -0.1268,0.0259 -0.0846,0 -0.1326,-0.0601 -0.1451,-0.1802 z"
   id="path29" />
  <path
   class="fil1"
   d="m 35.2044,45.3816 c -0.0201,0.0611 -0.0989,0.0922 -0.2363,0.0922 -0.0692,0 -0.1115,-0.0083 -0.1268,-0.0238 0,0 -0.0058,-0.0228 -0.0164,-0.0684 0.0068,-0.0259 0.0106,-0.0548 0.0106,-0.0869 0,-0.0332 -0.0038,-0.058 -0.0106,-0.0756 0.0048,-0.0549 0.0183,-0.1202 0.0404,-0.1957 0.023,-0.0756 0.0374,-0.1346 0.0451,-0.176 0,-0.0156 0.0269,-0.1046 0.0817,-0.2661 0.0135,-0.0528 0.0211,-0.1046 0.025,-0.1543 0.0029,-0.0497 0.0057,-0.0756 0.0086,-0.0766 0.0308,-0.0549 0.0462,-0.1087 0.0462,-0.1626 0,-0.0321 -0.0154,-0.0487 -0.0462,-0.0487 -0.0624,0 -0.1085,0.0249 -0.1374,0.0746 -0.0566,0.0818 -0.1114,0.1543 -0.1652,0.2154 -0.0529,0.0621 -0.1057,0.1221 -0.1576,0.1822 -0.0615,0.0663 -0.0961,0.1004 -0.1038,0.1004 -0.0076,-0.0093 -0.0115,-0.0217 -0.0115,-0.0383 0,-0.0352 0.0019,-0.0911 0.0058,-0.1687 0.0038,-0.0767 0.0057,-0.1326 0.0057,-0.1668 0,-0.06 0.0231,-0.1108 0.0692,-0.1501 0.0413,-0.0973 0.1287,-0.2184 0.2594,-0.3655 0.1307,-0.146 0.2095,-0.2371 0.2354,-0.2723 0.0923,-0.1159 0.1749,-0.2061 0.2469,-0.2702 0.0731,-0.0653 0.1557,-0.0974 0.2489,-0.0974 0.1345,0 0.2027,0.1098 0.2027,0.3293 0,0.0849 -0.0153,0.1812 -0.0471,0.2899 -0.0307,0.1077 -0.0461,0.1605 -0.0461,0.1574 -0.0086,0.0383 -0.0384,0.1398 -0.0893,0.3044 -0.0509,0.1657 -0.0769,0.2713 -0.0769,0.3179 0.0154,0 0.0307,-0.0093 0.0461,-0.028 0.0163,-0.0176 0.0356,-0.0435 0.0577,-0.0766 0.0221,-0.0342 0.0461,-0.0694 0.074,-0.1077 0.0566,-0.0745 0.1508,-0.1688 0.2824,-0.2858 0.0884,-0.117 0.172,-0.2091 0.2508,-0.2775 0.0787,-0.0672 0.1681,-0.1014 0.269,-0.1014 0.0538,0 0.1134,0.0124 0.1787,0.0383 0.0154,0.03 0.0413,0.0735 0.0769,0.1315 0.0355,0.058 0.0614,0.1066 0.0778,0.147 0.0144,0.028 0.0432,0.0974 0.0836,0.2112 0.0403,0.1129 0.0788,0.1792 0.1133,0.1988 0.024,0.0125 0.0404,0.0207 0.0471,0.0239 0.0068,0.003 0.0164,0.0072 0.0279,0.0134 0.0374,-0.0134 0.0826,-0.0518 0.1364,-0.1139 0.0529,-0.0611 0.0942,-0.0963 0.122,-0.1046 0,0.2206 0.0077,0.3448 0.024,0.3738 -0.1892,0.2599 -0.3622,0.3945 -0.5197,0.4028 -0.0798,-0.0145 -0.1355,-0.0394 -0.1672,-0.0735 -0.0308,-0.0249 -0.0663,-0.0725 -0.1057,-0.1419 -0.0403,-0.0704 -0.0778,-0.1367 -0.1134,-0.1988 -0.0355,-0.0621 -0.072,-0.1066 -0.1085,-0.1315 -0.0308,-0.0869 -0.0711,-0.1304 -0.1211,-0.1304 -0.0384,0 -0.1105,0.0517 -0.2152,0.1543 -0.1038,0.1024 -0.1941,0.1832 -0.269,0.2433 -0.0269,0.0662 -0.0673,0.1325 -0.1201,0.1977 -0.0519,0.0663 -0.123,0.146 -0.2123,0.2402 -0.0904,0.0942 -0.149,0.1595 -0.1759,0.1957 z"
   id="path30" />
  <path
   class="fil1"
   d="m 38.0936,47.0155 c -0.0395,0.0166 -0.0798,0.0259 -0.1211,0.0259 -0.0778,0 -0.1345,-0.0249 -0.1701,-0.0735 -0.0355,-0.0487 -0.0653,-0.1202 -0.0903,-0.2154 -0.024,-0.0963 -0.0432,-0.1574 -0.0557,-0.1843 v -0.0508 c -0.0365,-0.1615 -0.0663,-0.586 -0.0875,-1.2724 0.0087,-0.1202 0.0125,-0.3065 0.0125,-0.5591 0,-0.1429 -0.0076,-0.2237 -0.024,-0.2434 -0.0115,0 -0.0547,0.0342 -0.1287,0.1005 -0.073,0.0673 -0.124,0.1097 -0.1528,0.1304 -0.0125,0.0093 -0.0365,0.0301 -0.0701,0.0622 -0.0221,-0.0125 -0.0336,-0.0249 -0.0336,-0.0384 0.0115,-0.0362 0.0221,-0.0911 0.0336,-0.1667 -0.0077,-0.0497 -0.0115,-0.1097 -0.0115,-0.1801 0.0028,-0.0042 0.0557,-0.0622 0.1575,-0.174 0.1029,-0.1128 0.1672,-0.1926 0.1941,-0.2412 0.0404,-0.0881 0.1076,-0.2257 0.2018,-0.4111 0,-0.0124 -0.0077,-0.147 -0.0231,-0.4038 0.0519,-0.7268 0.1979,-1.3522 0.4372,-1.8761 0.0634,-0.1688 0.1239,-0.3045 0.1835,-0.4069 0.0595,-0.1015 0.1403,-0.1533 0.2431,-0.1533 0.1229,0 0.1854,0.0652 0.1854,0.1936 0,0.1056 0.0086,0.2278 0.0278,0.3666 0,0.1294 -0.0086,0.265 -0.0259,0.4069 -0.0173,0.1428 -0.0451,0.35 -0.0836,0.6243 -0.0202,0.0798 -0.0442,0.1781 -0.072,0.2941 -0.0279,0.117 -0.0567,0.2216 -0.0856,0.3147 -0.0288,0.0922 -0.0643,0.1843 -0.1047,0.2744 -0.0403,0.0911 -0.0913,0.1791 -0.1527,0.2661 -0.0413,0.057 -0.0769,0.1667 -0.1086,0.3282 -0.0317,0.1616 -0.0577,0.3428 -0.0778,0.5426 -0.0202,0.2009 -0.0404,0.4401 -0.0606,0.7196 0,0.058 -0.0038,0.1056 -0.0115,0.1419 0.0154,0.2329 0.0221,0.3468 0.0221,0.3427 0,-0.0052 -0.0067,0.1014 -0.0221,0.3179 0.0163,0.1801 0.0317,0.3085 0.0461,0.3851 0,0.0073 0.0039,0.0114 0.0115,0.0114 0.0298,0 0.0731,-0.059 0.1297,-0.1781 0.0558,-0.1191 0.0971,-0.233 0.123,-0.3437 0.0337,-0.1305 0.0625,-0.2403 0.0846,-0.3283 0.023,-0.089 0.048,-0.1719 0.0778,-0.2495 0.0096,-0.0414 0.024,-0.1139 0.0413,-0.2185 0.0173,-0.1035 0.0356,-0.1656 0.0558,-0.1843 0,-0.0797 0.0461,-0.1367 0.1383,-0.1687 0.0317,0 0.0471,0.0476 0.0471,0.1429 0,0.0911 -0.0087,0.1553 -0.024,0.1925 0.0105,0 0.0211,0.0228 0.0317,0.0673 0.0096,0.0446 0.0144,0.0766 0.0144,0.0953 0,0.1056 -0.0308,0.2588 -0.0913,0.4587 -0.0605,0.2008 -0.0961,0.3271 -0.1038,0.38 -0.047,0.2381 -0.1546,0.5446 -0.3237,0.9183 -0.0673,0.116 -0.1288,0.1874 -0.1835,0.2175 z m 0.3737,-4.9388 c 0,-0.0115 0.0096,-0.0788 0.0288,-0.202 0.0192,-0.1221 0.0288,-0.2123 0.0288,-0.2692 0,-0.0507 -0.0115,-0.0766 -0.0336,-0.0766 v 0 c -0.0211,0.0176 -0.0586,0.1046 -0.1124,0.2609 -0.0548,0.1574 -0.0999,0.2734 -0.1355,0.349 -0.0048,0.0196 -0.0154,0.0652 -0.0326,0.1366 -0.0173,0.0725 -0.0337,0.1232 -0.049,0.1553 v 0.0746 c 0,0.0859 -0.0106,0.1542 -0.0337,0.206 0,0.0611 -0.0038,0.1129 -0.0115,0.1543 0,0.0942 0.0115,0.148 0.0346,0.1626 0.0183,-0.0104 0.0375,-0.0601 0.0576,-0.1502 0.0462,-0.0259 0.1009,-0.1346 0.1643,-0.3251 0.0625,-0.1894 0.0942,-0.3489 0.0942,-0.4762 z"
   id="path31" />
  <path
   class="fil1"
   d="m 39.3444,45.1839 c -0.1076,-0.0425 -0.1739,-0.1315 -0.2018,-0.2672 0,-0.0258 -0.0038,-0.0445 -0.0105,-0.0569 0.0105,-0.0487 0.0202,-0.1232 0.0269,-0.2216 0.0067,-0.0994 0.0173,-0.176 0.0307,-0.2319 -0.0298,0 -0.0605,0.0134 -0.0922,0.0393 -0.0327,0.0249 -0.0721,0.0632 -0.1182,0.1129 -0.047,0.0507 -0.0807,0.0859 -0.1028,0.1077 -0.0221,0.0207 -0.0423,0.031 -0.0615,0.031 V 44.661 c 0,-0.0456 0.0077,-0.1015 0.0221,-0.1677 -0.0038,-0.0114 -0.0086,-0.0218 -0.0125,-0.0311 -0.0048,-0.0083 -0.0077,-0.0155 -0.0096,-0.0197 v -0.1046 c 0.0394,-0.0641 0.1393,-0.1781 0.2998,-0.3406 0.1604,-0.1636 0.27,-0.2692 0.3276,-0.3179 0.0327,-0.0621 0.0778,-0.1242 0.1335,-0.1843 0.0567,-0.06 0.1278,-0.1273 0.2134,-0.2019 0.0864,-0.0735 0.1508,-0.1315 0.195,-0.1729 0.0154,-0.0083 0.0422,-0.0124 0.0807,-0.0124 0.1191,0 0.1787,0.0248 0.1787,0.0745 0,0.0042 -0.0106,0.029 -0.0317,0.0756 -0.0212,0.0466 -0.0337,0.0777 -0.0375,0.0932 0.0337,0 0.0865,-0.0155 0.1595,-0.0476 0.073,-0.0311 0.1336,-0.0466 0.1807,-0.0466 0.1556,0.0134 0.2728,0.0777 0.3516,0.1925 0,0.0084 0.0106,0.0415 0.0317,0.1005 0.0211,0.058 0.0317,0.118 0.0317,0.1791 0,0.1667 -0.024,0.32 -0.074,0.4587 -0.0202,0.0549 -0.0586,0.1243 -0.1163,0.2071 -0.0576,0.0828 -0.0884,0.1398 -0.0922,0.1729 -0.0058,0.0083 -0.0326,0.0363 -0.0826,0.0839 -0.049,0.0476 -0.0807,0.0931 -0.0961,0.1346 -0.1402,0.1387 -0.2402,0.234 -0.2998,0.2878 -0.0595,0.0539 -0.1345,0.1036 -0.2257,0.1512 -0.0913,0.0466 -0.1893,0.0704 -0.2921,0.0704 -0.1787,0 -0.2805,-0.0373 -0.3065,-0.1118 z m 1.0549,-0.7528 c 0.025,-0.0269 0.051,-0.1025 0.0808,-0.2298 0.0076,-0.0331 0.0125,-0.0808 0.0125,-0.1439 0,-0.1606 -0.0596,-0.2413 -0.1788,-0.2413 -0.0615,0 -0.1066,0.0124 -0.1374,0.0373 -0.0307,0.0238 -0.0787,0.0714 -0.146,0.1439 -0.0547,0.1025 -0.1182,0.1543 -0.1893,0.1543 -0.096,0.1232 -0.1556,0.2805 -0.1787,0.4721 0,0.0932 0.0087,0.1574 0.0269,0.1926 0.0183,0.0352 0.0538,0.0559 0.1047,0.0621 0.221,-0.0745 0.4228,-0.2246 0.6053,-0.4473 z m 0.2421,0.6575 c -0.023,0 -0.0422,-0.0155 -0.0576,-0.0476 0.0269,-0.0621 0.0701,-0.1253 0.1278,-0.1905 0.0576,-0.0652 0.1162,-0.1326 0.1768,-0.2009 0.0605,-0.0694 0.1047,-0.1336 0.1335,-0.1926 0.0635,-0.0487 0.123,-0.1128 0.1787,-0.1926 0.0173,0 0.0327,0.0124 0.0442,0.0394 0.0125,0.0269 0.025,0.0632 0.0365,0.1097 0.0116,0.0456 0.0192,0.0725 0.0231,0.0798 0,0.06 -0.0192,0.1118 -0.0577,0.1553 -0.0384,0.0424 -0.0903,0.0849 -0.1566,0.1273 -0.0653,0.0414 -0.1076,0.0715 -0.1258,0.0901 -0.0269,0.0135 -0.0817,0.0538 -0.1643,0.1211 -0.0827,0.0684 -0.1355,0.1015 -0.1586,0.1015 z"
   id="path32" />
  <path
   class="fil1"
   d="m 41.1661,44.6351 c 0,-0.0021 -0.0019,-0.0259 -0.0058,-0.0704 -0.0029,-0.0456 -0.0048,-0.087 -0.0048,-0.1222 v -0.1046 c 0.0106,-0.0176 0.0327,-0.0476 0.0663,-0.089 0.0336,-0.0404 0.0606,-0.0777 0.0807,-0.1098 0.0211,-0.0331 0.0317,-0.0641 0.0317,-0.0942 0.0039,-0.0072 0.0269,-0.0383 0.0692,-0.0921 0.0432,-0.0539 0.0692,-0.0891 0.0797,-0.1067 0.0125,-0.0103 0.0356,-0.0487 0.0702,-0.1149 0.0346,-0.0652 0.0634,-0.1077 0.0864,-0.1274 -0.0019,-0.0144 -0.0047,-0.029 -0.0086,-0.0445 -0.0038,-0.0145 -0.0077,-0.03 -0.0115,-0.0455 -0.0039,-0.0156 -0.0067,-0.0311 -0.0106,-0.0477 -0.0029,-0.0155 -0.0048,-0.029 -0.0048,-0.0414 0,-0.0083 0.0308,-0.0352 0.0932,-0.0808 0.0624,-0.0465 0.099,-0.0755 0.1076,-0.088 0.0702,-0.0745 0.1451,-0.1118 0.2258,-0.1118 0.1086,0 0.2296,0.0683 0.3632,0.2061 0.0182,0.0404 0.0374,0.061 0.0566,0.061 0.026,0.0311 0.0471,0.0777 0.0635,0.1377 0.0845,0.086 0.1268,0.26 0.1268,0.5219 0,0.086 -0.0288,0.2081 -0.0865,0.3665 -0.0577,0.1585 -0.0884,0.262 -0.0922,0.3107 0.0038,0.0062 0.0077,0.0165 0.0124,0.0321 0.0039,0.0155 0.0078,0.0258 0.0116,0.03 0.025,0 0.0788,-0.028 0.1595,-0.0828 0.0807,-0.0549 0.1575,-0.117 0.2315,-0.1843 0.1009,-0.0808 0.1643,-0.1429 0.1902,-0.1864 0.0154,-0.0373 0.0318,-0.0559 0.0462,-0.0559 0.024,0 0.0355,0.0228 0.0355,0.0683 v 0.0373 c 0.0221,0.0331 0.0337,0.0963 0.0337,0.1864 0,0.0082 -0.0173,0.0372 -0.051,0.0859 -0.0345,0.0497 -0.0519,0.089 -0.0519,0.1191 -0.0221,0 -0.0999,0.0569 -0.2315,0.1708 -0.1316,0.1139 -0.2123,0.1812 -0.2412,0.203 -0.0345,0.0103 -0.0951,0.0414 -0.1796,0.0952 -0.0855,0.0539 -0.1441,0.089 -0.1758,0.1066 -0.0327,0.0176 -0.0635,0.027 -0.0942,0.027 -0.074,0 -0.1287,-0.0114 -0.1653,-0.0332 -0.0374,-0.0217 -0.0653,-0.0621 -0.0826,-0.1211 0.0125,-0.0953 0.0442,-0.2278 0.0961,-0.3976 0.0519,-0.1688 0.0884,-0.294 0.1095,-0.3758 0.0202,-0.0819 0.0308,-0.1761 0.0308,-0.2848 0,-0.0766 -0.0154,-0.1574 -0.0471,-0.2433 -0.0317,-0.0849 -0.0788,-0.1284 -0.1432,-0.1284 h -0.0115 c -0.0547,0.0166 -0.1067,0.0497 -0.1537,0.1015 -0.0471,0.0507 -0.0999,0.1201 -0.1585,0.2071 -0.0577,0.0869 -0.1038,0.1491 -0.1374,0.1874 -0.0154,0.0196 -0.0375,0.0445 -0.0654,0.0735 -0.0288,0.03 -0.0499,0.0538 -0.0615,0.0714 -0.0134,0.0156 -0.0355,0.0435 -0.0662,0.0828 -0.0308,0.0394 -0.0596,0.0735 -0.0846,0.1026 -0.025,0.0289 -0.0423,0.0435 -0.0509,0.0435 z"
   id="path33" />
  <path
   class="fil1"
   d="m 43.6334,45.2336 c -0.0086,0.0041 -0.025,0.0093 -0.05,0.0134 -0.0249,0.0042 -0.0432,0.0073 -0.0538,0.0104 -0.074,-0.0156 -0.1105,-0.0529 -0.1105,-0.1118 0,-0.0456 0.0097,-0.1077 0.0279,-0.1854 0.0182,-0.0766 0.0461,-0.1781 0.0826,-0.3034 0.0375,-0.1242 0.0635,-0.2174 0.0798,-0.2774 0.0163,-0.0601 0.024,-0.1118 0.024,-0.1543 0,-0.0415 -0.0039,-0.0621 -0.0115,-0.0621 -0.0375,0 -0.0788,0.0217 -0.1249,0.0662 -0.0461,0.0435 -0.1009,0.1077 -0.1653,0.1916 -0.0644,0.0828 -0.1162,0.146 -0.1556,0.1895 -0.0394,0.0424 -0.075,0.0683 -0.1067,0.0745 0,-0.0683 -0.0029,-0.1377 -0.0067,-0.2081 -0.0039,-0.0704 -0.0067,-0.1211 -0.0067,-0.1512 0.0374,-0.0652 0.0836,-0.1304 0.1374,-0.1946 0.0537,-0.0642 0.123,-0.1409 0.2075,-0.2289 0.0845,-0.088 0.1393,-0.1459 0.1633,-0.1749 0.1288,-0.1564 0.2306,-0.2724 0.3075,-0.3479 0.0759,-0.0746 0.1614,-0.1119 0.2575,-0.1119 0.1037,0 0.1556,0.0518 0.1556,0.1564 0,0.0683 -0.0048,0.1325 -0.0154,0.1915 -0.0105,0.058 -0.0259,0.1346 -0.0461,0.2278 -0.0211,0.0932 -0.0346,0.1636 -0.0423,0.2133 0.0058,0.0063 0.0106,0.0114 0.0145,0.0166 0.0047,0.0041 0.0076,0.0072 0.0096,0.0093 0.0221,0 0.0653,-0.029 0.1277,-0.086 0.0625,-0.0579 0.1566,-0.1511 0.2796,-0.2785 0.124,-0.1283 0.1989,-0.205 0.2258,-0.2319 0.1067,-0.1149 0.1777,-0.1916 0.2143,-0.2278 0.0365,-0.0362 0.0759,-0.0662 0.1201,-0.0911 0.0442,-0.0238 0.0941,-0.0362 0.1489,-0.0362 0.0365,0 0.0682,0.0279 0.0942,0.0849 0.0259,0.0559 0.0384,0.1211 0.0384,0.1946 0,0.0849 -0.0106,0.1802 -0.0308,0.2858 -0.0202,0.1056 -0.0393,0.2123 -0.0595,0.3189 -0.0202,0.1066 -0.0308,0.2019 -0.0308,0.2848 0.024,-0.0094 0.0557,-0.0373 0.0942,-0.085 0.0384,-0.0476 0.0595,-0.0724 0.0624,-0.0756 0.1144,-0.1242 0.2229,-0.2215 0.3267,-0.292 0.1038,-0.0714 0.2162,-0.1066 0.3363,-0.1066 0.0326,0.0072 0.0768,0.0477 0.1306,0.1212 0.0548,0.0735 0.0894,0.1491 0.1057,0.2267 0.0125,0.0725 0.05,0.1512 0.1143,0.2381 0.0634,0.086 0.124,0.1295 0.1797,0.1295 0.0298,0 0.0567,-0.0093 0.0836,-0.029 0.0259,-0.0187 0.0576,-0.0476 0.0932,-0.087 0.0365,-0.0393 0.0625,-0.0662 0.0787,-0.0808 0.0164,-0.0144 0.0337,-0.0217 0.05,-0.0217 0,0.0673 -0.0038,0.1149 -0.0105,0.1429 0.0144,0.1335 0.0221,0.2143 0.0221,0.2423 0,0.0662 -0.027,0.1201 -0.0798,0.1615 -0.0528,0.0425 -0.1287,0.0818 -0.2267,0.1191 -0.098,0.0383 -0.1499,0.0579 -0.1557,0.0611 -0.0384,-0.0062 -0.121,-0.0415 -0.2469,-0.1046 -0.0384,-0.0238 -0.0941,-0.0839 -0.1662,-0.1822 -0.0711,-0.0984 -0.1336,-0.1719 -0.1864,-0.2216 -0.0519,-0.0507 -0.1153,-0.0756 -0.1893,-0.0756 -0.0221,0 -0.0663,0.0249 -0.1326,0.0756 -0.0672,0.0507 -0.1249,0.1066 -0.1729,0.1677 -0.0538,0.0735 -0.1432,0.1864 -0.2671,0.3386 -0.1249,0.1522 -0.2085,0.2464 -0.2517,0.2827 -0.0471,0.0579 -0.1067,0.0869 -0.1787,0.0869 -0.0529,0 -0.0932,-0.0372 -0.1211,-0.1128 0,-0.0818 0.0096,-0.1636 0.0279,-0.2444 0.0182,-0.0818 0.048,-0.1905 0.0883,-0.3271 0.0414,-0.1357 0.0712,-0.2455 0.0904,-0.3303 0.0192,-0.084 0.0288,-0.1709 0.0288,-0.261 v -0.0362 h -0.0452 c -0.0355,0 -0.0662,0.0103 -0.0931,0.031 -0.026,0.0207 -0.0577,0.0539 -0.0942,0.0994 -0.0365,0.0446 -0.0682,0.0787 -0.0961,0.1025 -0.0278,0.0228 -0.0586,0.0342 -0.0922,0.0342 -0.0317,0.057 -0.122,0.1698 -0.269,0.3386 -0.148,0.1677 -0.2441,0.2857 -0.2892,0.352 -0.1509,0.1626 -0.2325,0.2475 -0.2479,0.2558 z"
   id="path34" />
  <path
   class="fil1"
   d="m 46.9538,44.661 c 0,-0.0176 -0.0019,-0.0477 -0.0057,-0.088 -0.0039,-0.0404 -0.0058,-0.0704 -0.0058,-0.0922 0,-0.176 0.1345,-0.3665 0.4036,-0.5715 0.0538,-0.1098 0.171,-0.2381 0.3526,-0.3852 0.0941,-0.0952 0.2555,-0.2423 0.4832,-0.4421 0.1509,-0.1118 0.2661,-0.1915 0.3459,-0.2381 0.0807,-0.0477 0.1633,-0.0704 0.2488,-0.0704 0.0567,0.0113 0.1028,0.0548 0.1374,0.1304 0,0.0414 -0.0173,0.0963 -0.0528,0.1646 -0.0365,0.0694 -0.097,0.1191 -0.1835,0.1523 -0.0414,0.0755 -0.1278,0.1728 -0.2585,0.2909 -0.0355,0.0166 -0.0759,0.0559 -0.121,0.1201 -0.0462,0.0632 -0.0894,0.1046 -0.1288,0.1222 -0.0269,0.059 -0.0538,0.1025 -0.0797,0.1304 -0.0173,0.0187 -0.0413,0.0383 -0.073,0.0601 -0.0327,0.0217 -0.0481,0.0352 -0.0481,0.0393 -0.0307,0.0601 -0.0951,0.1419 -0.1912,0.2465 -0.0961,0.1035 -0.146,0.1584 -0.1498,0.1636 -0.0087,0.0227 -0.0192,0.0465 -0.0298,0.0714 -0.0106,0.0248 -0.0193,0.0435 -0.025,0.057 -0.0058,0.0134 -0.0106,0.0248 -0.0135,0.0331 0,0 0.0029,0.0041 0.0106,0.0114 0.0749,-0.0176 0.1384,-0.0497 0.1893,-0.0953 0.0518,-0.0456 0.1268,-0.1201 0.2258,-0.2236 0.0989,-0.1036 0.1758,-0.1709 0.2315,-0.202 0.05,-0.0962 0.122,-0.177 0.2133,-0.2433 0.0922,-0.0652 0.1864,-0.0983 0.2815,-0.0983 0.0298,0 0.0538,0.0155 0.0701,0.0476 0.0164,0.0321 0.0289,0.0694 0.0375,0.1108 0.0096,0.0424 0.0183,0.0818 0.0259,0.1211 -0.0153,0.0766 -0.0268,0.1409 -0.0345,0.1926 0,0.0777 0.0201,0.1419 0.0595,0.1926 0.0404,0.0497 0.0913,0.0798 0.1538,0.088 0.0941,-0.0197 0.1883,-0.0797 0.2815,-0.1812 0.0105,0 0.0173,0.0083 0.0211,0.0249 0.0038,0.0176 0.0067,0.0414 0.0077,0.0745 10e-4,0.0331 0.0029,0.0642 0.0067,0.0932 0,0.0259 -0.0077,0.0549 -0.0221,0.087 0,0.0725 -0.0288,0.1418 -0.0845,0.207 -0.0567,0.0663 -0.122,0.1191 -0.197,0.1595 -0.0759,0.0404 -0.1393,0.0632 -0.1922,0.0684 -0.0057,-0.0032 -0.0163,-0.0062 -0.0307,-0.0104 -0.0135,-0.0042 -0.0269,-0.0093 -0.0375,-0.0155 -0.0278,0 -0.0566,0.0051 -0.0874,0.0134 -0.0807,-0.0072 -0.1508,-0.0445 -0.2094,-0.1097 -0.0586,-0.0652 -0.0903,-0.1377 -0.0961,-0.2185 -0.0067,-0.0414 -0.0125,-0.086 -0.0183,-0.1325 -0.0058,-0.0466 -0.0105,-0.0808 -0.0154,-0.1026 -0.0047,-0.0217 -0.0124,-0.0372 -0.024,-0.0455 -0.0134,0 -0.047,0.0249 -0.1027,0.0766 -0.0558,0.0508 -0.0961,0.0963 -0.1221,0.1357 -0.0096,0.0124 -0.0211,0.0217 -0.0346,0.0258 -0.0125,0.0052 -0.0259,0.0104 -0.0403,0.0166 -0.1134,0.1543 -0.2075,0.2475 -0.2835,0.2806 -0.0288,0.0621 -0.0912,0.1305 -0.1873,0.204 -0.0961,0.0746 -0.1777,0.1108 -0.244,0.1108 -0.0529,0.0259 -0.0856,0.0383 -0.0971,0.0383 -0.1556,0 -0.2469,-0.1015 -0.2719,-0.3044 0.0077,-0.0166 0.0115,-0.0373 0.0115,-0.0632 0,-0.03 0.0096,-0.0631 0.0289,-0.0983 0.0192,-0.0353 0.0288,-0.058 0.0288,-0.0684 0,-0.028 -0.0192,-0.0487 -0.0577,-0.0621 z m 1.6661,-2.5595 c 0.1267,-0.1098 0.22,-0.1957 0.2795,-0.2589 0.0596,-0.0631 0.124,-0.1511 0.1932,-0.263 0.0653,0 0.1297,0.0156 0.196,0.0487 0.0653,0.0321 0.0979,0.0797 0.0979,0.1439 0,0.0393 -0.0192,0.087 -0.0586,0.1439 -0.0384,0.057 -0.0614,0.0932 -0.0682,0.1109 -0.0394,0.0154 -0.0961,0.0507 -0.172,0.1056 -0.0749,0.0538 -0.1364,0.0942 -0.1835,0.1211 -0.0471,0.0269 -0.0941,0.0404 -0.1402,0.0404 -0.0539,0.0465 -0.1163,0.0838 -0.1864,0.1139 -0.0711,0.03 -0.1509,0.0579 -0.2383,0.0838 -0.0875,0.0259 -0.1432,0.0446 -0.1681,0.057 -0.0817,-0.0187 -0.1278,-0.0663 -0.1394,-0.1429 0.0356,-0.029 0.0942,-0.0601 0.1739,-0.0921 0.0807,-0.0332 0.1547,-0.0643 0.222,-0.0932 0.0682,-0.0301 0.1326,-0.0694 0.1922,-0.1191 z"
   id="path35" />
  <path
   class="fil1"
   d="m 49.8361,45.1031 c 0,-0.4898 0.0596,-0.8708 0.1787,-1.1441 v -0.0125 c 0,-0.0155 -0.0029,-0.0258 -0.0086,-0.031 -0.0058,-0.0041 -0.0096,-0.0062 -0.0134,-0.0062 -0.0635,0.0952 -0.1336,0.1874 -0.2105,0.2775 -0.0778,0.09 -0.1585,0.1791 -0.244,0.2692 -0.0855,0.089 -0.1739,0.1822 -0.2662,0.2796 0,-0.0083 -0.0038,-0.0415 -0.0124,-0.1005 -0.0077,-0.058 -0.0116,-0.1098 -0.0116,-0.1543 0,-0.0652 0.0144,-0.1211 0.0423,-0.1698 0.0279,-0.0486 0.0711,-0.1035 0.1297,-0.1646 0.0586,-0.0611 0.1,-0.1067 0.122,-0.1377 0.1489,-0.2154 0.3382,-0.5115 0.5659,-0.8884 0.0884,-0.1688 0.1316,-0.2702 0.1316,-0.3044 h -0.0797 c -0.0605,0 -0.1509,-0.0031 -0.2719,-0.0093 -0.1211,-0.0062 -0.2085,-0.0093 -0.2642,-0.0093 -0.0048,0 -0.0125,10e-4 -0.024,0.0031 -0.0116,0.002 -0.0183,0.0031 -0.0221,0.0031 -0.0548,-0.0031 -0.1096,-0.0176 -0.1653,-0.0435 -0.0547,-0.0259 -0.0826,-0.0508 -0.0826,-0.0746 0,-0.2277 0.0231,-0.3644 0.0692,-0.41 0.0182,-0.0165 0.0855,-0.0238 0.2008,-0.0238 0.0595,0 0.1479,0.0021 0.2671,0.0062 0.1191,0.0031 0.2094,0.0052 0.269,0.0052 0.0231,0 0.0394,0.0041 0.0461,0.0124 0.0769,-0.0165 0.1153,-0.0238 0.1153,-0.0238 0.0163,0 0.0394,0.0073 0.0692,0.0238 0.0788,-0.0145 0.1373,-0.059 0.1758,-0.1346 0.0374,-0.0745 0.0797,-0.1646 0.1278,-0.2692 0.0471,-0.1046 0.1057,-0.177 0.1748,-0.2174 h 0.0116 c 0.0154,0 0.0307,0.0041 0.0451,0.0124 0.0135,0.0083 0.0221,0.0124 0.0241,0.0124 0.0691,0.0301 0.1037,0.0849 0.1037,0.1678 0,0.0403 -0.0038,0.0787 -0.0125,0.1159 -0.0086,0.0363 -0.023,0.0797 -0.0432,0.1305 -0.0202,0.0497 -0.0317,0.0818 -0.0355,0.0963 0,0.0362 0.0153,0.0631 0.0451,0.0808 0.0308,0.0176 0.0461,0.0424 0.0461,0.0735 v 0 c -0.0153,0.1159 -0.0221,0.2505 -0.0221,0.4038 0,0.03 -0.0144,0.0497 -0.0423,0.058 -0.0268,0.0082 -0.0672,0.0155 -0.121,0.0206 -0.0529,0.0052 -0.0855,0.0146 -0.0971,0.027 -0.0096,0.0103 -0.024,0.0538 -0.0422,0.1294 -0.0183,0.0766 -0.0308,0.1263 -0.0385,0.1501 -0.0202,0.0974 -0.0605,0.2651 -0.121,0.5002 -0.0596,0.236 -0.1057,0.4297 -0.1374,0.5808 -0.0307,0.1522 -0.0519,0.3054 -0.0634,0.4597 0.0115,0.0746 0.0202,0.1119 0.0278,0.1119 0.0615,0 0.1144,-0.0187 0.1614,-0.058 0.0461,-0.0394 0.1,-0.0953 0.1624,-0.1699 0.0615,-0.0745 0.1057,-0.1201 0.1326,-0.1387 0.049,-0.0363 0.0942,-0.0756 0.1355,-0.118 0.0403,-0.0415 0.0662,-0.0622 0.0768,-0.0622 0.0308,0 0.0461,0.0332 0.0461,0.0994 0,0.1181 -0.0134,0.2071 -0.0393,0.2703 -0.026,0.0631 -0.0817,0.1336 -0.1672,0.2143 -0.026,0.0238 -0.0577,0.058 -0.0961,0.1015 -0.0384,0.0445 -0.0701,0.0776 -0.0951,0.1014 -0.0259,0.0228 -0.0529,0.0404 -0.0807,0.0518 -0.2661,0.2868 -0.4333,0.4359 -0.5006,0.4473 -0.1796,-0.0797 -0.2738,-0.1895 -0.2834,-0.3292 0.0077,-0.0332 0.0115,-0.0642 0.0115,-0.0922 z"
   id="path36" />
  <path
   class="fil1"
   d="m 51.7049,42.5364 c -0.0385,-0.0487 -0.0577,-0.1046 -0.0577,-0.1688 0,-0.0922 0.0327,-0.1853 0.098,-0.2796 0.0653,-0.0932 0.1345,-0.1491 0.2075,-0.1677 0.0116,-0.0487 0.0529,-0.0921 0.125,-0.1326 0.071,-0.0393 0.147,-0.06 0.2267,-0.06 0.0394,0.0135 0.0682,0.0404 0.0865,0.0818 -0.0318,0.2185 -0.0596,0.3531 -0.0865,0.4038 -0.0135,0.0859 -0.0442,0.1553 -0.0894,0.2081 -0.0461,0.0539 -0.0999,0.0984 -0.1623,0.1367 -0.0615,0.0373 -0.0951,0.059 -0.1,0.0652 -0.0384,0 -0.0768,0.0031 -0.1152,0.0114 -0.0865,0 -0.1336,-0.0248 -0.1432,-0.0745 0.0048,-0.0042 0.0077,-0.0094 0.0086,-0.0135 0.002,-0.0052 0.002,-0.0083 0.002,-0.0103 z m -0.7197,2.1753 c -0.0076,-0.0176 -0.0115,-0.0611 -0.0115,-0.1304 0,-0.0363 0.0019,-0.0849 0.0058,-0.1492 0.0038,-0.0631 0.0057,-0.1076 0.0057,-0.1314 0.0241,-0.0177 0.0635,-0.0601 0.1182,-0.1284 0.0538,-0.0684 0.1009,-0.1108 0.1403,-0.1264 0.0154,-0.0382 0.0596,-0.1024 0.1336,-0.1946 0.073,-0.0921 0.1306,-0.1491 0.1719,-0.1708 0.0375,-0.0808 0.0779,-0.1326 0.1211,-0.1564 0.1566,0 0.2738,0.0601 0.3516,0.1802 0.0087,0.029 0.0202,0.1252 0.0346,0.2889 0.0144,0.1636 0.0384,0.2919 0.072,0.3862 0.0327,0.0942 0.0914,0.148 0.1759,0.1636 0.0375,-0.0166 0.0625,-0.0239 0.0749,-0.0239 0.0635,-0.0362 0.1096,-0.0569 0.1374,-0.0621 0.0202,-0.0466 0.0529,-0.089 0.1,-0.1253 0.0461,-0.0372 0.0845,-0.06 0.1143,-0.0673 0,0.0683 -0.0019,0.1336 -0.0058,0.1968 -0.0038,0.0631 -0.0058,0.1252 -0.0058,0.1884 -0.0931,0.1957 -0.3045,0.3386 -0.6341,0.4276 -0.0749,-0.0228 -0.1152,-0.0352 -0.121,-0.0362 -0.0779,-0.0425 -0.1384,-0.0901 -0.1806,-0.1439 -0.0414,-0.0539 -0.0721,-0.1098 -0.0913,-0.1678 -0.0192,-0.059 -0.0346,-0.1035 -0.0452,-0.1366 -0.0182,-0.0156 -0.048,-0.0684 -0.0893,-0.1585 -0.0404,-0.089 -0.0779,-0.1335 -0.1124,-0.1335 -0.0356,0 -0.0827,0.032 -0.1422,0.0973 -0.0606,0.0652 -0.1143,0.1263 -0.1634,0.1833 -0.0327,0.0114 -0.0653,0.0362 -0.096,0.0735 -0.0308,0.0383 -0.05,0.0569 -0.0587,0.0569 z"
   id="path37" />
  <path
   class="fil1"
   d="m 52.7781,44.2261 c 0.0269,-0.0238 0.0682,-0.0579 0.1259,-0.1025 0.0576,-0.0456 0.1143,-0.0828 0.1681,-0.1149 0,-0.0497 0.1066,-0.1626 0.3199,-0.3407 0.2143,-0.177 0.3872,-0.3065 0.5217,-0.3872 0.0356,-0.0269 0.0769,-0.059 0.1221,-0.0952 0.0461,-0.0373 0.1056,-0.0705 0.1786,-0.1005 0.074,-0.03 0.1615,-0.0456 0.2633,-0.0456 0.0087,0.0363 0.0192,0.0839 0.0327,0.1409 0.0134,0.0579 0.0202,0.0994 0.0202,0.1263 0,0.1304 -0.1576,0.2795 -0.4737,0.4473 -0.0385,0.0839 -0.1278,0.1729 -0.27,0.2681 -0.1412,0.0943 -0.2402,0.1688 -0.2959,0.2216 -0.0558,0.0539 -0.0836,0.1408 -0.0836,0.261 0,0.0082 -0.0077,0.0435 -0.024,0.1066 0.0076,0.0176 0.0154,0.0435 0.0231,0.0808 0.0076,0.0362 0.0182,0.0652 0.0307,0.0859 0.0135,0.0217 0.0375,0.0403 0.073,0.0559 0.0836,0.0187 0.1739,0.0331 0.271,0.0445 0.0057,-0.002 0.0259,-0.0062 0.0604,-0.0124 0.0337,-0.0062 0.0616,-0.0124 0.0818,-0.0197 0.0211,-0.0072 0.0403,-0.0196 0.0595,-0.0362 0.0663,-0.0321 0.1854,-0.1087 0.3574,-0.2288 0.1729,-0.1377 0.2681,-0.2392 0.2825,-0.3055 0,-0.0166 0.0077,-0.0259 0.023,-0.0259 0.0202,0 0.0394,0.0125 0.0558,0.0373 0.0173,0.0249 0.0288,0.0455 0.0365,0.0632 0,0.0238 0.0019,0.0579 0.0057,0.1046 0.0039,0.0465 0.0058,0.0797 0.0058,0.1004 v 0.0124 c -0.0163,0.0849 -0.1441,0.2092 -0.3852,0.3728 -0.1759,0.1263 -0.3344,0.2236 -0.4756,0.2909 -0.1403,0.0673 -0.2902,0.1004 -0.4478,0.1004 -0.1729,0 -0.3372,-0.0849 -0.4957,-0.2547 -0.0394,-0.0797 -0.0673,-0.1791 -0.0836,-0.2961 -0.0173,-0.117 -0.0279,-0.176 -0.0317,-0.176 -0.0144,0 -0.0384,0.0196 -0.0701,0.059 -0.0318,0.0394 -0.0529,0.059 -0.0616,0.059 -0.0076,0 -0.0115,-0.0124 -0.0115,-0.0372 v -0.3604 c 0.0039,-0.0072 0.0164,-0.0207 0.0375,-0.0393 0.0211,-0.0186 0.0394,-0.0394 0.0538,-0.0601 z"
   id="path38" />
  <path
   class="fil1"
   d="m 54.6343,44.661 c 0,-0.0176 -0.0019,-0.0477 -0.0057,-0.088 -0.0039,-0.0404 -0.0058,-0.0704 -0.0058,-0.0922 0,-0.176 0.1345,-0.3665 0.4036,-0.5715 0.0538,-0.1098 0.171,-0.2381 0.3526,-0.3852 0.0941,-0.0952 0.2555,-0.2423 0.4832,-0.4421 0.1509,-0.1118 0.2661,-0.1915 0.3459,-0.2381 0.0807,-0.0477 0.1633,-0.0704 0.2488,-0.0704 0.0567,0.0113 0.1028,0.0548 0.1374,0.1304 0,0.0414 -0.0173,0.0963 -0.0528,0.1646 -0.0365,0.0694 -0.097,0.1191 -0.1835,0.1523 -0.0414,0.0755 -0.1278,0.1728 -0.2585,0.2909 -0.0355,0.0166 -0.0759,0.0559 -0.121,0.1201 -0.0462,0.0632 -0.0894,0.1046 -0.1288,0.1222 -0.0269,0.059 -0.0538,0.1025 -0.0797,0.1304 -0.0173,0.0187 -0.0413,0.0383 -0.073,0.0601 -0.0327,0.0217 -0.0481,0.0352 -0.0481,0.0393 -0.0307,0.0601 -0.0951,0.1419 -0.1912,0.2465 -0.0961,0.1035 -0.146,0.1584 -0.1498,0.1636 -0.0087,0.0227 -0.0192,0.0465 -0.0298,0.0714 -0.0106,0.0248 -0.0193,0.0435 -0.025,0.057 -0.0058,0.0134 -0.0106,0.0248 -0.0135,0.0331 0,0 0.0029,0.0041 0.0106,0.0114 0.0749,-0.0176 0.1384,-0.0497 0.1893,-0.0953 0.0518,-0.0456 0.1268,-0.1201 0.2258,-0.2236 0.0989,-0.1036 0.1758,-0.1709 0.2315,-0.202 0.05,-0.0962 0.122,-0.177 0.2133,-0.2433 0.0922,-0.0652 0.1864,-0.0983 0.2815,-0.0983 0.0298,0 0.0538,0.0155 0.0701,0.0476 0.0164,0.0321 0.0289,0.0694 0.0375,0.1108 0.0096,0.0424 0.0183,0.0818 0.0259,0.1211 -0.0153,0.0766 -0.0268,0.1409 -0.0345,0.1926 0,0.0777 0.0201,0.1419 0.0595,0.1926 0.0404,0.0497 0.0913,0.0798 0.1538,0.088 0.0941,-0.0197 0.1883,-0.0797 0.2815,-0.1812 0.0105,0 0.0173,0.0083 0.0211,0.0249 0.0038,0.0176 0.0067,0.0414 0.0077,0.0745 10e-4,0.0331 0.0029,0.0642 0.0067,0.0932 0,0.0259 -0.0077,0.0549 -0.0221,0.087 0,0.0725 -0.0288,0.1418 -0.0845,0.207 -0.0567,0.0663 -0.122,0.1191 -0.197,0.1595 -0.0759,0.0404 -0.1393,0.0632 -0.1922,0.0684 -0.0057,-0.0032 -0.0163,-0.0062 -0.0307,-0.0104 -0.0135,-0.0042 -0.0269,-0.0093 -0.0375,-0.0155 -0.0278,0 -0.0566,0.0051 -0.0874,0.0134 -0.0807,-0.0072 -0.1508,-0.0445 -0.2094,-0.1097 -0.0586,-0.0652 -0.0903,-0.1377 -0.0961,-0.2185 -0.0067,-0.0414 -0.0125,-0.086 -0.0183,-0.1325 -0.0058,-0.0466 -0.0105,-0.0808 -0.0154,-0.1026 -0.0047,-0.0217 -0.0124,-0.0372 -0.024,-0.0455 -0.0134,0 -0.047,0.0249 -0.1027,0.0766 -0.0558,0.0508 -0.0961,0.0963 -0.1221,0.1357 -0.0096,0.0124 -0.0211,0.0217 -0.0346,0.0258 -0.0125,0.0052 -0.0259,0.0104 -0.0403,0.0166 -0.1134,0.1543 -0.2075,0.2475 -0.2835,0.2806 -0.0288,0.0621 -0.0912,0.1305 -0.1873,0.204 -0.0961,0.0746 -0.1777,0.1108 -0.244,0.1108 -0.0529,0.0259 -0.0856,0.0383 -0.0971,0.0383 -0.1556,0 -0.2469,-0.1015 -0.2719,-0.3044 0.0077,-0.0166 0.0115,-0.0373 0.0115,-0.0632 0,-0.03 0.0096,-0.0631 0.0289,-0.0983 0.0192,-0.0353 0.0288,-0.058 0.0288,-0.0684 0,-0.028 -0.0192,-0.0487 -0.0577,-0.0621 z"
   id="path39" />
  <path
   class="fil2"
   d="m 31.892,33.8977 c 0.5386,0.0536 0.9516,0.226 1.2436,0.5128 0.2898,0.289 0.4413,0.6735 0.4542,1.1537 0.3634,-0.1515 0.6186,-0.2261 0.7657,-0.2261 0.1297,0 0.1947,0.0466 0.1947,0.1399 0,0.0955 -0.0824,0.2051 -0.2445,0.3262 -0.1622,0.1213 -0.3936,0.2215 -0.6922,0.3031 -0.1145,0.6596 -0.3438,1.275 -0.6856,1.8483 -0.3395,0.571 -0.7461,1.0839 -1.2133,1.5337 -0.4693,0.4522 -0.9386,0.8298 -1.4081,1.1399 -0.4714,0.3075 -0.9365,0.5687 -1.3992,0.7784 -0.4695,0.2052 -0.8068,0.3076 -1.0145,0.3076 -0.2163,0 -0.4411,-0.0932 -0.6747,-0.2843 -0.2314,-0.1911 -0.3613,-0.3985 -0.3893,-0.6223 0.0259,-0.5431 0.5406,-1.261 1.5464,-2.1561 0.1167,-0.1118 0.2812,-0.254 0.4932,-0.4288 0.2141,-0.1747 0.4995,-0.3893 0.8586,-0.6433 0.359,-0.2541 0.7808,-0.5245 1.2631,-0.8111 0.4822,-0.2844 0.9688,-0.5431 1.4576,-0.7715 -0.0734,-0.4848 -0.333,-0.7273 -0.7786,-0.7273 -0.4,0 -0.7613,0.0699 -1.0813,0.2144 -0.3202,0.1422 -0.7829,0.3847 -1.3885,0.7204 -0.6034,0.3379 -1.0751,0.55 -1.4103,0.6408 -0.0692,0 -0.121,-0.0721 -0.1557,-0.2213 0.0368,-0.1586 0.0541,-0.2378 0.0541,-0.2378 0.1859,-0.5803 0.3006,-0.9346 0.3461,-1.0582 0.0454,-0.1235 0.1211,-0.2401 0.2249,-0.3473 0.1016,-0.1095 0.2834,-0.24 0.545,-0.3986 0.3786,-0.2284 0.8175,-0.4661 1.3129,-0.7155 0.4952,-0.2495 0.9104,-0.4592 1.2458,-0.6271 0.3352,-0.1701 0.6792,-0.3612 1.0272,-0.571 0.3506,-0.2097 0.677,-0.4405 0.982,-0.6876 0.2488,-0.1842 0.3742,-0.3753 0.3742,-0.5733 0,-0.2541 -0.2293,-0.3799 -0.6878,-0.3799 -0.426,0 -1.0468,0.163 -1.8665,0.4917 -0.2812,0.1305 -0.597,0.2867 -0.9452,0.4709 -0.3504,0.184 -0.6747,0.3636 -0.9754,0.5383 -0.3027,0.175 -0.7246,0.4219 -1.2674,0.7437 -0.5451,0.3239 -0.9085,0.5407 -1.0944,0.6526 0,-0.5782 0.0432,-1.0676 0.1297,-1.4685 0.0866,-0.4031 0.225,-0.7528 0.4196,-1.0511 0.1925,-0.296 0.4413,-0.5618 0.7462,-0.7972 0.3071,-0.233 0.6986,-0.4755 1.1809,-0.7226 0.3525,-0.1771 0.7613,-0.338 1.2263,-0.4871 0.4651,-0.1492 0.9301,-0.2658 1.3994,-0.352 0.4672,-0.0862 0.8781,-0.1282 1.2306,-0.1282 0.3331,0 0.6468,0.0583 0.9431,0.1748 0.2963,0.1166 0.5363,0.2984 0.7224,0.5454 0.1859,0.2494 0.2789,0.5571 0.2789,0.9301 0,0.5593 -0.1686,1.0465 -0.5061,1.4661 -0.3352,0.4172 -0.7072,0.7458 -1.1159,0.9882 -0.4067,0.24 -0.9647,0.5314 -1.6719,0.8741 z m 0.3893,2.9811 c -0.7701,0.3986 -1.4621,0.8461 -2.0764,1.3355 -0.6163,0.4919 -1.0922,0.9417 -1.4296,1.3497 -0.3375,0.4101 -0.5061,0.6991 -0.5061,0.8646 0,0.0374 0.0433,0.0537 0.132,0.0537 0.2227,0 0.5968,-0.1726 1.1224,-0.5198 0.5234,-0.3473 1.049,-0.7994 1.5724,-1.3566 0.5234,-0.5569 0.9192,-1.1327 1.1853,-1.7271 z"
   id="path40"
   style="fill:currentColor" />
  <path
   class="fil2"
   d="m 37.2472,34.7927 c -0.6186,0.3543 -1.0922,0.6922 -1.4232,1.0115 -0.3309,0.3195 -0.5039,0.7344 -0.5212,1.2402 0,0.3543 0.1773,0.5454 0.532,0.5733 0.3764,-0.0373 0.7311,-0.2285 1.0641,-0.5733 -0.1125,-0.2075 -0.1816,-0.4196 -0.2077,-0.6317 0.0218,-0.4266 0.2077,-0.9674 0.556,-1.62 z m 1.0943,-0.6432 c 0.3181,0.0419 0.4781,0.3006 0.4781,0.7831 0,0.4965 -0.1688,1.0535 -0.5061,1.6641 0.0691,0 0.1211,0.0094 0.1536,0.0281 0.1643,-0.014 0.3352,-0.0816 0.5082,-0.2051 0.173,-0.1213 0.3893,-0.3147 0.6488,-0.5805 l 0.1557,0.6037 c -0.305,0.4406 -0.6186,0.7366 -0.9408,0.8903 -0.3244,0.154 -0.7095,0.2379 -1.1593,0.2543 -0.6358,0.6712 -1.2674,1.0069 -1.8946,1.0069 -0.4672,0 -0.8263,-0.2029 -1.0772,-0.6109 -0.2507,-0.4078 -0.3763,-0.881 -0.3763,-1.417 0,-0.5874 0.1795,-1.1351 0.5386,-1.6433 0.359,-0.5104 0.8154,-0.9113 1.3712,-1.2096 0.5559,-0.296 1.1031,-0.4452 1.6438,-0.4452 0.4845,0 0.7288,0.1444 0.7288,0.4334 0,0.175 -0.0907,0.3241 -0.2725,0.4477 z"
   id="path41"
   style="fill:currentColor" />
  <path
   class="fil2"
   d="m 43.2187,35.4243 -0.0282,-0.0325 c -0.2292,0.1701 -0.4627,0.3752 -0.7008,0.6176 -0.2357,0.2424 -0.452,0.4848 -0.6509,0.7249 -0.1968,0.2423 -0.4109,0.5127 -0.6402,0.8158 -0.2315,0.303 -0.3656,0.4802 -0.4067,0.5291 -0.2098,0.2377 -0.4391,0.373 -0.6877,0.4078 -0.1839,-0.0185 -0.3375,-0.1397 -0.4586,-0.3589 -0.1232,-0.2214 -0.1903,-0.5221 -0.2032,-0.9021 0,-0.3868 0.0929,-0.8158 0.2789,-1.2842 0.1861,-0.4684 0.3979,-0.8601 0.6403,-1.177 0.2594,-0.3264 0.4218,-0.5245 0.4844,-0.5968 0.0627,-0.0699 0.1449,-0.1305 0.2444,-0.1748 0.0994,-0.0466 0.238,-0.0675 0.4153,-0.0675 h 0.2963 c 0.253,0 0.3784,0.0979 0.3784,0.2913 0,0.1584 -0.0821,0.3449 -0.2464,0.5593 -0.1645,0.2146 -0.4024,0.4989 -0.7138,0.8508 -0.3136,0.352 -0.5083,0.5943 -0.5861,0.7319 -0.0304,0.063 -0.0563,0.1236 -0.0757,0.1819 0,0.0629 0.0432,0.1095 0.1298,0.1397 0.1102,-0.0302 0.1773,-0.0768 0.2054,-0.1397 0.305,-0.3801 0.5687,-0.6876 0.7959,-0.923 0.2271,-0.2332 0.5602,-0.5315 0.997,-0.8951 0.1472,-0.1586 0.4802,-0.4242 0.9951,-0.7994 0.5147,-0.3753 0.8715,-0.5735 1.0683,-0.5991 0.0607,0 0.1385,0.1212 0.2336,0.366 0.0951,0.2446 0.1428,0.4684 0.1428,0.669 0,0.1304 -0.0087,0.2072 -0.0261,0.2236 -0.0973,0.1563 -0.2941,0.408 -0.5925,0.7575 -0.2963,0.3497 -0.5234,0.6387 -0.6813,0.8695 -0.1557,0.2307 -0.2379,0.4545 -0.2466,0.6689 0.0066,0.0139 0.0216,0.0559 0.0434,0.1213 0.0216,0.0629 0.0432,0.1072 0.0605,0.1282 0.0173,0.0233 0.0497,0.0465 0.0929,0.0698 0.1775,-0.0117 0.4197,-0.1399 0.7268,-0.3822 0.3072,-0.2448 0.7093,-0.5897 1.2069,-1.0302 l 0.1037,0.6013 c -0.4563,0.4918 -0.85,0.8997 -1.1831,1.2261 -0.333,0.3285 -0.6618,0.6012 -0.9883,0.8227 -0.3266,0.2215 -0.6121,0.331 -0.8543,0.331 -0.1255,0 -0.2271,-0.0256 -0.305,-0.0793 -0.08,-0.0512 -0.1427,-0.1212 -0.1904,-0.2097 -0.0453,-0.0863 -0.0886,-0.2098 -0.1275,-0.3684 -0.0389,-0.1584 -0.0605,-0.2423 -0.065,-0.254 0.0088,-0.2354 0.0693,-0.4894 0.1797,-0.7645 0.1102,-0.2727 0.2357,-0.5313 0.3784,-0.7738 0.1405,-0.2402 0.3287,-0.5385 0.5602,-0.8928 z"
   id="path42"
   style="fill:currentColor" />
  <path
   class="fil2"
   d="m 49.6445,34.6972 v -0.0327 c -0.7441,0.2821 -1.3302,0.5152 -1.7606,0.7063 -0.4283,0.1888 -0.8219,0.4475 -1.181,0.769 -0.3589,0.3241 -0.5384,0.6948 -0.5384,1.1143 0,0.1538 0.0778,0.247 0.2336,0.2797 0.452,-0.0187 1.5334,-0.965 3.2464,-2.8366 z m 0.7786,-0.3939 c 0.2313,0.1258 0.3481,0.2983 0.3481,0.515 0,0.2284 -0.1081,0.4755 -0.3222,0.7459 -0.5082,0.634 -0.7679,1.1095 -0.7807,1.4218 0.0128,0.1888 0.121,0.296 0.3243,0.3263 0.2293,0 0.4954,-0.0932 0.7981,-0.2797 0.3028,-0.1841 0.677,-0.4755 1.1247,-0.8693 l 0.1016,0.5733 c -0.2531,0.2797 -0.5752,0.5874 -0.9624,0.9253 -0.3893,0.338 -0.7765,0.6271 -1.1615,0.8671 -0.3827,0.2401 -0.6963,0.3591 -0.9365,0.3591 -0.3157,-0.0747 -0.4845,-0.3078 -0.5082,-0.6971 0.0282,-0.4288 0.1968,-0.9719 0.5082,-1.6245 l -0.0259,-0.0256 c -0.0303,0.0233 -0.2834,0.2446 -0.7634,0.6619 -0.4781,0.4149 -0.8458,0.7226 -1.0988,0.9183 -0.2531,0.1958 -0.4672,0.3264 -0.6424,0.3917 -0.1384,0 -0.305,-0.0839 -0.4974,-0.2518 -0.1925,-0.1678 -0.3569,-0.3847 -0.4932,-0.6456 -0.1362,-0.2612 -0.2032,-0.5175 -0.2032,-0.7693 0,-0.1655 0.0086,-0.2773 0.0259,-0.3333 0.0952,-0.3915 0.3157,-0.7761 0.6661,-1.1537 0.3482,-0.3753 0.7636,-0.711 1.2415,-1.007 0.478,-0.2959 0.9604,-0.5383 1.4447,-0.7224 0.4845,-0.1865 0.9106,-0.296 1.2805,-0.3334 h 0.1298 c 0.2011,0 0.3893,0.063 0.5645,0.1912 0.1773,0.1281 0.2661,0.2936 0.2661,0.4942 0,0.1118 -0.1429,0.219 -0.4283,0.3216 z"
   id="path43"
   style="fill:currentColor" />
  <path
   class="fil3"
   d="m 22.3055,45.6155 c -0.0144,0 -0.0404,0.002 -0.0769,0.0062 -0.0365,0.0041 -0.0653,0.0062 -0.0846,0.0062 -0.1018,0 -0.1883,-0.03 -0.2603,-0.0911 -0.0721,-0.0601 -0.1086,-0.1439 -0.1086,-0.2506 0,-0.087 0.0154,-0.1719 0.0471,-0.2547 0.0317,-0.0829 0.0721,-0.1605 0.1211,-0.234 0.0489,-0.0736 0.1191,-0.1646 0.2103,-0.2734 0.0913,-0.1097 0.1422,-0.1698 0.1519,-0.1822 0.0768,-0.0952 0.172,-0.2205 0.2863,-0.3758 0.1143,-0.1543 0.1825,-0.2423 0.2037,-0.2631 0.0134,-0.0434 0.0442,-0.0994 0.0941,-0.1677 0.049,-0.0694 0.1211,-0.1656 0.2172,-0.2899 0.096,-0.1242 0.1537,-0.204 0.1729,-0.2381 0.0749,-0.1191 0.1557,-0.2454 0.2402,-0.3779 0.0845,-0.1336 0.1604,-0.2661 0.2267,-0.3997 0.0663,-0.1326 0.099,-0.2402 0.099,-0.322 -0.0144,-0.0704 -0.0682,-0.1222 -0.1614,-0.1543 -0.0932,-0.0321 -0.2171,-0.0601 -0.3709,-0.0828 -0.1547,-0.0228 -0.2479,-0.0415 -0.2815,-0.0559 -0.075,0.0103 -0.2066,0.0165 -0.3968,0.0186 -0.1892,0.0021 -0.3026,0.0041 -0.3401,0.0073 -0.0423,0 -0.0692,-0.0373 -0.0807,-0.1119 0.0057,-0.0621 0.0202,-0.1232 0.0442,-0.1832 0.0231,-0.0611 0.0452,-0.0974 0.0644,-0.1098 0.0211,-0.2195 0.1575,-0.3293 0.4093,-0.3293 0.1268,0 0.2056,0.0177 0.2363,0.0508 0.0317,-0.0083 0.0874,-0.0125 0.1681,-0.0125 0.074,0 0.1489,0.0073 0.2258,0.0208 0.0759,0.0134 0.1681,0.0321 0.2748,0.0569 0.1067,0.0238 0.1806,0.0394 0.22,0.0466 0.0221,0.0042 0.0702,0.0269 0.1441,0.0694 0.075,0.0414 0.1355,0.0704 0.1835,0.0859 0.1922,0.1626 0.2883,0.3489 0.2883,0.5591 0,0.116 -0.025,0.2434 -0.074,0.3811 -0.049,0.1376 -0.1143,0.264 -0.195,0.381 -0.0817,0.117 -0.1662,0.2071 -0.2556,0.2692 -0.0298,0.0642 -0.0653,0.1263 -0.1047,0.1895 -0.0394,0.0621 -0.0788,0.118 -0.1192,0.1698 -0.0403,0.0507 -0.0874,0.1087 -0.1422,0.1749 -0.0547,0.0653 -0.1086,0.1336 -0.1633,0.2051 -0.0038,0.0217 -0.0173,0.0476 -0.0403,0.0766 -0.0221,0.0279 -0.05,0.058 -0.0817,0.0901 -0.0308,0.031 -0.0692,0.0693 -0.1143,0.1139 -0.0231,0.0683 -0.0557,0.1335 -0.0961,0.1946 -0.0414,0.0611 -0.0846,0.117 -0.1307,0.1667 -0.0461,0.0497 -0.0874,0.0942 -0.1249,0.1346 0,0.0321 -0.0115,0.0653 -0.0346,0.0994 -0.023,0.0331 -0.0605,0.0828 -0.1143,0.1491 -0.0529,0.0652 -0.0942,0.1253 -0.1239,0.1792 -0.0308,0.0527 -0.0471,0.1097 -0.051,0.1697 h 0.0404 c 0.0317,0 0.0691,0.0021 0.1143,0.0063 0.0452,0.0031 0.0682,0.0052 0.0702,0.0052 0.0345,-0.0167 0.0634,-0.0249 0.0874,-0.0249 0.0192,0 0.0653,0.0124 0.1383,0.0373 0.0327,-0.0259 0.1105,-0.0529 0.2325,-0.0788 0.123,-0.0258 0.2489,-0.0548 0.3776,-0.0838 0.1297,-0.03 0.2335,-0.0683 0.3113,-0.116 0.0317,-0.0103 0.0942,-0.0414 0.1854,-0.0921 0.0913,-0.0508 0.1605,-0.0766 0.2076,-0.0766 0.0451,0 0.0682,0.0641 0.0682,0.1926 0,0.0538 -0.0135,0.0994 -0.0404,0.1366 -0.0269,0.0373 -0.0614,0.0673 -0.1037,0.0901 -0.0414,0.0228 -0.0942,0.0445 -0.1576,0.0653 -0.0634,0.0206 -0.1047,0.0351 -0.1239,0.0434 -0.0452,0.0518 -0.1211,0.0984 -0.2287,0.1388 -0.1076,0.0393 -0.1816,0.0755 -0.2219,0.1097 -0.1057,0.057 -0.2201,0.1046 -0.3421,0.1419 -0.122,0.0372 -0.2459,0.0694 -0.3708,0.0963 -0.125,0.0269 -0.2738,0.059 -0.4458,0.0963 z"
   id="path44"
   style="fill:currentColor" />
  <path
   class="fil3"
   d="m 24.9053,45.338 c -0.1076,-0.0425 -0.1739,-0.1315 -0.2018,-0.2672 0,-0.0258 -0.0038,-0.0445 -0.0105,-0.0569 0.0105,-0.0487 0.0201,-0.1232 0.0268,-0.2216 0.0068,-0.0994 0.0174,-0.176 0.0308,-0.2319 -0.0298,0 -0.0605,0.0134 -0.0922,0.0393 -0.0327,0.0249 -0.0721,0.0632 -0.1182,0.1129 -0.0471,0.0507 -0.0807,0.0859 -0.1028,0.1077 -0.0221,0.0207 -0.0423,0.031 -0.0615,0.031 v -0.0362 c 0,-0.0456 0.0077,-0.1015 0.0221,-0.1677 C 24.3942,44.636 24.3893,44.6256 24.3855,44.6163 24.3807,44.608 24.3778,44.6008 24.3759,44.5966 V 44.492 c 0.0394,-0.0641 0.1393,-0.1781 0.2997,-0.3406 0.1605,-0.1636 0.2701,-0.2692 0.3277,-0.3179 0.0327,-0.0621 0.0778,-0.1242 0.1335,-0.1843 0.0567,-0.06 0.1278,-0.1273 0.2133,-0.2019 0.0865,-0.0735 0.1508,-0.1315 0.195,-0.1729 0.0155,-0.0083 0.0423,-0.0124 0.0808,-0.0124 0.1191,0 0.1787,0.0248 0.1787,0.0745 0,0.0042 -0.0106,0.029 -0.0317,0.0756 -0.0212,0.0466 -0.0337,0.0777 -0.0375,0.0932 0.0336,0 0.0865,-0.0155 0.1595,-0.0476 0.073,-0.0311 0.1335,-0.0466 0.1806,-0.0466 0.1557,0.0134 0.2729,0.0777 0.3517,0.1925 0,0.0084 0.0105,0.0415 0.0317,0.1005 0.0211,0.058 0.0316,0.118 0.0316,0.1791 0,0.1667 -0.024,0.32 -0.0739,0.4587 -0.0202,0.0549 -0.0586,0.1243 -0.1163,0.2071 -0.0576,0.0828 -0.0884,0.1398 -0.0922,0.1729 -0.0058,0.0083 -0.0327,0.0363 -0.0826,0.0839 -0.049,0.0476 -0.0807,0.0931 -0.0961,0.1346 -0.1403,0.1387 -0.2402,0.234 -0.2998,0.2878 -0.0595,0.0539 -0.1345,0.1036 -0.2257,0.1512 -0.0914,0.0466 -0.1893,0.0704 -0.2921,0.0704 -0.1787,0 -0.2806,-0.0373 -0.3065,-0.1118 z m 1.0549,-0.7528 c 0.025,-0.0269 0.051,-0.1025 0.0807,-0.2298 0.0077,-0.0331 0.0125,-0.0808 0.0125,-0.1439 0,-0.1606 -0.0596,-0.2413 -0.1787,-0.2413 -0.0615,0 -0.1066,0.0124 -0.1374,0.0373 -0.0307,0.0238 -0.0788,0.0714 -0.146,0.1439 -0.0548,0.1025 -0.1182,0.1543 -0.1893,0.1543 -0.0961,0.1232 -0.1557,0.2805 -0.1787,0.4721 0,0.0932 0.0087,0.1574 0.0269,0.1926 0.0182,0.0352 0.0538,0.0559 0.1047,0.0621 0.221,-0.0745 0.4228,-0.2246 0.6053,-0.4473 z m 0.2421,0.6575 c -0.023,0 -0.0423,-0.0155 -0.0576,-0.0476 0.0269,-0.0621 0.0701,-0.1253 0.1278,-0.1905 0.0576,-0.0652 0.1162,-0.1326 0.1768,-0.2009 0.0605,-0.0694 0.1047,-0.1336 0.1335,-0.1926 0.0634,-0.0487 0.123,-0.1128 0.1787,-0.1926 0.0173,0 0.0327,0.0124 0.0442,0.0394 0.0125,0.0269 0.025,0.0632 0.0365,0.1097 0.0115,0.0456 0.0192,0.0725 0.0231,0.0798 0,0.06 -0.0192,0.1118 -0.0577,0.1553 -0.0384,0.0424 -0.0903,0.0849 -0.1566,0.1273 -0.0653,0.0414 -0.1076,0.0715 -0.1258,0.0901 -0.027,0.0135 -0.0817,0.0538 -0.1643,0.1211 -0.0827,0.0684 -0.1355,0.1015 -0.1586,0.1015 z"
   id="path45"
   style="fill:currentColor" />
  <path
   class="fil3"
   d="m 27.4706,45.5357 c -0.0202,0.0611 -0.099,0.0922 -0.2364,0.0922 -0.0691,0 -0.1114,-0.0083 -0.1268,-0.0238 0,0 -0.0057,-0.0228 -0.0163,-0.0684 0.0067,-0.0259 0.0106,-0.0548 0.0106,-0.0869 0,-0.0332 -0.0039,-0.058 -0.0106,-0.0756 0.0048,-0.0549 0.0183,-0.1202 0.0404,-0.1957 0.023,-0.0756 0.0374,-0.1346 0.0451,-0.176 0,-0.0156 0.0269,-0.1046 0.0817,-0.2661 0.0134,-0.0528 0.0211,-0.1046 0.025,-0.1543 0.0029,-0.0497 0.0057,-0.0756 0.0086,-0.0766 0.0307,-0.0549 0.0461,-0.1087 0.0461,-0.1626 0,-0.0321 -0.0154,-0.0487 -0.0461,-0.0487 -0.0624,0 -0.1086,0.0249 -0.1374,0.0746 -0.0567,0.0818 -0.1114,0.1543 -0.1652,0.2154 -0.0529,0.0621 -0.1057,0.1221 -0.1576,0.1822 -0.0615,0.0663 -0.0961,0.1004 -0.1038,0.1004 -0.0077,-0.0093 -0.0115,-0.0217 -0.0115,-0.0383 0,-0.0352 0.0019,-0.0911 0.0058,-0.1687 0.0038,-0.0767 0.0057,-0.1326 0.0057,-0.1668 0,-0.06 0.0231,-0.1108 0.0692,-0.1501 0.0413,-0.0973 0.1287,-0.2184 0.2594,-0.3655 0.1307,-0.146 0.2095,-0.2371 0.2354,-0.2723 0.0922,-0.1159 0.1748,-0.2061 0.2469,-0.2702 0.073,-0.0653 0.1557,-0.0974 0.2488,-0.0974 0.1346,0 0.2028,0.1098 0.2028,0.3293 0,0.0849 -0.0154,0.1812 -0.0471,0.2899 -0.0307,0.1077 -0.0461,0.1605 -0.0461,0.1574 -0.0087,0.0383 -0.0384,0.1398 -0.0894,0.3044 -0.0509,0.1657 -0.0768,0.2713 -0.0768,0.3179 0.0154,0 0.0307,-0.0093 0.0461,-0.028 0.0163,-0.0176 0.0356,-0.0435 0.0577,-0.0766 0.0221,-0.0342 0.0461,-0.0694 0.0739,-0.1077 0.0567,-0.0745 0.1508,-0.1688 0.2825,-0.2858 0.0884,-0.117 0.172,-0.2091 0.2508,-0.2775 0.0787,-0.0672 0.1681,-0.1014 0.269,-0.1014 0.0538,0 0.1134,0.0124 0.1787,0.0383 0.0153,0.03 0.0413,0.0735 0.0768,0.1315 0.0356,0.058 0.0615,0.1066 0.0779,0.147 0.0144,0.028 0.0432,0.0974 0.0835,0.2112 0.0404,0.1129 0.0788,0.1792 0.1134,0.1988 0.024,0.0125 0.0404,0.0207 0.0471,0.0239 0.0067,0.003 0.0163,0.0072 0.0279,0.0134 0.0374,-0.0134 0.0826,-0.0518 0.1364,-0.1139 0.0529,-0.0611 0.0941,-0.0963 0.122,-0.1046 0,0.2206 0.0077,0.3448 0.024,0.3738 -0.1892,0.2599 -0.3622,0.3945 -0.5197,0.4028 -0.0798,-0.0145 -0.1355,-0.0394 -0.1672,-0.0735 -0.0308,-0.0249 -0.0663,-0.0725 -0.1057,-0.1419 -0.0404,-0.0704 -0.0778,-0.1367 -0.1134,-0.1988 -0.0355,-0.0621 -0.0721,-0.1066 -0.1085,-0.1315 -0.0308,-0.0869 -0.0712,-0.1304 -0.1211,-0.1304 -0.0385,0 -0.1105,0.0517 -0.2153,0.1543 -0.1037,0.1024 -0.194,0.1832 -0.2689,0.2433 -0.027,0.0662 -0.0673,0.1325 -0.1201,0.1977 -0.0519,0.0663 -0.123,0.146 -0.2124,0.2402 -0.0903,0.0942 -0.1489,0.1595 -0.1758,0.1957 z"
   id="path46"
   style="fill:currentColor" />
  <path
   class="fil3"
   d="m 29.5171,44.8151 c 0,-0.0176 -0.0019,-0.0477 -0.0057,-0.088 -0.0039,-0.0404 -0.0058,-0.0704 -0.0058,-0.0922 0,-0.176 0.1345,-0.3665 0.4035,-0.5715 0.0538,-0.1098 0.171,-0.2381 0.3526,-0.3852 0.0942,-0.0952 0.2556,-0.2423 0.4833,-0.4421 0.1508,-0.1118 0.2661,-0.1915 0.3459,-0.2381 0.0807,-0.0477 0.1633,-0.0704 0.2488,-0.0704 0.0567,0.0113 0.1028,0.0548 0.1374,0.1304 0,0.0414 -0.0173,0.0963 -0.0528,0.1646 -0.0366,0.0694 -0.0971,0.1191 -0.1835,0.1523 -0.0414,0.0755 -0.1278,0.1728 -0.2585,0.2909 -0.0355,0.0166 -0.0759,0.0559 -0.1211,0.1201 -0.0461,0.0632 -0.0893,0.1046 -0.1287,0.1222 -0.0269,0.059 -0.0538,0.1025 -0.0798,0.1304 -0.0172,0.0187 -0.0412,0.0383 -0.0729,0.0601 -0.0327,0.0217 -0.0481,0.0352 -0.0481,0.0393 -0.0307,0.0601 -0.0951,0.1419 -0.1912,0.2465 -0.0961,0.1035 -0.146,0.1584 -0.1499,0.1636 -0.0086,0.0227 -0.0192,0.0465 -0.0298,0.0714 -0.0105,0.0248 -0.0192,0.0435 -0.025,0.057 -0.0057,0.0134 -0.0105,0.0248 -0.0134,0.0331 0,0 0.0029,0.0041 0.0106,0.0114 0.0749,-0.0176 0.1383,-0.0497 0.1892,-0.0953 0.0519,-0.0456 0.1269,-0.1201 0.2259,-0.2236 0.0989,-0.1036 0.1758,-0.1709 0.2315,-0.202 0.0499,-0.0962 0.122,-0.177 0.2133,-0.2433 0.0922,-0.0652 0.1863,-0.0983 0.2815,-0.0983 0.0298,0 0.0538,0.0155 0.0701,0.0476 0.0164,0.0321 0.0289,0.0694 0.0375,0.1108 0.0096,0.0424 0.0182,0.0818 0.0259,0.1211 -0.0153,0.0766 -0.0269,0.1409 -0.0345,0.1926 0,0.0777 0.0201,0.1419 0.0595,0.1926 0.0404,0.0497 0.0913,0.0798 0.1537,0.088 0.0942,-0.0197 0.1883,-0.0797 0.2816,-0.1812 0.0105,0 0.0172,0.0083 0.0211,0.0249 0.0038,0.0176 0.0067,0.0414 0.0077,0.0745 9e-4,0.0331 0.0029,0.0642 0.0067,0.0932 0,0.0259 -0.0077,0.0549 -0.0221,0.087 0,0.0725 -0.0288,0.1418 -0.0846,0.207 -0.0567,0.0663 -0.122,0.1191 -0.1969,0.1595 -0.0759,0.0404 -0.1393,0.0632 -0.1922,0.0684 -0.0057,-0.0032 -0.0163,-0.0062 -0.0307,-0.0104 -0.0135,-0.0042 -0.0269,-0.0093 -0.0375,-0.0155 -0.0279,0 -0.0567,0.0051 -0.0874,0.0134 -0.0807,-0.0072 -0.1509,-0.0445 -0.2094,-0.1097 -0.0587,-0.0652 -0.0904,-0.1377 -0.0961,-0.2185 -0.0068,-0.0414 -0.0125,-0.086 -0.0183,-0.1325 -0.0058,-0.0466 -0.0106,-0.0808 -0.0154,-0.1026 -0.0048,-0.0217 -0.0124,-0.0372 -0.024,-0.0455 -0.0134,0 -0.0471,0.0249 -0.1028,0.0766 -0.0557,0.0508 -0.096,0.0963 -0.122,0.1357 -0.0096,0.0124 -0.0212,0.0217 -0.0346,0.0258 -0.0125,0.0052 -0.0259,0.0104 -0.0403,0.0166 -0.1134,0.1543 -0.2076,0.2475 -0.2835,0.2806 -0.0288,0.0621 -0.0913,0.1305 -0.1873,0.204 -0.0961,0.0746 -0.1778,0.1108 -0.2441,0.1108 -0.0528,0.0259 -0.0855,0.0383 -0.097,0.0383 -0.1557,0 -0.2469,-0.1015 -0.2719,-0.3044 0.0077,-0.0166 0.0115,-0.0373 0.0115,-0.0632 0,-0.03 0.0096,-0.0631 0.0289,-0.0983 0.0191,-0.0353 0.0287,-0.058 0.0287,-0.0684 0,-0.028 -0.0192,-0.0487 -0.0576,-0.0621 z"
   id="path47"
   style="fill:currentColor" />
  <path
   class="fil3"
   d="m 33.4295,45.4115 c -0.0384,-0.3262 -0.0615,-0.5208 -0.0692,-0.584 0.0164,-0.1677 0.024,-0.3002 0.024,-0.3976 0,-0.0176 0.0058,-0.0404 0.0173,-0.0693 0.0106,-0.0301 0.0164,-0.0518 0.0164,-0.0674 v -0.0683 -0.1367 c 0.0076,-0.0331 0.0115,-0.0849 0.0115,-0.1553 0,-0.0911 0.0154,-0.235 0.0461,-0.4297 0.0317,-0.1946 0.0471,-0.3437 0.0471,-0.4462 0,-0.0891 -0.0096,-0.1595 -0.0279,-0.2123 -0.0182,-0.0538 -0.0403,-0.0797 -0.0653,-0.0797 0,-0.0052 -0.0019,-0.0207 -0.0058,-0.0476 -0.0038,-0.0259 -0.0057,-0.0497 -0.0057,-0.0715 0.0019,-0.0165 0.0105,-0.059 0.025,-0.1273 0.0144,-0.0674 0.0221,-0.1181 0.0221,-0.1512 0,-0.0176 -0.0077,-0.0424 -0.0231,-0.0745 0.0086,-0.0332 0.0327,-0.1222 0.073,-0.2651 0.0394,-0.1439 0.074,-0.2723 0.1048,-0.3872 0.046,-0.1585 0.0989,-0.2786 0.1584,-0.3583 0.0606,-0.0808 0.1422,-0.1211 0.2451,-0.1211 0.0941,-0.0611 0.1672,-0.0922 0.22,-0.0922 0.0643,0 0.097,0.0559 0.097,0.1667 0,0.089 -0.0202,0.2143 -0.0605,0.3748 -0.0404,0.1605 -0.0606,0.2433 -0.0606,0.2475 0,0.09 -0.0076,0.1781 -0.023,0.265 -0.0144,0.087 -0.0384,0.1988 -0.0711,0.3355 -0.0326,0.1377 -0.0547,0.235 -0.0663,0.2941 0.0038,0.0031 0.0058,0.0062 0.0077,0.0083 0.0019,0.002 0.0029,0.0041 0.0029,0.0041 -0.1115,0.4721 -0.1672,0.9174 -0.1672,1.3356 0,0.0756 -0.0125,0.1968 -0.0384,0.3614 -0.025,0.1657 -0.0394,0.2744 -0.0414,0.3272 0,0.174 0.026,0.3562 0.0798,0.5478 -0.0039,0.0486 -0.0307,0.0869 -0.0807,0.1148 -0.0499,0.0291 -0.0903,0.0663 -0.1201,0.114 -0.0442,0.0175 -0.0865,0.0259 -0.1268,0.0259 -0.0846,0 -0.1326,-0.0601 -0.1451,-0.1802 z"
   id="path48"
   style="fill:currentColor" />
  <path
   class="fil3"
   d="m 35.0714,45.5357 c -0.0202,0.0611 -0.099,0.0922 -0.2364,0.0922 -0.0691,0 -0.1114,-0.0083 -0.1268,-0.0238 0,0 -0.0057,-0.0228 -0.0163,-0.0684 0.0067,-0.0259 0.0106,-0.0548 0.0106,-0.0869 0,-0.0332 -0.0039,-0.058 -0.0106,-0.0756 0.0048,-0.0549 0.0183,-0.1202 0.0404,-0.1957 0.023,-0.0756 0.0374,-0.1346 0.0451,-0.176 0,-0.0156 0.0269,-0.1046 0.0817,-0.2661 0.0134,-0.0528 0.0211,-0.1046 0.025,-0.1543 0.0029,-0.0497 0.0057,-0.0756 0.0086,-0.0766 0.0307,-0.0549 0.0461,-0.1087 0.0461,-0.1626 0,-0.0321 -0.0154,-0.0487 -0.0461,-0.0487 -0.0624,0 -0.1086,0.0249 -0.1374,0.0746 -0.0567,0.0818 -0.1114,0.1543 -0.1652,0.2154 -0.0529,0.0621 -0.1057,0.1221 -0.1576,0.1822 -0.0615,0.0663 -0.0961,0.1004 -0.1038,0.1004 -0.0077,-0.0093 -0.0115,-0.0217 -0.0115,-0.0383 0,-0.0352 0.0019,-0.0911 0.0058,-0.1687 0.0038,-0.0767 0.0057,-0.1326 0.0057,-0.1668 0,-0.06 0.0231,-0.1108 0.0692,-0.1501 0.0413,-0.0973 0.1287,-0.2184 0.2594,-0.3655 0.1307,-0.146 0.2095,-0.2371 0.2354,-0.2723 0.0922,-0.1159 0.1748,-0.2061 0.2469,-0.2702 0.073,-0.0653 0.1557,-0.0974 0.2488,-0.0974 0.1346,0 0.2028,0.1098 0.2028,0.3293 0,0.0849 -0.0154,0.1812 -0.0471,0.2899 -0.0307,0.1077 -0.0461,0.1605 -0.0461,0.1574 -0.0087,0.0383 -0.0384,0.1398 -0.0894,0.3044 -0.0509,0.1657 -0.0768,0.2713 -0.0768,0.3179 0.0154,0 0.0307,-0.0093 0.0461,-0.028 0.0163,-0.0176 0.0356,-0.0435 0.0577,-0.0766 0.0221,-0.0342 0.0461,-0.0694 0.0739,-0.1077 0.0567,-0.0745 0.1508,-0.1688 0.2825,-0.2858 0.0884,-0.117 0.172,-0.2091 0.2508,-0.2775 0.0787,-0.0672 0.1681,-0.1014 0.269,-0.1014 0.0538,0 0.1134,0.0124 0.1787,0.0383 0.0153,0.03 0.0413,0.0735 0.0768,0.1315 0.0356,0.058 0.0615,0.1066 0.0779,0.147 0.0144,0.028 0.0432,0.0974 0.0835,0.2112 0.0404,0.1129 0.0788,0.1792 0.1134,0.1988 0.024,0.0125 0.0404,0.0207 0.0471,0.0239 0.0067,0.003 0.0163,0.0072 0.0279,0.0134 0.0374,-0.0134 0.0826,-0.0518 0.1364,-0.1139 0.0529,-0.0611 0.0941,-0.0963 0.122,-0.1046 0,0.2206 0.0077,0.3448 0.024,0.3738 -0.1892,0.2599 -0.3622,0.3945 -0.5197,0.4028 C 36.6,45.1661 36.5443,45.1412 36.5126,45.1071 36.4818,45.0822 36.4463,45.0346 36.4069,44.9652 36.3665,44.8948 36.3291,44.8285 36.2935,44.7664 36.258,44.7043 36.2214,44.6598 36.185,44.6349 36.1542,44.548 36.1138,44.5045 36.0639,44.5045 c -0.0385,0 -0.1105,0.0517 -0.2153,0.1543 -0.1037,0.1024 -0.194,0.1832 -0.2689,0.2433 -0.027,0.0662 -0.0673,0.1325 -0.1201,0.1977 -0.0519,0.0663 -0.123,0.146 -0.2124,0.2402 -0.0903,0.0942 -0.1489,0.1595 -0.1758,0.1957 z"
   id="path49"
   style="fill:currentColor" />
  <path
   class="fil3"
   d="m 37.9605,47.1696 c -0.0394,0.0166 -0.0797,0.0259 -0.121,0.0259 -0.0779,0 -0.1346,-0.0249 -0.1701,-0.0735 -0.0355,-0.0487 -0.0653,-0.1202 -0.0903,-0.2154 -0.024,-0.0963 -0.0432,-0.1574 -0.0557,-0.1843 v -0.0508 c -0.0365,-0.1615 -0.0663,-0.586 -0.0875,-1.2724 0.0087,-0.1202 0.0125,-0.3065 0.0125,-0.5591 0,-0.1429 -0.0077,-0.2237 -0.024,-0.2434 -0.0115,0 -0.0547,0.0342 -0.1287,0.1005 -0.0731,0.0673 -0.124,0.1097 -0.1528,0.1304 -0.0125,0.0093 -0.0365,0.0301 -0.0701,0.0622 -0.0221,-0.0125 -0.0336,-0.0249 -0.0336,-0.0384 0.0115,-0.0362 0.0221,-0.0911 0.0336,-0.1667 -0.0077,-0.0497 -0.0115,-0.1097 -0.0115,-0.1801 0.0028,-0.0042 0.0557,-0.0622 0.1575,-0.174 0.1028,-0.1128 0.1672,-0.1926 0.1941,-0.2412 0.0403,-0.0881 0.1076,-0.2257 0.2017,-0.4111 0,-0.0124 -0.0076,-0.147 -0.023,-0.4038 0.0519,-0.7268 0.1979,-1.3522 0.4372,-1.8761 0.0634,-0.1688 0.1239,-0.3045 0.1835,-0.4069 0.0595,-0.1015 0.1402,-0.1533 0.243,-0.1533 0.123,0 0.1855,0.0652 0.1855,0.1936 0,0.1056 0.0086,0.2278 0.0278,0.3666 0,0.1294 -0.0087,0.265 -0.0259,0.4069 -0.0173,0.1428 -0.0452,0.35 -0.0836,0.6243 -0.0202,0.0798 -0.0442,0.1781 -0.0721,0.2941 -0.0278,0.117 -0.0567,0.2216 -0.0855,0.3147 -0.0288,0.0922 -0.0643,0.1843 -0.1047,0.2744 -0.0404,0.0911 -0.0913,0.1791 -0.1528,0.2661 -0.0413,0.057 -0.0768,0.1667 -0.1085,0.3282 -0.0317,0.1616 -0.0577,0.3428 -0.0779,0.5426 -0.0201,0.2009 -0.0403,0.4401 -0.0605,0.7196 0,0.058 -0.0038,0.1056 -0.0115,0.1419 0.0153,0.2329 0.0221,0.3468 0.0221,0.3427 0,-0.0052 -0.0068,0.1014 -0.0221,0.3179 0.0163,0.1801 0.0317,0.3085 0.0461,0.3851 0,0.0073 0.0038,0.0114 0.0115,0.0114 0.0298,0 0.0731,-0.059 0.1297,-0.1781 0.0558,-0.1191 0.0971,-0.233 0.123,-0.3437 0.0336,-0.1305 0.0625,-0.2403 0.0846,-0.3283 0.023,-0.089 0.048,-0.1719 0.0778,-0.2495 0.0096,-0.0414 0.024,-0.1139 0.0413,-0.2185 0.0173,-0.1035 0.0356,-0.1656 0.0557,-0.1843 0,-0.0797 0.0462,-0.1367 0.1384,-0.1687 0.0317,0 0.0471,0.0476 0.0471,0.1429 0,0.0911 -0.0087,0.1553 -0.0241,0.1925 0.0106,0 0.0211,0.0228 0.0317,0.0673 0.0096,0.0446 0.0145,0.0766 0.0145,0.0953 0,0.1056 -0.0308,0.2588 -0.0913,0.4587 -0.0605,0.2008 -0.0961,0.3271 -0.1038,0.38 -0.0471,0.2381 -0.1547,0.5446 -0.3238,0.9183 -0.0672,0.116 -0.1287,0.1874 -0.1835,0.2175 z m 0.3738,-4.9388 c 0,-0.0115 0.0096,-0.0788 0.0288,-0.202 0.0192,-0.1221 0.0288,-0.2123 0.0288,-0.2692 0,-0.0507 -0.0115,-0.0766 -0.0336,-0.0766 v 0 c -0.0211,0.0176 -0.0586,0.1046 -0.1124,0.2609 -0.0548,0.1574 -0.0999,0.2734 -0.1355,0.349 -0.0048,0.0196 -0.0154,0.0652 -0.0327,0.1366 -0.0172,0.0725 -0.0336,0.1232 -0.0489,0.1553 v 0.0746 c 0,0.0859 -0.0106,0.1542 -0.0337,0.206 0,0.0611 -0.0038,0.1129 -0.0115,0.1543 0,0.0942 0.0115,0.148 0.0346,0.1626 0.0182,-0.0104 0.0374,-0.0601 0.0576,-0.1502 0.0461,-0.0259 0.1009,-0.1346 0.1643,-0.3251 0.0625,-0.1894 0.0942,-0.3489 0.0942,-0.4762 z"
   id="path50"
   style="fill:currentColor" />
  <path
   class="fil3"
   d="m 39.2114,45.338 c -0.1076,-0.0425 -0.1739,-0.1315 -0.2018,-0.2672 0,-0.0258 -0.0038,-0.0445 -0.0105,-0.0569 0.0105,-0.0487 0.0201,-0.1232 0.0268,-0.2216 0.0068,-0.0994 0.0174,-0.176 0.0308,-0.2319 -0.0298,0 -0.0605,0.0134 -0.0922,0.0393 -0.0327,0.0249 -0.0721,0.0632 -0.1182,0.1129 -0.0471,0.0507 -0.0807,0.0859 -0.1028,0.1077 -0.0221,0.0207 -0.0423,0.031 -0.0615,0.031 v -0.0362 c 0,-0.0456 0.0077,-0.1015 0.0221,-0.1677 C 38.7003,44.636 38.6954,44.6256 38.6916,44.6163 38.6868,44.608 38.6839,44.6008 38.682,44.5966 V 44.492 c 0.0394,-0.0641 0.1393,-0.1781 0.2997,-0.3406 0.1605,-0.1636 0.2701,-0.2692 0.3277,-0.3179 0.0327,-0.0621 0.0778,-0.1242 0.1335,-0.1843 0.0567,-0.06 0.1278,-0.1273 0.2133,-0.2019 0.0865,-0.0735 0.1508,-0.1315 0.195,-0.1729 0.0155,-0.0083 0.0423,-0.0124 0.0808,-0.0124 0.1191,0 0.1787,0.0248 0.1787,0.0745 0,0.0042 -0.0106,0.029 -0.0317,0.0756 -0.0212,0.0466 -0.0337,0.0777 -0.0375,0.0932 0.0336,0 0.0865,-0.0155 0.1595,-0.0476 0.073,-0.0311 0.1335,-0.0466 0.1806,-0.0466 0.1557,0.0134 0.2729,0.0777 0.3517,0.1925 0,0.0084 0.0105,0.0415 0.0317,0.1005 0.0211,0.058 0.0316,0.118 0.0316,0.1791 0,0.1667 -0.024,0.32 -0.0739,0.4587 -0.0202,0.0549 -0.0586,0.1243 -0.1163,0.2071 -0.0576,0.0828 -0.0884,0.1398 -0.0922,0.1729 -0.0058,0.0083 -0.0327,0.0363 -0.0826,0.0839 -0.049,0.0476 -0.0807,0.0931 -0.0961,0.1346 -0.1403,0.1387 -0.2402,0.234 -0.2998,0.2878 -0.0595,0.0539 -0.1345,0.1036 -0.2257,0.1512 -0.0914,0.0466 -0.1893,0.0704 -0.2921,0.0704 -0.1787,0 -0.2806,-0.0373 -0.3065,-0.1118 z m 1.0549,-0.7528 c 0.025,-0.0269 0.051,-0.1025 0.0807,-0.2298 0.0077,-0.0331 0.0125,-0.0808 0.0125,-0.1439 0,-0.1606 -0.0596,-0.2413 -0.1787,-0.2413 -0.0615,0 -0.1066,0.0124 -0.1374,0.0373 -0.0307,0.0238 -0.0788,0.0714 -0.146,0.1439 -0.0548,0.1025 -0.1182,0.1543 -0.1893,0.1543 -0.0961,0.1232 -0.1557,0.2805 -0.1787,0.4721 0,0.0932 0.0087,0.1574 0.0269,0.1926 0.0182,0.0352 0.0538,0.0559 0.1047,0.0621 0.221,-0.0745 0.4228,-0.2246 0.6053,-0.4473 z m 0.2421,0.6575 c -0.023,0 -0.0423,-0.0155 -0.0576,-0.0476 0.0269,-0.0621 0.0701,-0.1253 0.1278,-0.1905 0.0576,-0.0652 0.1162,-0.1326 0.1768,-0.2009 0.0605,-0.0694 0.1047,-0.1336 0.1335,-0.1926 0.0634,-0.0487 0.123,-0.1128 0.1787,-0.1926 0.0173,0 0.0327,0.0124 0.0442,0.0394 0.0125,0.0269 0.025,0.0632 0.0365,0.1097 0.0115,0.0456 0.0192,0.0725 0.0231,0.0798 0,0.06 -0.0192,0.1118 -0.0577,0.1553 -0.0384,0.0424 -0.0903,0.0849 -0.1566,0.1273 -0.0653,0.0414 -0.1076,0.0715 -0.1258,0.0901 -0.027,0.0135 -0.0817,0.0538 -0.1643,0.1211 -0.0827,0.0684 -0.1355,0.1015 -0.1586,0.1015 z"
   id="path51"
   style="fill:currentColor" />
  <path
   class="fil3"
   d="m 41.0331,44.7892 c 0,-0.0021 -0.0019,-0.0259 -0.0058,-0.0704 -0.0029,-0.0456 -0.0048,-0.087 -0.0048,-0.1222 V 44.492 c 0.0106,-0.0176 0.0327,-0.0476 0.0663,-0.089 0.0336,-0.0404 0.0605,-0.0777 0.0807,-0.1098 0.0211,-0.0331 0.0317,-0.0641 0.0317,-0.0942 0.0038,-0.0072 0.0269,-0.0383 0.0692,-0.0921 0.0432,-0.0539 0.0692,-0.0891 0.0797,-0.1067 0.0125,-0.0103 0.0356,-0.0487 0.0701,-0.1149 0.0346,-0.0652 0.0635,-0.1077 0.0865,-0.1274 -0.0019,-0.0144 -0.0048,-0.029 -0.0086,-0.0445 -0.0038,-0.0145 -0.0077,-0.03 -0.0116,-0.0455 -0.0038,-0.0156 -0.0067,-0.0311 -0.0105,-0.0477 -0.0029,-0.0155 -0.0048,-0.029 -0.0048,-0.0414 0,-0.0083 0.0307,-0.0352 0.0932,-0.0808 0.0624,-0.0465 0.0989,-0.0755 0.1076,-0.088 0.0701,-0.0745 0.145,-0.1118 0.2258,-0.1118 0.1085,0 0.2296,0.0683 0.3631,0.2061 0.0183,0.0404 0.0375,0.061 0.0567,0.061 0.0259,0.0311 0.0471,0.0777 0.0634,0.1377 0.0846,0.086 0.1268,0.26 0.1268,0.5219 0,0.086 -0.0288,0.2081 -0.0864,0.3665 -0.0577,0.1585 -0.0884,0.262 -0.0922,0.3107 0.0038,0.0062 0.0076,0.0165 0.0124,0.0321 0.0039,0.0155 0.0077,0.0258 0.0116,0.03 0.0249,0 0.0787,-0.028 0.1595,-0.0828 0.0807,-0.0549 0.1575,-0.117 0.2315,-0.1843 0.1009,-0.0808 0.1643,-0.1429 0.1902,-0.1864 0.0154,-0.0373 0.0318,-0.0559 0.0461,-0.0559 0.0241,0 0.0356,0.0228 0.0356,0.0683 v 0.0373 c 0.0221,0.0331 0.0336,0.0963 0.0336,0.1864 0,0.0082 -0.0172,0.0372 -0.0509,0.0859 -0.0346,0.0497 -0.0519,0.089 -0.0519,0.1191 -0.0221,0 -0.0999,0.0569 -0.2315,0.1708 -0.1316,0.1139 -0.2123,0.1812 -0.2412,0.203 -0.0345,0.0103 -0.0951,0.0414 -0.1796,0.0952 -0.0855,0.0539 -0.1441,0.089 -0.1758,0.1066 -0.0327,0.0176 -0.0635,0.027 -0.0942,0.027 -0.074,0 -0.1288,-0.0114 -0.1653,-0.0332 -0.0374,-0.0217 -0.0653,-0.0621 -0.0826,-0.1211 0.0125,-0.0953 0.0442,-0.2278 0.0961,-0.3976 0.0519,-0.1688 0.0884,-0.294 0.1095,-0.3758 0.0202,-0.0819 0.0307,-0.1761 0.0307,-0.2848 0,-0.0766 -0.0153,-0.1574 -0.047,-0.2433 -0.0317,-0.0849 -0.0788,-0.1284 -0.1432,-0.1284 h -0.0115 c -0.0548,0.0166 -0.1067,0.0497 -0.1537,0.1015 -0.0471,0.0507 -0.0999,0.1201 -0.1586,0.2071 -0.0576,0.0869 -0.1037,0.1491 -0.1373,0.1874 -0.0154,0.0196 -0.0375,0.0445 -0.0654,0.0735 -0.0288,0.03 -0.05,0.0538 -0.0615,0.0714 -0.0134,0.0156 -0.0355,0.0435 -0.0663,0.0828 -0.0307,0.0394 -0.0595,0.0735 -0.0845,0.1026 -0.025,0.0289 -0.0423,0.0435 -0.0509,0.0435 z"
   id="path52"
   style="fill:currentColor" />
  <path
   class="fil3"
   d="m 43.5003,45.3877 c -0.0086,0.0041 -0.0249,0.0093 -0.0499,0.0134 -0.025,0.0042 -0.0432,0.0073 -0.0538,0.0104 -0.074,-0.0156 -0.1105,-0.0529 -0.1105,-0.1118 0,-0.0456 0.0096,-0.1077 0.0279,-0.1854 0.0182,-0.0766 0.0461,-0.1781 0.0826,-0.3034 0.0375,-0.1242 0.0634,-0.2174 0.0797,-0.2774 0.0164,-0.0601 0.024,-0.1118 0.024,-0.1543 0,-0.0415 -0.0038,-0.0621 -0.0115,-0.0621 -0.0374,0 -0.0787,0.0217 -0.1248,0.0662 -0.0462,0.0435 -0.1009,0.1077 -0.1653,0.1916 -0.0644,0.0828 -0.1163,0.146 -0.1556,0.1895 -0.0395,0.0424 -0.075,0.0683 -0.1067,0.0745 0,-0.0683 -0.0029,-0.1377 -0.0068,-0.2081 -0.0038,-0.0704 -0.0066,-0.1211 -0.0066,-0.1512 0.0374,-0.0652 0.0835,-0.1304 0.1373,-0.1946 0.0538,-0.0642 0.123,-0.1409 0.2076,-0.2289 0.0845,-0.088 0.1393,-0.1459 0.1633,-0.1749 0.1288,-0.1564 0.2306,-0.2724 0.3075,-0.3479 0.0759,-0.0746 0.1614,-0.1119 0.2574,-0.1119 0.1038,0 0.1557,0.0518 0.1557,0.1564 0,0.0683 -0.0048,0.1325 -0.0154,0.1915 -0.0106,0.058 -0.0259,0.1346 -0.0461,0.2278 -0.0211,0.0932 -0.0346,0.1636 -0.0423,0.2133 0.0058,0.0063 0.0106,0.0114 0.0144,0.0166 0.0048,0.0041 0.0077,0.0072 0.0096,0.0093 0.0221,0 0.0653,-0.029 0.1278,-0.086 0.0625,-0.0579 0.1566,-0.1511 0.2796,-0.2785 0.124,-0.1283 0.1989,-0.205 0.2258,-0.2319 0.1066,-0.1149 0.1777,-0.1916 0.2142,-0.2278 0.0366,-0.0362 0.0759,-0.0662 0.1201,-0.0911 0.0442,-0.0238 0.0942,-0.0362 0.149,-0.0362 0.0364,0 0.0682,0.0279 0.0941,0.0849 0.026,0.0559 0.0385,0.1211 0.0385,0.1946 0,0.0849 -0.0106,0.1802 -0.0308,0.2858 -0.0202,0.1056 -0.0394,0.2123 -0.0596,0.3189 -0.0201,0.1066 -0.0307,0.2019 -0.0307,0.2848 0.024,-0.0094 0.0557,-0.0373 0.0941,-0.085 0.0385,-0.0476 0.0596,-0.0724 0.0625,-0.0756 0.1143,-0.1242 0.2229,-0.2215 0.3267,-0.292 0.1037,-0.0714 0.2161,-0.1066 0.3362,-0.1066 0.0327,0.0072 0.0769,0.0477 0.1307,0.1212 0.0547,0.0735 0.0893,0.1491 0.1057,0.2267 0.0125,0.0725 0.0499,0.1512 0.1143,0.2381 0.0634,0.086 0.124,0.1295 0.1797,0.1295 0.0298,0 0.0567,-0.0093 0.0835,-0.029 0.026,-0.0187 0.0577,-0.0476 0.0933,-0.087 0.0365,-0.0393 0.0624,-0.0662 0.0787,-0.0808 0.0164,-0.0144 0.0337,-0.0217 0.05,-0.0217 0,0.0673 -0.0039,0.1149 -0.0106,0.1429 0.0145,0.1335 0.0221,0.2143 0.0221,0.2423 0,0.0662 -0.0269,0.1201 -0.0797,0.1615 -0.0529,0.0425 -0.1287,0.0818 -0.2267,0.1191 -0.098,0.0383 -0.1499,0.0579 -0.1557,0.0611 C 46.3664,45.1123 46.2837,45.077 46.1579,45.0139 46.1195,44.9901 46.0637,44.93 45.9917,44.8317 45.9206,44.7333 45.8581,44.6598 45.8053,44.6101 45.7534,44.5594 45.69,44.5345 45.616,44.5345 c -0.0221,0 -0.0663,0.0249 -0.1326,0.0756 -0.0672,0.0507 -0.1249,0.1066 -0.1729,0.1677 -0.0538,0.0735 -0.1432,0.1864 -0.2671,0.3386 -0.1249,0.1522 -0.2085,0.2464 -0.2517,0.2827 -0.0471,0.0579 -0.1067,0.0869 -0.1788,0.0869 -0.0528,0 -0.0931,-0.0372 -0.121,-0.1128 0,-0.0818 0.0096,-0.1636 0.0279,-0.2444 0.0182,-0.0818 0.048,-0.1905 0.0883,-0.3271 0.0414,-0.1357 0.0711,-0.2455 0.0903,-0.3303 0.0193,-0.084 0.0289,-0.1709 0.0289,-0.261 v -0.0362 h -0.0452 c -0.0355,0 -0.0662,0.0103 -0.0932,0.031 -0.0259,0.0207 -0.0576,0.0539 -0.0941,0.0994 -0.0365,0.0446 -0.0682,0.0787 -0.0961,0.1025 -0.0279,0.0228 -0.0586,0.0342 -0.0922,0.0342 -0.0317,0.057 -0.1221,0.1698 -0.2691,0.3386 -0.1479,0.1677 -0.244,0.2857 -0.2891,0.352 -0.1509,0.1626 -0.2325,0.2475 -0.248,0.2558 z"
   id="path53"
   style="fill:currentColor" />
  <path
   class="fil3"
   d="m 46.8208,44.8151 c 0,-0.0176 -0.0019,-0.0477 -0.0057,-0.088 -0.0039,-0.0404 -0.0058,-0.0704 -0.0058,-0.0922 0,-0.176 0.1345,-0.3665 0.4035,-0.5715 0.0538,-0.1098 0.171,-0.2381 0.3526,-0.3852 0.0942,-0.0952 0.2556,-0.2423 0.4833,-0.4421 0.1508,-0.1118 0.2661,-0.1915 0.3459,-0.2381 0.0807,-0.0477 0.1633,-0.0704 0.2488,-0.0704 0.0567,0.0113 0.1028,0.0548 0.1374,0.1304 0,0.0414 -0.0173,0.0963 -0.0528,0.1646 -0.0366,0.0694 -0.0971,0.1191 -0.1835,0.1523 -0.0414,0.0755 -0.1278,0.1728 -0.2585,0.2909 -0.0355,0.0166 -0.0759,0.0559 -0.1211,0.1201 -0.0461,0.0632 -0.0893,0.1046 -0.1287,0.1222 -0.0269,0.059 -0.0538,0.1025 -0.0798,0.1304 -0.0172,0.0187 -0.0412,0.0383 -0.0729,0.0601 -0.0327,0.0217 -0.0481,0.0352 -0.0481,0.0393 -0.0307,0.0601 -0.0951,0.1419 -0.1912,0.2465 -0.0961,0.1035 -0.146,0.1584 -0.1499,0.1636 -0.0086,0.0227 -0.0192,0.0465 -0.0298,0.0714 -0.0105,0.0248 -0.0192,0.0435 -0.025,0.057 -0.0057,0.0134 -0.0105,0.0248 -0.0134,0.0331 0,0 0.0029,0.0041 0.0106,0.0114 0.0749,-0.0176 0.1383,-0.0497 0.1892,-0.0953 0.0519,-0.0456 0.1269,-0.1201 0.2259,-0.2236 0.0989,-0.1036 0.1758,-0.1709 0.2315,-0.202 0.0499,-0.0962 0.122,-0.177 0.2133,-0.2433 0.0922,-0.0652 0.1863,-0.0983 0.2815,-0.0983 0.0298,0 0.0538,0.0155 0.0701,0.0476 0.0164,0.0321 0.0289,0.0694 0.0375,0.1108 0.0096,0.0424 0.0182,0.0818 0.0259,0.1211 -0.0153,0.0766 -0.0269,0.1409 -0.0345,0.1926 0,0.0777 0.0201,0.1419 0.0595,0.1926 0.0404,0.0497 0.0913,0.0798 0.1537,0.088 0.0942,-0.0197 0.1883,-0.0797 0.2816,-0.1812 0.0105,0 0.0172,0.0083 0.0211,0.0249 0.0038,0.0176 0.0067,0.0414 0.0077,0.0745 9e-4,0.0331 0.0029,0.0642 0.0067,0.0932 0,0.0259 -0.0077,0.0549 -0.0221,0.087 0,0.0725 -0.0288,0.1418 -0.0846,0.207 -0.0567,0.0663 -0.122,0.1191 -0.1969,0.1595 -0.0759,0.0404 -0.1393,0.0632 -0.1922,0.0684 -0.0057,-0.0032 -0.0163,-0.0062 -0.0307,-0.0104 -0.0135,-0.0042 -0.0269,-0.0093 -0.0375,-0.0155 -0.0279,0 -0.0567,0.0051 -0.0874,0.0134 -0.0807,-0.0072 -0.1509,-0.0445 -0.2094,-0.1097 -0.0587,-0.0652 -0.0904,-0.1377 -0.0961,-0.2185 -0.0068,-0.0414 -0.0125,-0.086 -0.0183,-0.1325 -0.0058,-0.0466 -0.0106,-0.0808 -0.0154,-0.1026 -0.0048,-0.0217 -0.0124,-0.0372 -0.024,-0.0455 -0.0134,0 -0.0471,0.0249 -0.1028,0.0766 -0.0557,0.0508 -0.096,0.0963 -0.122,0.1357 -0.0096,0.0124 -0.0212,0.0217 -0.0346,0.0258 -0.0125,0.0052 -0.0259,0.0104 -0.0403,0.0166 -0.1134,0.1543 -0.2076,0.2475 -0.2835,0.2806 -0.0288,0.0621 -0.0913,0.1305 -0.1873,0.204 -0.0961,0.0746 -0.1778,0.1108 -0.2441,0.1108 -0.0528,0.0259 -0.0855,0.0383 -0.097,0.0383 -0.1557,0 -0.2469,-0.1015 -0.2719,-0.3044 0.0077,-0.0166 0.0115,-0.0373 0.0115,-0.0632 0,-0.03 0.0096,-0.0631 0.0289,-0.0983 0.0191,-0.0353 0.0287,-0.058 0.0287,-0.0684 0,-0.028 -0.0192,-0.0487 -0.0576,-0.0621 z m 1.666,-2.5595 c 0.1268,-0.1098 0.22,-0.1957 0.2796,-0.2589 0.0596,-0.0631 0.1239,-0.1511 0.1931,-0.263 0.0653,0 0.1297,0.0156 0.196,0.0487 0.0653,0.0321 0.098,0.0797 0.098,0.1439 0,0.0393 -0.0192,0.087 -0.0586,0.1439 -0.0384,0.057 -0.0615,0.0932 -0.0682,0.1109 -0.0394,0.0154 -0.0961,0.0507 -0.172,0.1056 -0.075,0.0538 -0.1364,0.0942 -0.1835,0.1211 -0.0471,0.0269 -0.0941,0.0404 -0.1403,0.0404 -0.0538,0.0465 -0.1162,0.0838 -0.1863,0.1139 -0.0712,0.03 -0.1509,0.0579 -0.2383,0.0838 -0.0875,0.0259 -0.1432,0.0446 -0.1682,0.057 -0.0817,-0.0187 -0.1278,-0.0663 -0.1393,-0.1429 0.0355,-0.029 0.0942,-0.0601 0.1739,-0.0921 0.0807,-0.0332 0.1547,-0.0643 0.2219,-0.0932 0.0682,-0.0301 0.1326,-0.0694 0.1922,-0.1191 z"
   id="path54"
   style="fill:currentColor" />
  <path
   class="fil3"
   d="m 49.7031,45.2572 c 0,-0.4898 0.0596,-0.8708 0.1787,-1.1441 v -0.0125 c 0,-0.0155 -0.0029,-0.0258 -0.0086,-0.031 -0.0058,-0.0041 -0.0096,-0.0062 -0.0135,-0.0062 -0.0634,0.0952 -0.1336,0.1874 -0.2104,0.2775 -0.0778,0.09 -0.1585,0.1791 -0.2441,0.2692 -0.0855,0.089 -0.1739,0.1822 -0.2661,0.2796 0,-0.0083 -0.0038,-0.0415 -0.0124,-0.1005 -0.0078,-0.058 -0.0116,-0.1098 -0.0116,-0.1543 0,-0.0652 0.0144,-0.1211 0.0423,-0.1698 0.0278,-0.0486 0.0711,-0.1035 0.1297,-0.1646 0.0586,-0.0611 0.0999,-0.1067 0.122,-0.1377 0.1489,-0.2154 0.3382,-0.5115 0.5659,-0.8884 0.0884,-0.1688 0.1316,-0.2702 0.1316,-0.3044 h -0.0797 c -0.0606,0 -0.1509,-0.0031 -0.2719,-0.0093 -0.1211,-0.0062 -0.2085,-0.0093 -0.2642,-0.0093 -0.0048,0 -0.0125,10e-4 -0.024,0.0031 -0.0116,0.002 -0.0183,0.0031 -0.0221,0.0031 -0.0548,-0.0031 -0.1096,-0.0176 -0.1653,-0.0435 -0.0547,-0.0259 -0.0827,-0.0508 -0.0827,-0.0746 0,-0.2277 0.0231,-0.3644 0.0692,-0.41 0.0183,-0.0165 0.0855,-0.0238 0.2009,-0.0238 0.0595,0 0.1479,0.0021 0.267,0.0062 0.1192,0.0031 0.2095,0.0052 0.2691,0.0052 0.023,0 0.0393,0.0041 0.0461,0.0124 0.0769,-0.0165 0.1152,-0.0238 0.1152,-0.0238 0.0164,0 0.0395,0.0073 0.0693,0.0238 0.0788,-0.0145 0.1373,-0.059 0.1758,-0.1346 0.0374,-0.0745 0.0797,-0.1646 0.1277,-0.2692 0.0471,-0.1046 0.1058,-0.177 0.1749,-0.2174 h 0.0115 c 0.0154,0 0.0308,0.0041 0.0452,0.0124 0.0134,0.0083 0.0221,0.0124 0.024,0.0124 0.0692,0.0301 0.1038,0.0849 0.1038,0.1678 0,0.0403 -0.0039,0.0787 -0.0125,0.1159 -0.0086,0.0363 -0.0231,0.0797 -0.0432,0.1305 -0.0202,0.0497 -0.0317,0.0818 -0.0356,0.0963 0,0.0362 0.0154,0.0631 0.0452,0.0808 0.0307,0.0176 0.0461,0.0424 0.0461,0.0735 v 0 c -0.0154,0.1159 -0.0221,0.2505 -0.0221,0.4038 0,0.03 -0.0144,0.0497 -0.0423,0.058 -0.0269,0.0082 -0.0672,0.0155 -0.121,0.0206 -0.0529,0.0052 -0.0856,0.0146 -0.0971,0.027 -0.0096,0.0103 -0.024,0.0538 -0.0423,0.1294 -0.0182,0.0766 -0.0307,0.1263 -0.0384,0.1501 -0.0202,0.0974 -0.0605,0.2651 -0.121,0.5002 -0.0596,0.236 -0.1058,0.4297 -0.1375,0.5808 -0.0307,0.1522 -0.0518,0.3054 -0.0633,0.4597 0.0115,0.0746 0.0201,0.1119 0.0278,0.1119 0.0615,0 0.1143,-0.0187 0.1614,-0.058 0.0461,-0.0394 0.1,-0.0953 0.1624,-0.1699 0.0615,-0.0745 0.1057,-0.1201 0.1326,-0.1387 0.049,-0.0363 0.0941,-0.0756 0.1355,-0.118 0.0403,-0.0415 0.0662,-0.0622 0.0768,-0.0622 0.0308,0 0.0461,0.0332 0.0461,0.0994 0,0.1181 -0.0134,0.2071 -0.0394,0.2703 -0.0259,0.0631 -0.0816,0.1336 -0.1672,0.2143 -0.0259,0.0238 -0.0576,0.058 -0.096,0.1015 -0.0385,0.0445 -0.0702,0.0776 -0.0951,0.1014 -0.026,0.0228 -0.0529,0.0404 -0.0807,0.0518 -0.2662,0.2868 -0.4334,0.4359 -0.5006,0.4473 -0.1797,-0.0797 -0.2738,-0.1895 -0.2835,-0.3292 0.0078,-0.0332 0.0116,-0.0642 0.0116,-0.0922 z"
   id="path55"
   style="fill:currentColor" />
  <path
   class="fil3"
   d="m 51.5718,42.6905 c -0.0384,-0.0487 -0.0576,-0.1046 -0.0576,-0.1688 0,-0.0922 0.0326,-0.1853 0.098,-0.2796 0.0653,-0.0932 0.1345,-0.1491 0.2075,-0.1677 0.0115,-0.0487 0.0529,-0.0921 0.1249,-0.1326 0.0711,-0.0393 0.147,-0.06 0.2268,-0.06 0.0394,0.0135 0.0682,0.0404 0.0865,0.0818 -0.0318,0.2185 -0.0596,0.3531 -0.0865,0.4038 -0.0135,0.0859 -0.0442,0.1553 -0.0894,0.2081 -0.0461,0.0539 -0.0999,0.0984 -0.1624,0.1367 -0.0614,0.0373 -0.0951,0.059 -0.0999,0.0652 -0.0384,0 -0.0768,0.0031 -0.1153,0.0114 -0.0864,0 -0.1335,-0.0248 -0.1431,-0.0745 0.0048,-0.0042 0.0076,-0.0094 0.0086,-0.0135 0.0019,-0.0052 0.0019,-0.0083 0.0019,-0.0103 z m -0.7196,2.1753 c -0.0077,-0.0176 -0.0115,-0.0611 -0.0115,-0.1304 0,-0.0363 0.0019,-0.0849 0.0058,-0.1492 0.0038,-0.0631 0.0057,-0.1076 0.0057,-0.1314 0.024,-0.0177 0.0635,-0.0601 0.1182,-0.1284 0.0538,-0.0684 0.1009,-0.1108 0.1403,-0.1264 0.0154,-0.0382 0.0596,-0.1024 0.1335,-0.1946 0.073,-0.0921 0.1307,-0.1491 0.172,-0.1708 0.0375,-0.0808 0.0778,-0.1326 0.121,-0.1564 0.1567,0 0.2739,0.0601 0.3517,0.1802 0.0086,0.029 0.0202,0.1252 0.0346,0.2889 0.0144,0.1636 0.0384,0.2919 0.072,0.3862 0.0327,0.0942 0.0913,0.148 0.1759,0.1636 0.0374,-0.0166 0.0624,-0.0239 0.0749,-0.0239 0.0634,-0.0362 0.1096,-0.0569 0.1374,-0.0621 0.0202,-0.0466 0.0528,-0.089 0.0999,-0.1253 0.0462,-0.0372 0.0846,-0.06 0.1144,-0.0673 0,0.0683 -0.002,0.1336 -0.0058,0.1968 -0.0038,0.0631 -0.0058,0.1252 -0.0058,0.1884 -0.0932,0.1957 -0.3045,0.3386 -0.6341,0.4276 -0.075,-0.0228 -0.1153,-0.0352 -0.1211,-0.0362 -0.0778,-0.0425 -0.1383,-0.0901 -0.1806,-0.1439 -0.0413,-0.0539 -0.072,-0.1098 -0.0913,-0.1678 -0.0192,-0.059 -0.0345,-0.1035 -0.0451,-0.1366 -0.0183,-0.0156 -0.048,-0.0684 -0.0894,-0.1585 -0.0403,-0.089 -0.0778,-0.1335 -0.1123,-0.1335 -0.0356,0 -0.0827,0.032 -0.1422,0.0973 -0.0606,0.0652 -0.1144,0.1263 -0.1634,0.1833 -0.0327,0.0114 -0.0653,0.0362 -0.0961,0.0735 -0.0307,0.0383 -0.0499,0.0569 -0.0586,0.0569 z"
   id="path56"
   style="fill:currentColor" />
  <path
   class="fil3"
   d="m 52.645,44.3802 c 0.027,-0.0238 0.0683,-0.0579 0.1259,-0.1025 0.0577,-0.0456 0.1144,-0.0828 0.1682,-0.1149 0,-0.0497 0.1066,-0.1626 0.3199,-0.3407 0.2143,-0.177 0.3872,-0.3065 0.5217,-0.3872 0.0356,-0.0269 0.0769,-0.059 0.122,-0.0952 0.0462,-0.0373 0.1057,-0.0705 0.1787,-0.1005 0.074,-0.03 0.1615,-0.0456 0.2633,-0.0456 0.0086,0.0363 0.0192,0.0839 0.0327,0.1409 0.0134,0.0579 0.0201,0.0994 0.0201,0.1263 0,0.1304 -0.1576,0.2795 -0.4736,0.4473 -0.0385,0.0839 -0.1278,0.1729 -0.27,0.2681 -0.1413,0.0943 -0.2402,0.1688 -0.2959,0.2216 -0.0558,0.0539 -0.0836,0.1408 -0.0836,0.261 0,0.0082 -0.0077,0.0435 -0.0241,0.1066 0.0077,0.0176 0.0154,0.0435 0.0231,0.0808 0.0077,0.0362 0.0183,0.0652 0.0307,0.0859 0.0135,0.0217 0.0375,0.0403 0.0731,0.0559 0.0836,0.0187 0.1739,0.0331 0.2709,0.0445 0.0058,-0.002 0.026,-0.0062 0.0605,-0.0124 0.0337,-0.0062 0.0615,-0.0124 0.0817,-0.0197 0.0211,-0.0072 0.0404,-0.0196 0.0596,-0.0362 0.0663,-0.0321 0.1854,-0.1087 0.3574,-0.2288 0.1729,-0.1377 0.2681,-0.2392 0.2825,-0.3055 0,-0.0166 0.0077,-0.0259 0.023,-0.0259 0.0202,0 0.0394,0.0125 0.0557,0.0373 0.0174,0.0249 0.0289,0.0455 0.0366,0.0632 0,0.0238 0.0019,0.0579 0.0057,0.1046 0.0039,0.0465 0.0058,0.0797 0.0058,0.1004 v 0.0124 c -0.0164,0.0849 -0.1441,0.2092 -0.3853,0.3728 -0.1758,0.1263 -0.3344,0.2236 -0.4756,0.2909 -0.1402,0.0673 -0.2901,0.1004 -0.4477,0.1004 -0.1729,0 -0.3372,-0.0849 -0.4958,-0.2547 -0.0393,-0.0797 -0.0672,-0.1791 -0.0835,-0.2961 -0.0174,-0.117 -0.0279,-0.176 -0.0317,-0.176 -0.0145,0 -0.0385,0.0196 -0.0702,0.059 -0.0317,0.0394 -0.0528,0.059 -0.0615,0.059 -0.0077,0 -0.0115,-0.0124 -0.0115,-0.0372 v -0.3604 c 0.0038,-0.0072 0.0163,-0.0207 0.0374,-0.0393 0.0212,-0.0186 0.0395,-0.0394 0.0538,-0.0601 z"
   id="path57"
   style="fill:currentColor" />
  <path
   class="fil3"
   d="m 54.5013,44.8151 c 0,-0.0176 -0.0019,-0.0477 -0.0057,-0.088 -0.0039,-0.0404 -0.0058,-0.0704 -0.0058,-0.0922 0,-0.176 0.1345,-0.3665 0.4035,-0.5715 0.0538,-0.1098 0.171,-0.2381 0.3526,-0.3852 0.0942,-0.0952 0.2556,-0.2423 0.4833,-0.4421 0.1508,-0.1118 0.2661,-0.1915 0.3459,-0.2381 0.0807,-0.0477 0.1633,-0.0704 0.2488,-0.0704 0.0567,0.0113 0.1028,0.0548 0.1374,0.1304 0,0.0414 -0.0173,0.0963 -0.0528,0.1646 -0.0366,0.0694 -0.0971,0.1191 -0.1835,0.1523 -0.0414,0.0755 -0.1278,0.1728 -0.2585,0.2909 -0.0355,0.0166 -0.0759,0.0559 -0.1211,0.1201 -0.0461,0.0632 -0.0893,0.1046 -0.1287,0.1222 -0.0269,0.059 -0.0538,0.1025 -0.0798,0.1304 -0.0172,0.0187 -0.0412,0.0383 -0.0729,0.0601 -0.0327,0.0217 -0.0481,0.0352 -0.0481,0.0393 -0.0307,0.0601 -0.0951,0.1419 -0.1912,0.2465 -0.0961,0.1035 -0.146,0.1584 -0.1499,0.1636 -0.0086,0.0227 -0.0192,0.0465 -0.0298,0.0714 -0.0105,0.0248 -0.0192,0.0435 -0.025,0.057 -0.0057,0.0134 -0.0105,0.0248 -0.0134,0.0331 0,0 0.0029,0.0041 0.0106,0.0114 0.0749,-0.0176 0.1383,-0.0497 0.1892,-0.0953 0.0519,-0.0456 0.1269,-0.1201 0.2259,-0.2236 0.0989,-0.1036 0.1758,-0.1709 0.2315,-0.202 0.0499,-0.0962 0.122,-0.177 0.2133,-0.2433 0.0922,-0.0652 0.1863,-0.0983 0.2815,-0.0983 0.0298,0 0.0538,0.0155 0.0701,0.0476 0.0164,0.0321 0.0289,0.0694 0.0375,0.1108 0.0096,0.0424 0.0182,0.0818 0.0259,0.1211 -0.0153,0.0766 -0.0269,0.1409 -0.0345,0.1926 0,0.0777 0.0201,0.1419 0.0595,0.1926 0.0404,0.0497 0.0913,0.0798 0.1537,0.088 0.0942,-0.0197 0.1883,-0.0797 0.2816,-0.1812 0.0105,0 0.0172,0.0083 0.0211,0.0249 0.0038,0.0176 0.0067,0.0414 0.0077,0.0745 9e-4,0.0331 0.0029,0.0642 0.0067,0.0932 0,0.0259 -0.0077,0.0549 -0.0221,0.087 0,0.0725 -0.0288,0.1418 -0.0846,0.207 -0.0567,0.0663 -0.122,0.1191 -0.1969,0.1595 -0.0759,0.0404 -0.1393,0.0632 -0.1922,0.0684 -0.0057,-0.0032 -0.0163,-0.0062 -0.0307,-0.0104 -0.0135,-0.0042 -0.0269,-0.0093 -0.0375,-0.0155 -0.0279,0 -0.0567,0.0051 -0.0874,0.0134 -0.0807,-0.0072 -0.1509,-0.0445 -0.2094,-0.1097 -0.0587,-0.0652 -0.0904,-0.1377 -0.0961,-0.2185 -0.0068,-0.0414 -0.0125,-0.086 -0.0183,-0.1325 -0.0058,-0.0466 -0.0106,-0.0808 -0.0154,-0.1026 -0.0048,-0.0217 -0.0124,-0.0372 -0.024,-0.0455 -0.0134,0 -0.0471,0.0249 -0.1028,0.0766 -0.0557,0.0508 -0.096,0.0963 -0.122,0.1357 -0.0096,0.0124 -0.0212,0.0217 -0.0346,0.0258 -0.0125,0.0052 -0.0259,0.0104 -0.0403,0.0166 -0.1134,0.1543 -0.2076,0.2475 -0.2835,0.2806 -0.0288,0.0621 -0.0913,0.1305 -0.1873,0.204 -0.0961,0.0746 -0.1778,0.1108 -0.2441,0.1108 -0.0528,0.0259 -0.0855,0.0383 -0.097,0.0383 -0.1557,0 -0.2469,-0.1015 -0.2719,-0.3044 0.0077,-0.0166 0.0115,-0.0373 0.0115,-0.0632 0,-0.03 0.0096,-0.0631 0.0289,-0.0983 0.0191,-0.0353 0.0287,-0.058 0.0287,-0.0684 0,-0.028 -0.0192,-0.0487 -0.0576,-0.0621 z"
   id="path58"
   style="fill:currentColor" />
 </g>
</svg>
